<?xml version="1.0" standalone="no"?>
<!DOCTYPE svg PUBLIC "-//W3C//DTD SVG 1.1//EN" "http://www.w3.org/Graphics/SVG/1.1/DTD/svg11.dtd" >
<svg>
<metadata>
Created by FontForge 20090622 at Fri May 15 16:46:40 2020
 By deploy user
Copyright (c) 2016 by Thomas Gillett. All rights reserved. |DCNT
</metadata>
<defs>
<font id="Gordita-BlackItalic" horiz-adv-x="680" >
  <font-face 
    font-family="Gordita Black"
    font-weight="900"
    font-style="italic"
    font-stretch="normal"
    units-per-em="1000"
    panose-1="0 0 0 0 0 0 0 0 0 0"
    ascent="754"
    descent="-246"
    x-height="534"
    cap-height="783"
    bbox="-317 -393.237 1457 1220"
    underline-thickness="50"
    underline-position="-50"
    slope="-14.5"
    unicode-range="U+0020-U+FB04"
  />
<missing-glyph horiz-adv-x="799" 
d="M90 0v783h660v-783h-660zM677 702h-509l509 -620v620z" />
    <glyph glyph-name="ff" unicode="ff" horiz-adv-x="854" 
d="M899 660q-42 0 -66 -20.5t-37 -63.5l-13 -42h132l-42 -156h-129l-101 -378h-189l101 378h-211l-101 -378h-189l101 378h-98l41 156h97l21 74q59 209 268 209q72 0 106 -21l-39 -148q-25 12 -51 12q-80 0 -104 -84l-12 -42h211l21 74q58 209 268 209q71 0 106 -21
l-40 -148q-24 12 -51 12z" />
    <glyph glyph-name="fi" unicode="fi" horiz-adv-x="772" 
d="M747 826q44 0 72 -27.5t28 -70.5q0 -51 -36 -87q-35 -35 -85 -35q-44 0 -72 27.5t-28 70.5q0 49 35 86q36 36 86 36zM449 0l101 378h-205l-101 -378h-190l101 378h-98l42 156h97l20 74q59 209 269 209q71 0 105 -21l-39 -148q-24 12 -51 12q-42 0 -65.5 -20.5
t-38.5 -63.5l-12 -42h399l-142 -534h-192z" />
    <glyph glyph-name="fl" unicode="fl" horiz-adv-x="773" 
d="M641 0h-192l101 378h-205l-101 -378h-190l101 378h-98l42 156h97l20 74q59 209 269 209q71 0 105 -21l-39 -148q-24 12 -51 12q-42 0 -65.5 -20.5t-38.5 -63.5l-12 -42h207l76 281h191z" />
    <glyph glyph-name="ffi" unicode="ffi" horiz-adv-x="1166" 
d="M1141 826q43 0 71.5 -27.5t28.5 -70.5q0 -51 -36 -87q-35 -35 -86 -35q-43 0 -71 27.5t-28 70.5q0 51 35 86.5t86 35.5zM843 0l101 378h-204l-101 -378h-190l101 378h-206l-101 -378h-189l101 378h-98l41 156h97l21 74q59 209 268 209q72 0 106 -21l-39 -148
q-25 12 -51 12q-80 0 -104 -84l-12 -42h207l20 74q59 209 269 209q70 0 105 -21l-39 -148q-24 12 -51 12q-42 0 -66 -20.5t-37 -63.5l-13 -42h398l-143 -534h-191z" />
    <glyph glyph-name="ffl" unicode="ffl" horiz-adv-x="1166" 
d="M1034 0h-192l101 378h-204l-101 -378h-190l101 378h-205l-101 -378h-189l101 378h-98l41 156h97l21 74q59 209 268 209q72 0 106 -21l-39 -148q-25 12 -51 12q-80 0 -104 -84l-12 -42h206l20 74q59 209 269 209q71 0 105 -21l-39 -148q-24 12 -51 12q-78 0 -103 -84
l-13 -42h206l76 281h191z" />
    <glyph glyph-name=".notdef" horiz-adv-x="799" 
d="M90 0v783h660v-783h-660zM677 702h-509l509 -620v620z" />
    <glyph glyph-name=".null" horiz-adv-x="0" 
 />
    <glyph glyph-name="nonmarkingreturn" horiz-adv-x="333" 
 />
    <glyph glyph-name="space" unicode=" " horiz-adv-x="234" 
 />
    <glyph glyph-name="exclam" unicode="!" horiz-adv-x="353" 
d="M263 266h-173l123 517h204zM121 -12q-43 0 -70.5 27t-27.5 70q0 50 35 85q35 36 85 36q42 0 70.5 -27.5t28.5 -69.5q0 -50 -36 -86q-35 -35 -85 -35z" />
    <glyph glyph-name="quotedbl" unicode="&#x22;" horiz-adv-x="529" 
d="M237 376h-94v261q0 65 30.5 103t84.5 38q41 0 65.5 -22.5t24.5 -54.5q0 -27 -24 -94zM486 376h-94v261q0 65 30.5 103t84.5 38q41 0 65.5 -22.5t24.5 -54.5q0 -27 -24 -94z" />
    <glyph glyph-name="numbersign" unicode="#" horiz-adv-x="806" 
d="M368 0l57 160h-143l-57 -160h-159l58 160h-102l42 162h119l51 142h-112l44 163h125l53 148h158l-53 -148l142 -1l53 149h158l-52 -149h108l-44 -162h-122l-50 -142h115l-43 -162h-131l-59 -160h-156zM486 320l51 146h-147l-53 -146h149z" />
    <glyph glyph-name="dollar" unicode="$" horiz-adv-x="682" 
d="M472 617l-40 -149l17 -6q192 -70 192 -219q0 -112 -86 -181q-86 -68 -230 -68h-17l-26 -96l-74 -1l28 105q-86 17 -142 66t-75 123l159 74q26 -78 103 -100l42 156l-15 5q-87 31 -136.5 83.5t-49.5 122.5q0 114 92 186q91 72 212 72h20l27 102h75l-31 -112
q72 -18 120 -62t65 -107l-157 -75q-23 60 -73 81zM368 491l37 135q-38 -3 -62.5 -23.5t-24.5 -47.5q0 -40 50 -64zM387 297l-37 -138q46 3 70 23.5t24 48.5q0 41 -57 66z" />
    <glyph glyph-name="percent" unicode="%" horiz-adv-x="1075" 
d="M308 410q-84 0 -134 48q-49 48 -49 122q0 84 64 147q64 64 156 64q84 0 135 -48t51 -121q0 -83 -65 -148q-64 -64 -158 -64zM829 783h166l-679 -783h-167zM321 535q31 0 52.5 21.5t21.5 51.5q0 25 -17.5 41.5t-44.5 16.5q-29 0 -50 -22t-21 -50q0 -25 16.5 -42t42.5 -17z
M800 -6q-83 0 -133 47t-50 123q0 84 63 147q64 64 156 64q85 0 136 -48t51 -121q0 -83 -65 -148q-64 -64 -158 -64zM812 119q30 0 52 22t22 50q0 25 -17 42t-44 17q-30 0 -51 -22t-21 -50q0 -25 16.5 -42t42.5 -17z" />
    <glyph glyph-name="ampersand" unicode="&#x26;" horiz-adv-x="747" 
d="M594 379l126 -63q-46 -87 -126 -159l97 -157h-183l-38 62q-115 -73 -222 -73q-97 0 -162 50q-63 51 -63 146q0 81 65 146q66 65 157 102q-54 89 -54 148q0 94 75 154q76 61 172 61q91 0 155 -55q64 -54 64 -142q0 -66 -43 -118t-115 -83l-41 -17l62 -101q45 48 74 99z
M376 518l14 -22l54 23q22 9 37 27.5t15 39.5q0 27 -19.5 44t-48.5 17q-31 0 -52.5 -18.5t-21.5 -48.5q0 -25 22 -62zM193 209q0 -34 24 -52t63 -18q55 0 120 43l-84 139q-123 -51 -123 -112z" />
    <glyph glyph-name="quotesingle" unicode="'" horiz-adv-x="280" 
d="M237 376h-94v261q0 65 30.5 103t84.5 38q41 0 65.5 -22.5t24.5 -54.5q0 -27 -24 -94z" />
    <glyph glyph-name="parenleft" unicode="(" horiz-adv-x="482" 
d="M556 875l48 -112q-184 -81 -282.5 -202t-98.5 -270q0 -92 43.5 -180.5t126.5 -155.5l-94 -96q-113 75 -174 190t-61 237q0 210 131 368t361 221z" />
    <glyph glyph-name="parenright" unicode=")" horiz-adv-x="481" 
d="M-15 -141l-48 113q184 80 282.5 202t98.5 271q0 92 -43.5 180t-126.5 155l94 96q113 -75 174 -190t61 -237q0 -211 -131 -369q-129 -156 -361 -221z" />
    <glyph glyph-name="asterisk" unicode="*" horiz-adv-x="523" 
d="M431 513l45 -117l-110 -43l-47 119l-100 -80l-73 91l97 80l-106 70l64 97l106 -68l33 125l117 -31l-34 -126l126 7l9 -116z" />
    <glyph glyph-name="plus" unicode="+" horiz-adv-x="613" 
d="M583 286h-186l-50 -189h-167l51 189h-185l42 159h185l50 187h167l-50 -187h185z" />
    <glyph glyph-name="comma" unicode="," horiz-adv-x="332" 
d="M248 106q0 -84 -56 -155q-54 -70 -140 -124l-56 60q94 56 140 130q-19 -10 -42 -10q-39 0 -62.5 24t-23.5 61q0 54 40 91q41 38 95 38q47 0 76 -32.5t29 -82.5z" />
    <glyph glyph-name="hyphen" unicode="-" horiz-adv-x="451" 
d="M57 246l42 159h330l-42 -159h-330z" />
    <glyph glyph-name="period" unicode="." horiz-adv-x="317" 
d="M115 -11q-46 0 -75.5 29t-29.5 75q0 55 37 92q38 38 91 38q46 0 76 -29.5t30 -75.5q0 -53 -38 -91t-91 -38z" />
    <glyph glyph-name="slash" unicode="/" horiz-adv-x="605" 
d="M148 -5h-178l568 820h179z" />
    <glyph glyph-name="zero" unicode="0" horiz-adv-x="774" 
d="M482 796q136 0 212 -90q77 -89 77 -225q0 -184 -106 -334q-51 -73 -130.5 -116t-170.5 -43q-137 0 -214 87q-76 88 -76 228q0 185 107 334q52 73 131 116t170 43zM277 312q0 -142 109 -142q44 0 81 31.5t58 81.5q43 100 43 189q0 67 -28 104.5t-82 37.5q-44 0 -80.5 -31
t-58.5 -82q-42 -96 -42 -189z" />
    <glyph glyph-name="one" unicode="1" horiz-adv-x="522" 
d="M372 0h-198l144 537l-157 -79l-76 154l334 171h162z" />
    <glyph glyph-name="two" unicode="2" horiz-adv-x="692" 
d="M-10 0l44 164l381 265q94 66 94 120q0 31 -23 51.5t-61 20.5q-89 0 -150 -90l-145 105q100 160 313 160q115 0 190 -60q76 -60 76 -165q0 -70 -43 -128q-46 -62 -146 -130l-212 -147h308l-44 -166h-582z" />
    <glyph glyph-name="three" unicode="3" horiz-adv-x="676" 
d="M426 244q0 68 -85 68h-84l44 166h64q61 0 95 23t34 61q0 27 -24 45.5t-60 18.5q-85 0 -144 -77l-138 104q102 143 304 143q120 0 190 -60q71 -60 71 -152q0 -74 -47 -126.5t-124 -70.5v-1q48 -22 75 -62.5t27 -92.5q0 -104 -88 -174t-232 -70q-105 0 -182 52
q-78 53 -102 150l161 76q13 -48 48.5 -78t87.5 -30q43 0 75 25q34 25 34 62z" />
    <glyph glyph-name="four" unicode="4" horiz-adv-x="778" 
d="M584 146l-37 -146h-194l37 146h-381l53 198l461 439h232l-126 -471h116l-46 -166h-115zM502 569l-271 -257h203z" />
    <glyph glyph-name="five" unicode="5" horiz-adv-x="684" 
d="M682 618h-328l-56 -140q60 33 135 33q94 0 152 -64q59 -64 59 -153q0 -136 -96 -222q-95 -85 -234 -85q-101 0 -177 49q-77 50 -104 143l161 84q12 -46 46 -74.5t83 -28.5t83 33q35 33 35 82q0 39 -28 63t-69 24q-62 0 -109 -46l-147 75l157 392h482z" />
    <glyph glyph-name="six" unicode="6" horiz-adv-x="729" 
d="M532 796q70 0 131 -24t93 -61l-109 -140q-57 54 -135 54q-163 0 -220 -181h1q86 70 178 70t157 -62t65 -153q0 -131 -100 -222q-99 -90 -231 -90q-130 0 -210 81q-79 80 -79 215q0 139 54 255q57 118 161 187q107 71 244 71zM263 243q0 -40 30 -64.5t73 -24.5q54 0 91 33
q39 35 39 85q0 40 -29.5 64t-72.5 24q-51 0 -91 -34t-40 -83z" />
    <glyph glyph-name="seven" unicode="7" horiz-adv-x="646" 
d="M250 0h-227l464 613h-369l46 170h594l-43 -163z" />
    <glyph glyph-name="eight" unicode="8" horiz-adv-x="708" 
d="M712 582q0 -68 -44.5 -117t-119.5 -75v-1q49 -25 77.5 -67t28.5 -94q0 -60 -29 -107.5t-77 -75.5t-103 -42.5t-112 -14.5q-53 0 -102.5 13.5t-91.5 39t-67.5 69t-25.5 98.5q0 79 52 132q52 55 126 79v1q-86 65 -86 149q0 74 47 127q89 100 253 100q108 0 191 -56t83 -158
zM513 558q0 34 -25.5 53.5t-63.5 19.5q-39 0 -66.5 -24.5t-27.5 -62.5q0 -34 25 -53.5t62 -19.5q40 0 68 24.5t28 62.5zM464 248q0 37 -31 60t-73 23q-47 0 -79.5 -26t-32.5 -69q0 -38 29.5 -60t73.5 -22q49 0 81 25t32 69z" />
    <glyph glyph-name="nine" unicode="9" horiz-adv-x="730" 
d="M276 -13q-74 0 -134.5 25.5t-95.5 64.5l109 140q64 -59 141 -59q158 0 213 181h-1q-88 -70 -178 -70q-92 0 -157 62t-65 153q0 131 99 221q100 91 232 91q129 0 209 -81q80 -82 80 -215q0 -140 -54 -255q-55 -117 -159 -187q-104 -71 -239 -71zM538 540q0 40 -30 64.5
t-73 24.5q-54 0 -92 -34q-38 -33 -38 -84q0 -40 29.5 -64t72.5 -24q50 0 90 34q41 35 41 83z" />
    <glyph glyph-name="colon" unicode=":" horiz-adv-x="336" 
d="M203 313q-46 0 -75.5 29t-29.5 75q0 54 37 91q38 38 91 38q45 0 75.5 -29.5t30.5 -74.5q0 -53 -38 -91t-91 -38zM116 -11q-46 0 -75.5 29t-29.5 75q0 55 37 92q38 38 91 38q46 0 76 -29.5t30 -75.5q0 -53 -38 -91t-91 -38z" />
    <glyph glyph-name="semicolon" unicode=";" horiz-adv-x="346" 
d="M208 313q-46 0 -75.5 29t-29.5 75q0 54 37 91q38 38 91 38q46 0 76 -29t30 -75q0 -53 -38 -91t-91 -38zM247 106q0 -84 -56 -155q-54 -70 -140 -124l-56 60q94 56 140 130q-19 -10 -42 -10q-39 0 -62.5 24t-23.5 61q0 54 40 91q41 38 95 38q47 0 76 -32.5t29 -82.5z" />
    <glyph glyph-name="less" unicode="&#x3c;" horiz-adv-x="636" 
d="M253 359l303 -139l-43 -158l-466 237l36 134l592 237l-47 -177z" />
    <glyph glyph-name="equal" unicode="=" horiz-adv-x="635" 
d="M105 415l42 157h509l-42 -157h-509zM37 160l42 156h508l-41 -156h-509z" />
    <glyph glyph-name="greater" unicode="&#x3e;" horiz-adv-x="637" 
d="M140 512l43 158l465 -237l-35 -134l-593 -237l47 177l377 135z" />
    <glyph glyph-name="question" unicode="?" horiz-adv-x="593" 
d="M631 604q0 -95 -80 -159q-7 -6 -47.5 -37t-55.5 -44.5t-34.5 -42.5t-24.5 -57l-1 -7h-177q0 6 2 28q13 102 88 164q16 13 45 33.5t44 32.5t28 28.5t13 31.5q0 25 -18 39.5t-45 14.5q-57 0 -101 -68l-135 96q82 139 271 139q104 0 166 -54t62 -138zM264 -12q-43 0 -71 27
t-28 70q0 50 35 85q34 36 85 36q43 0 71 -27t28 -70q0 -49 -35 -86q-35 -35 -85 -35z" />
    <glyph glyph-name="at" unicode="@" horiz-adv-x="876" 
d="M570 462l16 47h117q-80 -245 -80 -275q0 -29 27 -29q59 0 100 65q40 65 40 131q0 108 -85 175q-86 68 -196 68q-150 0 -260 -113q-109 -112 -109 -265q0 -123 81 -201q82 -78 208 -78q54 0 115.5 19.5t107.5 50.5l33 -62q-49 -40 -122 -61q-77 -24 -140 -24
q-151 0 -257 98q-105 98 -105 252q0 123 59 229q58 105 163 167q105 63 230 63q87 0 167 -36q81 -36 135 -108t54 -162q0 -70 -29 -139q-29 -68 -88 -115t-132 -47q-35 0 -66 15.5t-40 41.5q-22 -25 -57.5 -41.5t-68.5 -16.5q-62 0 -102 46t-40 110q0 97 70 171
q70 76 163 76q31 0 58 -14.5t33 -37.5zM536 343q0 25 -15.5 40.5t-41.5 15.5q-41 0 -74 -37q-32 -37 -32 -77q0 -27 15 -44.5t41 -17.5q41 0 74 39t33 81z" />
    <glyph glyph-name="A" unicode="A" horiz-adv-x="818" 
d="M568 0l-21 144h-312l-90 -144h-213l494 783h225l121 -783h-204zM489 567l-154 -256h190z" />
    <glyph glyph-name="B" unicode="B" horiz-adv-x="756" 
d="M15 0l209 783h259q79 0 141 -18q63 -15 102 -57t41 -113q0 -79 -51 -131q-48 -51 -127 -68v-2q57 -17 88.5 -58.5t31.5 -97.5q0 -106 -91 -172q-92 -66 -265 -66h-338zM371 614l-38 -141h110q55 0 88.5 20.5t33.5 61.5q0 59 -96 59h-98zM292 317l-40 -147h132
q53 0 87.5 22t34.5 62q0 63 -98 63h-116z" />
    <glyph glyph-name="C" unicode="C" horiz-adv-x="864" 
d="M680 315l170 -83q-41 -87 -137 -162q-109 -82 -269 -82q-154 0 -263 92q-107 93 -107 255q-2 126 62.5 234t172.5 169t229 58q170 0 255 -82q76 -73 98 -167l-188 -78q-14 59 -57 101q-44 42 -126 42q-100 0 -170 -79q-71 -79 -71 -183q0 -81 50 -129t137 -48
q79 0 132 43q55 43 82 99z" />
    <glyph glyph-name="D" unicode="D" horiz-adv-x="827" 
d="M15 0l208 783h214q181 0 285 -83q105 -82 105 -247q0 -89 -35.5 -172.5t-104.5 -147.5q-143 -133 -399 -133h-273zM620 437q0 164 -203 164h-44l-112 -418h52q82 0 145.5 24.5t97.5 65.5q64 77 64 164z" />
    <glyph glyph-name="E" unicode="E" horiz-adv-x="686" 
d="M15 0l209 783h546l-47 -175h-349l-35 -128h318l-45 -169h-318l-36 -135h352l-47 -176h-548z" />
    <glyph glyph-name="F" unicode="F" horiz-adv-x="673" 
d="M720 604h-346l-39 -142h314l-45 -173h-314l-77 -289h-198l209 783h544z" />
    <glyph glyph-name="G" unicode="G" horiz-adv-x="874" 
d="M890 561l-183 -80q-16 62 -63.5 98t-121.5 36q-101 0 -175 -80q-73 -79 -73 -182q0 -80 50 -133q51 -53 141 -53q63 0 113 28.5t75 77.5h-226l37 155h415q-6 -179 -113 -304q-53 -63 -137 -99.5t-184 -36.5q-157 0 -263 93q-107 93 -107 254q0 195 136 328t328 133
q167 0 252 -77q74 -66 99 -158z" />
    <glyph glyph-name="H" unicode="H" horiz-adv-x="850" 
d="M501 0l82 305h-290l-81 -305h-198l210 783h197l-79 -296h289l79 296h198l-209 -783h-198z" />
    <glyph glyph-name="I" unicode="I" horiz-adv-x="363" 
d="M15 0l209 783h197l-209 -783h-197z" />
    <glyph glyph-name="J" unicode="J" horiz-adv-x="625" 
d="M0 157l163 81q9 -29 31 -47t55 -18q37 0 64 25.5t39 71.5l136 513h201l-146 -544q-32 -118 -109.5 -184t-199.5 -66q-87 0 -152 43q-66 44 -82 125z" />
    <glyph glyph-name="K" unicode="K" horiz-adv-x="763" 
d="M481 0l-168 374l-99 -374h-199l209 783h199l-89 -332h1l315 332h252l-391 -397l191 -386h-221z" />
    <glyph glyph-name="L" unicode="L" horiz-adv-x="618" 
d="M539 0h-524l209 783h198l-161 -603h326z" />
    <glyph glyph-name="M" unicode="M" horiz-adv-x="1056" 
d="M710 0l133 495h-2l-320 -495h-119l-65 492h-2l-131 -492h-189l209 783h243l64 -480l310 480h273l-209 -783h-195z" />
    <glyph glyph-name="N" unicode="N" horiz-adv-x="868" 
d="M501 0l-159 486h-1l-130 -486h-196l209 783h221l156 -478l128 478h197l-209 -783h-216z" />
    <glyph glyph-name="O" unicode="O" horiz-adv-x="912" 
d="M539 796q165 0 268 -100q104 -99 104 -248q0 -127 -64 -233q-64 -105 -171 -167q-106 -60 -229 -60q-99 0 -181 39q-83 39 -137 120q-54 82 -54 191q0 125 63 232q63 106 169 166q107 60 232 60zM280 354q0 -85 52 -133t132 -48q100 0 170 78q72 79 72 181q0 77 -51 128
q-49 52 -134 52q-98 0 -170 -79q-71 -79 -71 -179z" />
    <glyph glyph-name="P" unicode="P" horiz-adv-x="713" 
d="M285 271l-73 -271h-198l210 783h244q118 0 186 -37q107 -57 107 -185q0 -30 -8 -66q-6 -31 -18 -56q-32 -65 -101 -110q-89 -58 -220 -58h-129zM375 610l-45 -172h82q65 0 106 25.5t41 76.5q0 29 -20 46q-25 24 -82 24h-82z" />
    <glyph glyph-name="Q" unicode="Q" horiz-adv-x="914" 
d="M539 796q165 0 268 -100q104 -99 104 -248q0 -188 -136 -321l58 -78l-139 -91l-51 74q-96 -44 -196 -44q-99 0 -181 39q-83 39 -137 120q-54 82 -54 191q0 125 63 232q63 106 169 166q107 60 232 60zM278 351q0 -83 53 -133q52 -49 133 -49q36 0 69 13l-91 126l138 91
l79 -116q47 71 47 147q0 79 -51 130q-49 52 -134 52q-97 0 -171 -80q-72 -80 -72 -181z" />
    <glyph glyph-name="R" unicode="R" horiz-adv-x="747" 
d="M368 275h-81l-74 -275h-198l209 783h243q172 0 249 -74q58 -55 58 -150q0 -93 -53 -160.5t-161 -98.5l87 -300h-199zM376 613l-45 -170h95q64 0 104.5 26t40.5 72q0 26 -17 46q-24 26 -88 26h-90z" />
    <glyph glyph-name="S" unicode="S" horiz-adv-x="695" 
d="M450 229q0 45 -71 71l-66 23q-88 32 -138 85t-50 125q-1 114 94.5 190.5t214.5 72.5q110 0 184.5 -50t95.5 -134l-161 -77q-32 92 -128 92q-41 0 -69.5 -21t-28.5 -49q0 -45 65 -69l66 -24q195 -70 195 -222q0 -114 -88 -184q-86 -70 -233 -70q-124 0 -206 53.5
t-106 148.5l165 77q16 -53 57 -81t99 -28q52 0 80.5 21t28.5 50z" />
    <glyph glyph-name="T" unicode="T" horiz-adv-x="674" 
d="M529 604l-161 -604h-199l162 604h-221l48 179h638l-46 -179h-221z" />
    <glyph glyph-name="U" unicode="U" horiz-adv-x="797" 
d="M665 783h200l-132 -494q-42 -155 -129.5 -227.5t-238.5 -72.5q-74 0 -129.5 19.5t-88.5 53t-50 79t-16.5 97.5t15.5 109l116 436h200l-120 -450q-20 -74 6 -117.5t93 -43.5q111 0 150 146z" />
    <glyph glyph-name="V" unicode="V" horiz-adv-x="776" 
d="M438 0h-208l-95 783h214l48 -513l291 513h218z" />
    <glyph glyph-name="W" unicode="W" horiz-adv-x="1197" 
d="M701 0l-32 522l-282 -522h-200l-45 783h201l15 -495h3l268 495h190l38 -496h2l252 496h210l-417 -783h-203z" />
    <glyph glyph-name="X" unicode="X" horiz-adv-x="787" 
d="M505 0l-105 251l-228 -251h-237l380 410l-165 373h217l95 -229l206 229h236l-358 -387l175 -396h-216z" />
    <glyph glyph-name="Y" unicode="Y" horiz-adv-x="761" 
d="M484 288l-77 -288h-198l82 310l-143 473h210l78 -287l231 287h233z" />
    <glyph glyph-name="Z" unicode="Z" horiz-adv-x="696" 
d="M628 176l-47 -176h-609l44 167l465 442h-331l48 174h591l-44 -165l-467 -442h350z" />
    <glyph glyph-name="bracketleft" unicode="[" horiz-adv-x="458" 
d="M-19 -129l266 996h343l-36 -136h-186l-193 -724h185l-36 -136h-343z" />
    <glyph glyph-name="backslash" unicode="\" horiz-adv-x="585" 
d="M173 815h169l148 -820h-170z" />
    <glyph glyph-name="bracketright" unicode="]" horiz-adv-x="458" 
d="M-71 -129l36 136h186l193 724h-186l36 136h344l-266 -996h-343z" />
    <glyph glyph-name="asciicircum" unicode="^" horiz-adv-x="660" 
d="M510 451l-66 197l-170 -197h-182l304 332h156l126 -332h-168z" />
    <glyph glyph-name="underscore" unicode="_" horiz-adv-x="583" 
d="M-120 -191l38 141h582l-37 -141h-583z" />
    <glyph glyph-name="grave" unicode="`" horiz-adv-x="331" 
d="M136 819h197l86 -196h-134z" />
    <glyph glyph-name="a" unicode="a" horiz-adv-x="689" 
d="M369 0l15 58h-2q-70 -69 -154 -69q-90 0 -142 64t-52 154q0 136 86 237q87 100 208 100q106 0 161 -78h1l19 68h190l-142 -534h-188zM318 157q51 0 90 40q39 41 39 95q0 38 -25.5 61.5t-64.5 23.5q-53 0 -92 -41q-38 -41 -38 -95q0 -38 24.5 -61t66.5 -23z" />
    <glyph glyph-name="b" unicode="b" horiz-adv-x="688" 
d="M660 327q0 -142 -88 -240q-87 -98 -204 -98q-108 0 -164 83h-2l-19 -72h-188l217 815h190l-89 -336h2q70 65 151 65q78 0 136 -56q58 -55 58 -161zM338 158q53 0 90 40q39 40 39 96q0 38 -24.5 61t-65.5 23q-53 0 -92 -41t-39 -95q0 -38 25.5 -61t66.5 -23z" />
    <glyph glyph-name="c" unicode="c" horiz-adv-x="617" 
d="M313 157q35 0 64 18t44 47l153 -77q-38 -73 -108 -115t-162 -42q-124 0 -195 67q-72 67 -72 178q0 128 92 220q93 93 229 93q99 0 164.5 -46.5t86.5 -121.5l-169 -68q-19 67 -93 67q-54 0 -89 -41t-35 -92q0 -39 24 -63t66 -24z" />
    <glyph glyph-name="d" unicode="d" horiz-adv-x="689" 
d="M557 0h-189l15 58h-1q-70 -69 -154 -69q-91 0 -143 64q-51 65 -51 154q0 136 86 237q87 100 208 100q106 0 161 -78h1l93 349h191zM317 157q52 0 91 39q39 40 39 96q0 38 -25.5 61.5t-65.5 23.5q-53 0 -91 -41t-38 -95q0 -38 24.5 -61t65.5 -23z" />
    <glyph glyph-name="e" unicode="e" horiz-adv-x="632" 
d="M584 219h-369q0 -37 30 -60t71 -23q79 0 128 61l117 -94q-91 -115 -254 -115q-118 0 -195 68q-76 67 -76 180q0 127 97 218q98 92 228 92q110 0 176 -63q67 -63 67 -167q0 -46 -20 -97zM353 401q-36 0 -70 -21.5t-48 -54.5h191q2 10 2 16q0 29 -20.5 44.5t-54.5 15.5z
" />
    <glyph glyph-name="f" unicode="f" horiz-adv-x="455" 
d="M590 796l-39 -148q-25 12 -51 12q-78 0 -104 -84l-12 -42h131l-42 -156h-129l-101 -378h-189l101 378h-98l41 156h97l21 74q59 209 268 209q72 0 106 -21z" />
    <glyph glyph-name="g" unicode="g" horiz-adv-x="686" 
d="M-44 -87l156 73q11 -43 43.5 -67.5t72.5 -24.5q105 0 141 133l11 41l-44 -29q-51 -29 -106 -29q-81 0 -138 60q-56 62 -56 146q0 132 85 229t202 97q108 0 164 -80h1l20 72h188l-135 -509q-76 -292 -332 -292q-114 0 -184 52q-70 53 -89 128zM313 175q48 0 86 38
q38 40 38 92q0 36 -24 58.5t-62 22.5q-51 0 -88 -39q-37 -37 -37 -91q0 -37 23.5 -59t63.5 -22z" />
    <glyph glyph-name="h" unicode="h" horiz-adv-x="651" 
d="M526 0h-190l76 281q4 20 4 33q0 57 -57 57q-75 0 -98 -87l-76 -284h-190l217 815h189l-90 -340h1q71 70 154 70q73 0 113 -43.5t40 -114.5q0 -39 -15 -98z" />
    <glyph glyph-name="i" unicode="i" horiz-adv-x="318" 
d="M271 606q-43 0 -71 27.5t-28 70.5q0 51 35 86.5t86 35.5q43 0 71.5 -27.5t28.5 -70.5q0 -51 -36 -87q-35 -35 -86 -35zM187 0h-192l142 534h192z" />
    <glyph glyph-name="j" unicode="j" horiz-adv-x="326" 
d="M280 606q-43 0 -71 27.5t-28 70.5q0 49 35 86q34 36 85 36q44 0 72 -27.5t28 -70.5q0 -51 -35 -86.5t-86 -35.5zM145 534h192l-161 -602q-27 -100 -87.5 -149.5t-160.5 -49.5q-19 0 -56 8q-34 7 -53 20l38 143q23 -12 48 -12q69 0 86 63z" />
    <glyph glyph-name="k" unicode="k" horiz-adv-x="638" 
d="M185 0h-190l217 815h190l-133 -500h3l201 219h236l-257 -265l118 -269h-206l-109 263z" />
    <glyph glyph-name="l" unicode="l" horiz-adv-x="318" 
d="M-5 0l217 815h192l-217 -815h-192z" />
    <glyph glyph-name="m" unicode="m" horiz-adv-x="980" 
d="M521 0h-190l75 283q5 18 5 32q0 56 -55 56q-35 0 -60 -23.5t-35 -63.5l-76 -284h-190l142 534h189l-16 -59h2q70 69 152 69q104 0 137 -87q81 88 192 88q74 0 115 -42t41 -115q0 -41 -16 -98l-78 -290h-188l74 283q5 18 5 32q0 56 -54 56q-72 0 -96 -87z" />
    <glyph glyph-name="n" unicode="n" horiz-adv-x="651" 
d="M526 0h-190l76 281q4 20 4 33q0 57 -57 57q-75 0 -98 -87l-76 -284h-190l142 534h189l-15 -59h1q71 70 154 70q73 0 113 -43.5t40 -114.5q0 -39 -15 -98z" />
    <glyph glyph-name="o" unicode="o" horiz-adv-x="654" 
d="M302 -12q-124 0 -195 69q-71 71 -71 179q0 123 92 217q92 93 228 93q125 0 195 -70q72 -70 72 -178q0 -124 -93 -217q-92 -93 -228 -93zM312 157q50 0 88 39q37 38 37 93q0 39 -25.5 63.5t-65.5 24.5q-53 0 -89 -40q-35 -40 -35 -92q0 -39 23.5 -63.5t66.5 -24.5z" />
    <glyph glyph-name="p" unicode="p" horiz-adv-x="688" 
d="M660 327q0 -142 -88 -240q-87 -98 -204 -98q-108 0 -164 83h-2l-89 -336h-189l213 798h191l-15 -55h2q70 65 151 65q78 0 136 -56q58 -55 58 -161zM338 158q53 0 90 40q39 40 39 96q0 38 -24.5 61t-65.5 23q-53 0 -92 -41t-39 -95q0 -38 25.5 -61t66.5 -23z" />
    <glyph glyph-name="q" unicode="q" horiz-adv-x="688" 
d="M228 -11q-90 0 -142 64t-52 154q0 136 86 237q87 100 208 100q106 0 161 -78h1l18 68h191l-213 -798h-189l86 322h-1q-70 -69 -154 -69zM317 157q52 0 91 39q39 40 39 96q0 38 -25.5 61.5t-65.5 23.5q-53 0 -91 -41t-38 -95q0 -38 24.5 -61t65.5 -23z" />
    <glyph glyph-name="r" unicode="r" horiz-adv-x="461" 
d="M513 531l-49 -184q-27 10 -60 10q-124 0 -156 -123l-63 -234h-190l142 534h189l-21 -79h1q57 85 159 85q29 0 48 -9z" />
    <glyph glyph-name="s" unicode="s" horiz-adv-x="536" 
d="M307 547q83 0 143 -37.5t84 -102.5l-124 -63q-10 30 -40 50t-66 20q-19 0 -33.5 -10t-14.5 -25q0 -21 35 -33l40 -14q73 -25 109.5 -63t36.5 -96q0 -84 -70 -135q-71 -50 -171 -50q-89 0 -153 43t-86 118l127 59q9 -36 40 -61t74 -25q24 0 40 10t16 27q0 25 -30 35
l-37 15q-76 30 -104 57q-44 39 -44 97q0 82 66 133q67 51 162 51z" />
    <glyph glyph-name="t" unicode="t" horiz-adv-x="474" 
d="M401 155l-39 -150q-44 -14 -103 -14q-76 0 -122 40t-46 111q0 33 10 66l45 168h-101l42 158h105l47 173h185l-46 -173h127l-42 -158h-127l-43 -161q-3 -11 -3 -21q0 -44 62 -44q19 0 49 5z" />
    <glyph glyph-name="u" unicode="u" horiz-adv-x="652" 
d="M330 0l16 59h-2q-73 -70 -154 -70q-72 0 -112.5 44t-40.5 114q0 44 16 98l77 289h190l-75 -282q-5 -18 -5 -32q0 -27 15 -42t42 -15q75 0 99 87l76 284h190l-143 -534h-189z" />
    <glyph glyph-name="v" unicode="v" horiz-adv-x="631" 
d="M494 534h204l-357 -534h-189l-71 534h193l30 -309z" />
    <glyph glyph-name="w" unicode="w" horiz-adv-x="909" 
d="M292 0h-180l-28 534h187l6 -287h1l170 287h155l19 -289h1l165 289h184l-312 -534h-181l-16 286h-1z" />
    <glyph glyph-name="x" unicode="x" horiz-adv-x="629" 
d="M357 0l-64 141l-126 -141h-228l272 276l-136 258h209l61 -139l124 139h223l-265 -270l136 -264h-206z" />
    <glyph glyph-name="y" unicode="y" horiz-adv-x="625" 
d="M186 -263h-199l165 262l-70 535h187l33 -317h1l188 317h201z" />
    <glyph glyph-name="z" unicode="z" horiz-adv-x="556" 
d="M-28 0l42 151l281 226h-212l41 157h460l-37 -141l-295 -237h234l-41 -156h-473z" />
    <glyph glyph-name="braceleft" unicode="{" horiz-adv-x="468" 
d="M264 218l-24 -66q-36 -76 -25.5 -111t77.5 -35h65l-36 -135h-72q-132 0 -178.5 64.5t-0.5 189.5l32 84q18 50 -0.5 67.5t-80.5 18.5l40 150q62 1 90.5 18.5t36.5 66.5l16 103q23 135 92 184q71 50 206 50h85l-37 -136h-63q-70 0 -98 -34q-27 -33 -42 -114l-15 -79
q-10 -60 -44 -92t-103 -40v-4q123 -24 79 -150z" />
    <glyph glyph-name="bar" unicode="|" horiz-adv-x="323" 
d="M-16 -116l269 1007h156l-269 -1007h-156z" />
    <glyph glyph-name="braceright" unicode="}" horiz-adv-x="469" 
d="M251 521l25 64q23 54 27 84.5t-14.5 46t-64.5 15.5h-65l36 136h72q132 0 178 -65t0 -190l-31 -84q-18 -49 0.5 -66.5t80.5 -18.5l-40 -150q-62 -1 -90 -18.5t-36 -66.5l-17 -103q-23 -135 -92 -184q-71 -50 -206 -50h-85l36 136h64q70 0 97 33q28 34 43 115l15 79
q10 60 44 92t103 41v3q-126 26 -80 151z" />
    <glyph glyph-name="asciitilde" unicode="~" horiz-adv-x="589" 
d="M157 217h-135q16 94 69 154q54 60 143 60q62 0 102 -36t62 -36q44 0 62 66h135q-16 -97 -70 -155t-140 -58q-37 0 -70 18t-57.5 36t-39.5 18q-43 0 -61 -67z" />
    <glyph glyph-name="exclamdown" unicode="&#xa1;" horiz-adv-x="353" 
d="M232 546q43 0 70.5 -27t27.5 -70q0 -49 -35 -86q-35 -35 -85 -35q-42 0 -70.5 27.5t-28.5 69.5q0 50 35 85q36 36 86 36zM90 268h173l-123 -517h-204z" />
    <glyph glyph-name="cent" unicode="&#xa2;" horiz-adv-x="624" 
d="M396 371l-56 -214q62 11 90 63l151 -76q-40 -72 -109.5 -114t-160.5 -42h-13l-24 -90h-71l26 99q-87 21 -135.5 83.5t-48.5 152.5q0 128 92 220q93 93 229 93h7l24 91h72l-27 -99q68 -17 113.5 -59t60.5 -100l-167 -68q-13 45 -53 60zM274 165l56 210q-44 -9 -72.5 -46.5
t-28.5 -84.5q0 -56 45 -79z" />
    <glyph glyph-name="sterling" unicode="&#xa3;" horiz-adv-x="714" 
d="M454 162q41 0 82 50l113 -94q-84 -129 -238 -129q-45 0 -104 22t-88 22q-40 0 -116 -40l-83 162q88 43 130 79.5t54 86.5h-122l36 134h74q-7 29 -7 54q0 133 84 210q86 77 221 77q88 0 150.5 -45.5t80.5 -129.5l-168 -79q-10 44 -29 64t-53 20q-45 0 -68.5 -28.5
t-23.5 -76.5q0 -3 5 -66h199l-36 -134h-161q-16 -77 -96 -129v-1q20 5 31 5q24 0 67 -17t66 -17z" />
    <glyph glyph-name="currency" unicode="&#xa4;" horiz-adv-x="757" 
d="M141 271q0 63 28 112l-83 85l101 100l85 -88q52 26 110 26q64 0 108 -26l87 87l100 -100l-83 -84q29 -49 29 -112q0 -61 -29 -114l84 -83l-100 -101l-87 88q-50 -26 -109 -26q-55 0 -110 26l-86 -87l-100 101l84 84q-29 49 -29 112zM287 270q0 -40 26.5 -66t67.5 -26
t67.5 26t26.5 66q0 41 -26.5 66.5t-67.5 25.5t-67.5 -25.5t-26.5 -66.5z" />
    <glyph glyph-name="yen" unicode="&#xa5;" horiz-adv-x="797" 
d="M712 262l-30 -115h-216l-39 -147h-198l39 147h-214l31 115h214l15 59h-213l30 115h167l-126 347h217l73 -251l207 251h232l-312 -347h170l-31 -115h-215l-16 -59h215z" />
    <glyph glyph-name="brokenbar" unicode="&#xa6;" horiz-adv-x="320" 
d="M407 891l-104 -390h-156l104 390h156zM242 274l-104 -390h-156l105 390h155z" />
    <glyph glyph-name="section" unicode="&#xa7;" horiz-adv-x="687" 
d="M388 163q0 17 -18.5 28.5t-64.5 24.5l-61 18q-167 50 -167 151q0 111 148 145q-43 47 -43 95q0 74 70 122q70 49 188 49q89 0 150 -40.5t79 -109.5l-132 -63q-12 34 -38.5 54.5t-62.5 20.5q-65 0 -65 -37q0 -17 17 -28t62 -24l61 -19q171 -52 171 -152q0 -111 -148 -145
q43 -46 43 -94q0 -74 -70 -123q-69 -48 -189 -48q-102 0 -168.5 43.5t-85.5 121.5l132 62q13 -42 47 -66t80 -24q65 0 65 38zM432 430l-27 8q-84 25 -104 25q-27 0 -45 -12.5t-18 -33.5q0 -37 79 -61l23 -7q99 -29 118 -29q27 0 45 12.5t18 33.5t-20.5 35.5t-68.5 28.5z" />
    <glyph glyph-name="dieresis" unicode="&#xa8;" horiz-adv-x="535" 
d="M252 616q-39 0 -64.5 25t-25.5 64q0 46 31.5 78t77.5 32q39 0 65 -24.5t26 -63.5q0 -46 -32 -78.5t-78 -32.5zM512 616q-39 0 -64.5 25t-25.5 64q0 46 31.5 78t77.5 32q39 0 65 -24.5t26 -63.5q0 -46 -32 -78.5t-78 -32.5z" />
    <glyph glyph-name="copyright" unicode="&#xa9;" horiz-adv-x="910" 
d="M491 -10q-165 0 -284 117q-118 117 -118 286q0 166 118 284q119 119 284 119q167 0 284 -118q118 -117 118 -284t-119 -286q-118 -118 -283 -118zM490 728q-137 0 -233 -98t-96 -236q0 -139 97 -237q98 -99 232 -99q136 0 233 97t97 238q0 139 -96 236q-96 99 -234 99z
M580 353l146 -62q-27 -69 -87 -107t-141 -38q-109 0 -184 69q-75 71 -75 178q0 105 77 176q79 71 184 71q81 0 140 -37.5t83 -106.5l-145 -61q-9 25 -30.5 39.5t-48.5 14.5q-38 0 -63.5 -27.5t-25.5 -66.5q0 -42 24 -69t65 -27q55 0 81 54z" />
    <glyph glyph-name="ordfeminine" unicode="&#xaa;" horiz-adv-x="548" 
d="M375 387l11 40h-2q-50 -47 -107 -47q-61 0 -98 43.5t-37 108.5q0 96 60 165q61 70 145 70q71 0 111 -55h2l13 48h133l-100 -373h-131zM340 497q36 0 63 28q28 28 28 66q0 26 -18 42.5t-46 16.5q-37 0 -63.5 -28t-26.5 -67q0 -26 17 -42t46 -16zM484 301l-31 -117h-401
l31 117h401z" />
    <glyph glyph-name="guillemotleft" unicode="&#xab;" horiz-adv-x="699" 
d="M211 68l-174 233l295 231l78 -101l-190 -148l100 -132zM506 68l-173 233l294 231l79 -101l-190 -148l100 -132z" />
    <glyph glyph-name="logicalnot" unicode="&#xac;" horiz-adv-x="723" 
d="M80 414l42 156h618l-90 -339h-178l49 183h-441z" />
    <glyph glyph-name="registered" unicode="&#xae;" horiz-adv-x="657" 
d="M674 522q0 -113 -81 -194q-80 -80 -194 -80t-194 80q-80 82 -80 194q0 114 80 194q79 81 194 81t194 -81q81 -79 81 -194zM399 740q-89 0 -152 -64q-62 -64 -62 -153t62 -154q63 -63 152 -63t150 63q63 65 63 154q0 90 -63 153q-61 64 -150 64zM287 365v315h129
q54 0 86 -26.5t32 -74.5q0 -66 -59 -90l63 -124h-84l-56 111h-32v-111h-79zM366 611v-68h44q44 0 44 33q0 35 -44 35h-44z" />
    <glyph glyph-name="overscore" unicode="&#xaf;" horiz-adv-x="422" 
d="M522 765l-36 -137h-386l36 137h386z" />
    <glyph glyph-name="degree" unicode="&#xb0;" horiz-adv-x="468" 
d="M302 394q-79 0 -129 49q-50 50 -50 127q0 90 63 155q65 65 154 65q77 0 129 -50q51 -50 51 -127q0 -91 -64 -155q-63 -64 -154 -64zM314 516q35 0 59.5 24.5t24.5 59.5q0 30 -19.5 49t-49.5 19q-35 0 -59 -25t-24 -60q0 -30 19 -48.5t49 -18.5z" />
    <glyph glyph-name="plusminus" unicode="&#xb1;" horiz-adv-x="660" 
d="M239 223l42 158h-185l43 159h185l42 157h166l-42 -157h185l-42 -159h-185l-43 -158h-166zM570 146l-43 -161h-537l43 161h537z" />
    <glyph glyph-name="uni00B2" unicode="&#xb2;" horiz-adv-x="470" 
d="M102 426l30 112l239 155q35 23 35 45q0 14 -11.5 23t-28.5 9q-48 0 -85 -54l-97 68q65 107 195 107q77 0 121.5 -34.5t44.5 -96.5q0 -83 -114 -157l-95 -61h157l-31 -116h-360z" />
    <glyph glyph-name="uni00B3" unicode="&#xb3;" horiz-adv-x="452" 
d="M532 764q0 -42 -27 -72.5t-71 -39.5v-1q57 -25 57 -90t-54 -104.5t-147 -39.5q-67 0 -115 34t-62 92l110 52q18 -61 76 -61q23 0 37.5 11.5t14.5 29.5q0 32 -49 32h-33l26 99h30q67 0 67 40q0 28 -41 28q-51 0 -85 -48l-91 68q64 97 190 97q77 0 122 -35t45 -92z" />
    <glyph glyph-name="acute" unicode="&#xb4;" horiz-adv-x="402" 
d="M292 819h212l-224 -196h-153z" />
    <glyph glyph-name="uni00B5" unicode="&#xb5;" horiz-adv-x="682" 
d="M148 534h190l-75 -282q-5 -18 -5 -32q0 -27 15 -42t42 -15q75 0 99 87l75 284h191l-144 -534h-188l16 59h-1q-69 -66 -129 -66q-31 0 -45 14l-47 -177h-182z" />
    <glyph glyph-name="paragraph" unicode="&#xb6;" horiz-adv-x="600" 
d="M116 534q0 105 77 177q78 72 238 72h216l-209 -783h-191l92 346q-112 9 -167.5 54.5t-55.5 133.5z" />
    <glyph glyph-name="middot" unicode="&#xb7;" horiz-adv-x="323" 
d="M165 200q-46 0 -76 29t-30 75q0 54 37 91q38 39 91 39q46 0 76 -29t30 -75q0 -54 -38 -92t-90 -38z" />
    <glyph glyph-name="cedilla" unicode="&#xb8;" horiz-adv-x="351" 
d="M119 0h119q13 -23 13 -70q0 -96 -60.5 -146t-164.5 -50q-50 0 -81 12l28 106q23 -4 45 -4q47 0 76 33.5t29 83.5q0 22 -4 35z" />
    <glyph glyph-name="uni00B9" unicode="&#xb9;" horiz-adv-x="398" 
d="M220 425l76 290l-108 -51l-51 103l229 112h132l-120 -454h-158z" />
    <glyph glyph-name="ordmasculine" unicode="&#xba;" horiz-adv-x="527" 
d="M331 380q-84 0 -134 48t-50 124q0 86 64 150q65 65 158 65q84 0 134 -48t50 -124q0 -87 -64 -151t-158 -64zM338 497q36 0 61 27.5t25 63.5q0 28 -17.5 45t-44.5 17q-36 0 -61.5 -27t-25.5 -64q0 -28 17 -45t46 -17zM48 184l32 117h396l-32 -117h-396z" />
    <glyph glyph-name="guillemotright" unicode="&#xbb;" horiz-adv-x="699" 
d="M216 535l174 -234l-295 -230l-78 100l190 148l-100 132zM512 535l174 -234l-295 -230l-79 100l190 148l-100 132z" />
    <glyph glyph-name="onequarter" unicode="&#xbc;" horiz-adv-x="1205" 
d="M296 619l-108 -52l-51 104l229 112h132l-120 -453h-158zM874 783h180l-678 -783h-182zM875 0l20 72h-243l40 147l268 235h187l-70 -266h65l-32 -116h-65l-19 -72h-151zM925 188l36 133l-149 -133h113z" />
    <glyph glyph-name="onehalf" unicode="&#xbd;" horiz-adv-x="1189" 
d="M296 620l-108 -53l-51 104l229 112h132l-120 -453h-158zM874 783h180l-678 -783h-182zM709 0l30 112l239 155q35 23 35 45q0 14 -11.5 23t-28.5 9q-47 0 -85 -54l-97 68q65 107 195 107q77 0 121.5 -34.5t44.5 -96.5q0 -84 -114 -157l-95 -61h157l-31 -116h-360z" />
    <glyph glyph-name="threequarters" unicode="&#xbe;" horiz-adv-x="1194" 
d="M504 668q0 -42 -27 -72.5t-71 -39.5v-1q57 -25 57 -90t-54 -104.5t-147 -39.5q-67 0 -115 34t-62 92l110 52q18 -61 76 -61q23 0 37.5 11.5t14.5 29.5q0 32 -49 32h-33l26 99h30q67 0 67 40q0 28 -41 28q-51 0 -85 -48l-91 68q64 97 190 97q77 0 122 -35t45 -92zM874 783
h180l-679 -783h-181zM875 0l19 72h-242l39 147l268 235h188l-71 -266h65l-31 -116h-65l-19 -72h-151zM925 188l35 133l-149 -133h114z" />
    <glyph glyph-name="questiondown" unicode="&#xbf;" horiz-adv-x="584" 
d="M329 546q43 0 71 -27t28 -70q0 -49 -35 -86q-35 -35 -85 -35q-43 0 -71 27t-28 70q0 50 35 85q34 36 85 36zM-38 -70q0 94 79 159q10 8 39.5 30t43.5 34t34.5 32t31 41t14.5 44l1 7h177q0 -6 -2 -28q-13 -103 -89 -164q-16 -13 -44 -33.5l-43.5 -32.5t-28.5 -28.5
t-13 -31.5q0 -25 18 -39.5t45 -14.5q57 0 101 68l135 -96q-82 -139 -271 -139q-105 0 -166 54q-62 54 -62 138z" />
    <glyph glyph-name="Agrave" unicode="&#xc0;" horiz-adv-x="818" 
d="M615 852h-134l-149 196h197zM-68 0l494 783h225l121 -783h-204l-21 144h-312l-90 -144h-213zM525 311l-36 256l-154 -256h190z" />
    <glyph glyph-name="Aacute" unicode="&#xc1;" horiz-adv-x="818" 
d="M637 1048h212l-224 -196h-153zM235 144l-90 -144h-213l494 783h225l121 -783h-204l-21 144h-312zM525 311l-36 256l-154 -256h190z" />
    <glyph glyph-name="Acircumflex" unicode="&#xc2;" horiz-adv-x="818" 
d="M583 955l-88 -101h-159l177 189h171l79 -189h-146zM-68 0l494 783h225l121 -783h-204l-21 144h-312l-90 -144h-213zM525 311l-36 256l-154 -256h190z" />
    <glyph glyph-name="Atilde" unicode="&#xc3;" horiz-adv-x="818" 
d="M510 1036q32 0 61.5 -16t51.5 -32t34 -16q19 0 33 17.5t21 43.5h112q-15 -82 -60.5 -131.5t-117.5 -49.5q-38 0 -86.5 32t-59.5 32q-39 0 -57 -61h-111q15 82 61 131.5t118 49.5zM235 144l-90 -144h-213l494 783h225l121 -783h-204l-21 144h-312zM525 311l-36 256
l-154 -256h190z" />
    <glyph glyph-name="Adieresis" unicode="&#xc4;" horiz-adv-x="818" 
d="M422 865q-39 0 -64.5 25t-25.5 64q0 46 32 78t78 32q39 0 64.5 -24.5t25.5 -63.5q0 -46 -32 -78.5t-78 -32.5zM692 865q-40 0 -65 24.5t-25 64.5q0 46 31.5 78t77.5 32q39 0 64.5 -24.5t25.5 -63.5q0 -46 -31.5 -78.5t-77.5 -32.5zM235 144l-90 -144h-213l494 783h225
l121 -783h-204l-21 144h-312zM525 311l-36 256l-154 -256h190z" />
    <glyph glyph-name="Aring" unicode="&#xc5;" horiz-adv-x="818" 
d="M568 0l-21 144h-312l-90 -144h-213l474 751q-13 25 -13 61q0 68 47 118q48 49 117 49q59 0 98 -39q40 -37 40 -97t-37 -106l114 -737h-204zM550 885q-26 0 -45 -19t-19 -46q0 -22 14 -36t37 -14q27 0 46 19t19 46q0 22 -14.5 36t-37.5 14zM489 567l-154 -256h190z" />
    <glyph glyph-name="AE" unicode="&#xc6;" horiz-adv-x="1093" 
d="M-75 0l573 783h678l-46 -175h-347l-34 -128h314l-44 -169h-315l-37 -135h350l-47 -176h-540l33 124h-223l-89 -124h-226zM355 291h153l86 322h-11z" />
    <glyph glyph-name="Ccedilla" unicode="&#xc7;" horiz-adv-x="864" 
d="M466 173q79 0 132 43q55 43 82 99l170 -83q-40 -85 -128 -155q-88 -69 -215 -85q9 -24 9 -62q0 -96 -60.5 -146t-164.5 -50q-51 0 -82 12l28 106q25 -4 46 -4q47 0 76 33.5t29 83.5q0 3 -2 27q-135 17 -224 107q-88 89 -88 236q-2 126 62.5 234t172.5 169t229 58
q170 0 255 -82q76 -73 98 -167l-188 -78q-14 59 -57 101q-44 42 -126 42q-100 0 -170 -79q-71 -79 -71 -183q0 -81 50 -129t137 -48z" />
    <glyph glyph-name="Egrave" unicode="&#xc8;" horiz-adv-x="686" 
d="M577 852h-134l-150 196h198zM294 311l-36 -135h352l-47 -176h-548l209 783h546l-47 -175h-349l-35 -128h318l-45 -169h-318z" />
    <glyph glyph-name="Eacute" unicode="&#xc9;" horiz-adv-x="686" 
d="M589 1048h212l-223 -196h-154zM770 783l-47 -175h-349l-35 -128h318l-45 -169h-318l-36 -135h352l-47 -176h-548l209 783h546z" />
    <glyph glyph-name="Ecircumflex" unicode="&#xca;" horiz-adv-x="686" 
d="M540 955l-88 -101h-159l177 189h171l79 -189h-146zM294 311l-36 -135h352l-47 -176h-548l209 783h546l-47 -175h-349l-35 -128h318l-45 -169h-318z" />
    <glyph glyph-name="Edieresis" unicode="&#xcb;" horiz-adv-x="686" 
d="M395 865q-39 0 -64.5 25t-25.5 64q0 46 32 78t78 32q39 0 64.5 -24.5t25.5 -63.5q0 -46 -32 -78.5t-78 -32.5zM665 865q-40 0 -65 24.5t-25 64.5q0 46 31.5 78t77.5 32q39 0 64.5 -24.5t25.5 -63.5q0 -46 -31.5 -78.5t-77.5 -32.5zM770 783l-47 -175h-349l-35 -128h318
l-45 -169h-318l-36 -135h352l-47 -176h-548l209 783h546z" />
    <glyph glyph-name="Igrave" unicode="&#xcc;" horiz-adv-x="363" 
d="M412 852h-134l-149 196h197zM15 0l209 783h197l-209 -783h-197z" />
    <glyph glyph-name="Iacute" unicode="&#xcd;" horiz-adv-x="363" 
d="M428 1049h212l-223 -196h-154zM421 783l-209 -783h-197l209 783h197z" />
    <glyph glyph-name="Icircumflex" unicode="&#xce;" horiz-adv-x="363" 
d="M368 955l-88 -101h-158l176 189h171l79 -189h-146zM15 0l209 783h197l-209 -783h-197z" />
    <glyph glyph-name="Idieresis" unicode="&#xcf;" horiz-adv-x="363" 
d="M226 865q-39 0 -64.5 25t-25.5 64q0 46 32 78t78 32q39 0 64.5 -24.5t25.5 -63.5q0 -46 -32 -78.5t-78 -32.5zM492 865q-40 0 -65 24.5t-25 64.5q0 46 31.5 78t77.5 32q39 0 65 -24.5t26 -63.5q0 -46 -32 -78.5t-78 -32.5zM421 783l-209 -783h-197l209 783h197z" />
    <glyph glyph-name="Eth" unicode="&#xd0;" horiz-adv-x="859" 
d="M38 311l45 168h91l81 304h213q182 0 286 -83q105 -82 105 -247q0 -89 -35.5 -172.5t-104.5 -147.5q-143 -133 -399 -133h-273l82 311h-91zM652 437q0 166 -202 166h-45l-34 -124h141l-45 -168h-141l-34 -128h53q82 0 145.5 24.5t97.5 65.5q64 77 64 164z" />
    <glyph glyph-name="Ntilde" unicode="&#xd1;" horiz-adv-x="868" 
d="M549 1036q32 0 61.5 -16t51.5 -32t34 -16q19 0 33 17.5t21 43.5h112q-15 -82 -60.5 -131.5t-117.5 -49.5q-38 0 -86.5 32t-59.5 32q-39 0 -57 -61h-111q15 82 61 131.5t118 49.5zM341 486l-130 -486h-196l209 783h221l156 -478l128 478h197l-209 -783h-216l-159 486h-1z
" />
    <glyph glyph-name="Ograve" unicode="&#xd2;" horiz-adv-x="912" 
d="M625 852h-134l-150 196h198zM539 796q165 0 268 -100q104 -99 104 -248q0 -127 -64 -233q-64 -105 -171 -167q-106 -60 -229 -60q-212 0 -318 159q-54 82 -54 191q0 125 63 232q63 106 169 166q107 60 232 60zM280 354q0 -85 52 -133t132 -48q100 0 170 78q72 79 72 181
q0 77 -51 128q-49 52 -134 52q-98 0 -170 -79q-71 -79 -71 -179z" />
    <glyph glyph-name="Oacute" unicode="&#xd3;" horiz-adv-x="912" 
d="M635 1048h212l-224 -196h-153zM539 796q165 0 268 -100q104 -99 104 -248q0 -127 -64 -233q-64 -105 -171 -167q-106 -60 -229 -60q-99 0 -181 39q-83 39 -137 120q-54 82 -54 191q0 125 63 232q63 106 169 166q107 60 232 60zM280 354q0 -85 52 -133t132 -48
q100 0 170 78q72 79 72 181q0 77 -51 128q-49 52 -134 52q-98 0 -170 -79q-71 -79 -71 -179z" />
    <glyph glyph-name="Ocircumflex" unicode="&#xd4;" horiz-adv-x="912" 
d="M591 955l-88 -101h-158l176 189h172l79 -189h-147zM539 796q165 0 268 -100q104 -99 104 -248q0 -127 -64 -233q-64 -105 -171 -167q-106 -60 -229 -60q-212 0 -318 159q-54 82 -54 191q0 125 63 232q63 106 169 166q107 60 232 60zM280 354q0 -85 52 -133t132 -48
q100 0 170 78q72 79 72 181q0 77 -51 128q-49 52 -134 52q-98 0 -170 -79q-71 -79 -71 -179z" />
    <glyph glyph-name="Otilde" unicode="&#xd5;" horiz-adv-x="912" 
d="M525 1036q32 0 61.5 -16t51.5 -32t34 -16q19 0 33 17.5t21 43.5h112q-15 -82 -60.5 -131.5t-117.5 -49.5q-38 0 -86.5 32t-59.5 32q-39 0 -57 -61h-111q15 82 61 131.5t118 49.5zM539 796q165 0 268 -100q104 -99 104 -248q0 -127 -64 -233q-64 -105 -171 -167
q-106 -60 -229 -60q-99 0 -181 39q-83 39 -137 120q-54 82 -54 191q0 125 63 232q63 106 169 166q107 60 232 60zM280 354q0 -85 52 -133t132 -48q100 0 170 78q72 79 72 181q0 77 -51 128q-49 52 -134 52q-98 0 -170 -79q-71 -79 -71 -179z" />
    <glyph glyph-name="Odieresis" unicode="&#xd6;" horiz-adv-x="912" 
d="M437 865q-39 0 -64 24.5t-25 64.5q0 46 31.5 78t77.5 32q39 0 64.5 -24.5t25.5 -63.5q0 -46 -32 -78.5t-78 -32.5zM707 865q-39 0 -64.5 25t-25.5 64q0 46 32 78t78 32q39 0 64.5 -24.5t25.5 -63.5q0 -46 -32 -78.5t-78 -32.5zM539 796q165 0 268 -100q104 -99 104 -248
q0 -127 -64 -233q-64 -105 -171 -167q-106 -60 -229 -60q-99 0 -181 39q-83 39 -137 120q-54 82 -54 191q0 125 63 232q63 106 169 166q107 60 232 60zM280 354q0 -85 52 -133t132 -48q100 0 170 78q72 79 72 181q0 77 -51 128q-49 52 -134 52q-98 0 -170 -79
q-71 -79 -71 -179z" />
    <glyph glyph-name="multiply" unicode="&#xd7;" horiz-adv-x="634" 
d="M84 22l-80 109l224 178l-129 176l122 97l128 -178l225 178l80 -109l-224 -177l128 -176l-121 -97l-130 176z" />
    <glyph glyph-name="Oslash" unicode="&#xd8;" horiz-adv-x="912" 
d="M447 -12q-127 0 -225 66l-95 -91l-82 85l91 88q-61 85 -61 201q0 126 63 233q62 105 170 166q106 60 232 60q130 0 225 -65l93 90l82 -85l-91 -88q62 -88 62 -200q0 -127 -64 -233q-64 -105 -171 -167q-106 -60 -229 -60zM522 618q-100 0 -174 -81q-73 -80 -73 -184
q0 -41 13 -76l333 317q-45 24 -99 24zM697 506l-329 -317q40 -22 95 -22q102 0 174 81q73 80 73 185q0 43 -13 73z" />
    <glyph glyph-name="Ugrave" unicode="&#xd9;" horiz-adv-x="797" 
d="M625 852h-134l-150 196h198zM665 783h200l-133 -494q-42 -154 -129.5 -227t-238.5 -73q-73 0 -128.5 19.5t-88.5 53t-50 79t-16.5 97.5t15.5 109l116 436h200l-120 -450q-20 -75 5.5 -118t93.5 -43q109 0 150 146z" />
    <glyph glyph-name="Uacute" unicode="&#xda;" horiz-adv-x="797" 
d="M636 1048h212l-224 -196h-153zM665 783h200l-133 -494q-42 -155 -129.5 -227.5t-238.5 -72.5q-73 0 -128.5 19.5t-88.5 53t-50 79t-16.5 97.5t15.5 109l116 436h200l-120 -450q-20 -75 5.5 -118t93.5 -43q109 0 150 146z" />
    <glyph glyph-name="Ucircumflex" unicode="&#xdb;" horiz-adv-x="797" 
d="M583 955l-88 -101h-159l177 189h171l79 -189h-146zM665 783h200l-133 -494q-42 -155 -129.5 -227.5t-238.5 -72.5q-73 0 -128.5 19.5t-88.5 53t-50 79t-16.5 97.5t15.5 109l116 436h200l-120 -450q-20 -75 5.5 -118t93.5 -43q109 0 150 146z" />
    <glyph glyph-name="Udieresis" unicode="&#xdc;" horiz-adv-x="797" 
d="M436 865q-40 0 -65 24.5t-25 64.5q0 46 31.5 78t77.5 32q39 0 64.5 -24.5t25.5 -63.5q0 -46 -31.5 -78.5t-77.5 -32.5zM705 865q-39 0 -64.5 25t-25.5 64q0 46 32 78t78 32q39 0 64.5 -24.5t25.5 -63.5q0 -46 -32 -78.5t-78 -32.5zM665 783h200l-133 -494
q-42 -154 -129.5 -227t-238.5 -73q-73 0 -128.5 19.5t-88.5 53t-50 79t-16.5 97.5t15.5 109l116 436h200l-120 -450q-20 -75 5.5 -118t93.5 -43q109 0 150 146z" />
    <glyph glyph-name="Yacute" unicode="&#xdd;" horiz-adv-x="761" 
d="M612 1048h212l-224 -196h-153zM209 0l82 310l-143 473h210l78 -287l231 287h233l-416 -495l-77 -288h-198z" />
    <glyph glyph-name="Thorn" unicode="&#xde;" horiz-adv-x="709" 
d="M420 783l-34 -130h45q118 0 186 -37q108 -58 108 -185q0 -31 -8 -67q-6 -29 -18 -55q-13 -27 -40 -58t-61 -53q-89 -56 -220 -57h-129l-38 -141h-197l210 783h196zM338 480l-45 -172h82q38 -1 69.5 8t54.5 33.5t24 60.5q0 27 -20 47q-26 23 -82 23h-83z" />
    <glyph glyph-name="germandbls" unicode="&#xdf;" horiz-adv-x="744" 
d="M602 469q-52 -38 -71 -57q-16 -16 -16 -29q0 -15 11 -26.5t46 -29.5q120 -69 120 -166q0 -74 -65 -124q-64 -49 -163 -49q-78 0 -134 37t-75 103l127 58q7 -27 28.5 -44.5t50.5 -17.5q22 0 36.5 10.5t14.5 24.5q0 23 -33 43l-43 26q-94 55 -94 153q0 91 100 157
q42 27 56.5 42.5t14.5 31.5q0 19 -15 32t-43 13q-95 0 -125 -111l-146 -546h-189l150 563q68 254 328 254q97 0 164 -52q68 -51 68 -127q0 -94 -103 -169z" />
    <glyph glyph-name="agrave" unicode="&#xe0;" horiz-adv-x="689" 
d="M435 623h-134l-150 196h198zM369 0l15 58h-2q-70 -69 -154 -69q-90 0 -142 64t-52 154q0 136 86 237q87 100 208 100q106 0 161 -78h1l19 68h190l-142 -534h-188zM318 157q51 0 90 40q39 41 39 95q0 38 -25.5 61.5t-64.5 23.5q-53 0 -92 -41q-38 -41 -38 -95
q0 -38 24.5 -61t66.5 -23z" />
    <glyph glyph-name="aacute" unicode="&#xe1;" horiz-adv-x="689" 
d="M451 819h212l-224 -196h-153zM369 0l15 58h-2q-70 -69 -154 -69q-90 0 -142 64t-52 154q0 136 86 237q87 100 208 100q106 0 161 -78h1l19 68h190l-142 -534h-188zM318 157q51 0 90 40q39 41 39 95q0 38 -25.5 61.5t-64.5 23.5q-53 0 -92 -41q-38 -41 -38 -95
q0 -38 24.5 -61t66.5 -23z" />
    <glyph glyph-name="acircumflex" unicode="&#xe2;" horiz-adv-x="689" 
d="M425 726l-88 -102h-158l176 189h172l79 -189h-147zM369 0l15 58h-2q-70 -69 -154 -69q-90 0 -142 64t-52 154q0 136 86 237q87 100 208 100q106 0 161 -78h1l19 68h190l-142 -534h-188zM318 157q51 0 90 40q39 41 39 95q0 38 -25.5 61.5t-64.5 23.5q-53 0 -92 -41
q-38 -41 -38 -95q0 -38 24.5 -61t66.5 -23z" />
    <glyph glyph-name="atilde" unicode="&#xe3;" horiz-adv-x="689" 
d="M378 806q32 0 61.5 -16t51.5 -32t34 -16q19 0 33 17.5t21 43.5h112q-15 -82 -60.5 -131.5t-117.5 -49.5q-38 0 -86.5 32t-59.5 32q-39 0 -57 -61h-111q15 82 61 131.5t118 49.5zM369 0l15 58h-2q-70 -69 -154 -69q-90 0 -142 64t-52 154q0 136 86 237q87 100 208 100
q106 0 161 -78h1l19 68h190l-142 -534h-188zM318 157q51 0 90 40q39 41 39 95q0 38 -25.5 61.5t-64.5 23.5q-53 0 -92 -41q-38 -41 -38 -95q0 -38 24.5 -61t66.5 -23z" />
    <glyph glyph-name="adieresis" unicode="&#xe4;" horiz-adv-x="689" 
d="M312 616q-39 0 -64 25t-25 64q0 46 31.5 78t77.5 32q39 0 64.5 -24.5t25.5 -63.5q0 -47 -32 -79t-78 -32zM572 616q-39 0 -64 25t-25 64q0 46 31.5 78t77.5 32q39 0 65 -24.5t26 -63.5q0 -47 -33 -79q-32 -32 -78 -32zM369 0l15 58h-2q-70 -69 -154 -69q-90 0 -142 64
t-52 154q0 136 86 237q87 100 208 100q106 0 161 -78h1l19 68h190l-142 -534h-188zM318 157q51 0 90 40q39 41 39 95q0 38 -25.5 61.5t-64.5 23.5q-53 0 -92 -41q-38 -41 -38 -95q0 -38 24.5 -61t66.5 -23z" />
    <glyph glyph-name="aring" unicode="&#xe5;" horiz-adv-x="689" 
d="M433 607q-60 0 -99 38t-39 98q0 69 48 117q48 49 117 49q60 0 99 -38t39 -98q0 -69 -48 -118q-48 -48 -117 -48zM454 816q-28 0 -46.5 -19t-18.5 -47q0 -22 14 -35.5t36 -13.5q28 0 46.5 18.5t18.5 46.5q0 22 -14 36t-36 14zM369 0l15 58h-2q-70 -69 -154 -69
q-90 0 -142 64t-52 154q0 136 86 237q87 100 208 100q106 0 161 -78h1l19 68h190l-142 -534h-188zM318 157q51 0 90 40q39 41 39 95q0 38 -25.5 61.5t-64.5 23.5q-53 0 -92 -41q-38 -41 -38 -95q0 -38 24.5 -61t66.5 -23z" />
    <glyph glyph-name="ae" unicode="&#xe6;" horiz-adv-x="944" 
d="M173 -12h-4q-65 0 -112 38t-47 108q0 86 70 132q71 47 163 47h90q22 0 38 13t16 33q0 21 -17 31.5t-42 10.5q-82 0 -129 -66l-113 84q87 127 268 127q97 0 157 -51q79 51 162 51q101 0 171 -60q72 -58 72 -159q0 -55 -22 -108h-367q0 -37 30 -60t71 -23q79 0 128 61
l117 -94q-91 -115 -254 -115q-139 0 -216 90q-50 -50 -102 -70t-128 -20zM665 401q-36 0 -70 -21.5t-48 -54.5h192q2 10 2 16q0 29 -21 44.5t-55 15.5zM248 122q35 0 61 19t35 53l6 22h-63q-35 0 -58.5 -15t-23.5 -38q0 -19 12 -30t31 -11z" />
    <glyph glyph-name="ccedilla" unicode="&#xe7;" horiz-adv-x="617" 
d="M313 157q35 0 64 18t44 47l153 -77q-34 -64 -92.5 -104.5t-134.5 -49.5q8 -24 8 -61q0 -96 -60.5 -146t-164.5 -50q-50 0 -82 12l29 106q23 -4 45 -4q47 0 76.5 33.5t29.5 83.5q0 19 -4 32q-88 20 -137.5 82.5t-49.5 153.5q0 128 92 220q93 93 229 93q99 0 164.5 -46.5
t86.5 -121.5l-169 -68q-19 67 -93 67q-54 0 -89 -41t-35 -92q0 -39 24 -63t66 -24z" />
    <glyph glyph-name="egrave" unicode="&#xe8;" horiz-adv-x="632" 
d="M444 623h-133l-150 196h197zM584 219h-369q0 -37 30 -60t71 -23q79 0 128 61l117 -94q-91 -115 -254 -115q-118 0 -195 68q-76 67 -76 180q0 127 97 218q98 92 228 92q110 0 176 -63q67 -63 67 -167q0 -46 -20 -97zM353 401q-36 0 -70 -21.5t-48 -54.5h191q2 10 2 16
q0 29 -20.5 44.5t-54.5 15.5z" />
    <glyph glyph-name="eacute" unicode="&#xe9;" horiz-adv-x="632" 
d="M465 819h212l-223 -196h-154zM584 219h-369q0 -37 30 -60t71 -23q79 0 128 61l117 -94q-91 -115 -254 -115q-118 0 -195 68q-76 67 -76 180q0 127 97 218q98 92 228 92q110 0 176 -63q67 -63 67 -167q0 -46 -20 -97zM353 401q-36 0 -70 -21.5t-48 -54.5h191q2 10 2 16
q0 29 -20.5 44.5t-54.5 15.5z" />
    <glyph glyph-name="ecircumflex" unicode="&#xea;" horiz-adv-x="632" 
d="M407 726l-88 -102h-158l176 189h171l79 -189h-146zM584 219h-369q0 -37 30 -60t71 -23q79 0 128 61l117 -94q-91 -115 -254 -115q-118 0 -195 68q-76 67 -76 180q0 127 97 218q98 92 228 92q110 0 176 -63q67 -63 67 -167q0 -46 -20 -97zM353 401q-36 0 -70 -21.5
t-48 -54.5h191q2 10 2 16q0 29 -20.5 44.5t-54.5 15.5z" />
    <glyph glyph-name="edieresis" unicode="&#xeb;" horiz-adv-x="632" 
d="M255 616q-39 0 -64 25t-25 64q0 46 31.5 78t77.5 32q39 0 64.5 -24.5t25.5 -63.5q0 -47 -32 -79t-78 -32zM515 616q-39 0 -64 24.5t-25 64.5q0 46 31.5 78t77.5 32q39 0 64.5 -24.5t25.5 -63.5q0 -47 -32 -79t-78 -32zM584 219h-369q0 -37 30 -60t71 -23q79 0 128 61
l117 -94q-91 -115 -254 -115q-118 0 -195 68q-76 67 -76 180q0 127 97 218q98 92 228 92q110 0 176 -63q67 -63 67 -167q0 -46 -20 -97zM353 401q-36 0 -70 -21.5t-48 -54.5h191q2 10 2 16q0 29 -20.5 44.5t-54.5 15.5z" />
    <glyph glyph-name="igrave" unicode="&#xec;" horiz-adv-x="318" 
d="M321 623h-134l-149 196h197zM137 534h192l-143 -534h-191z" />
    <glyph glyph-name="iacute" unicode="&#xed;" horiz-adv-x="318" 
d="M338 819h212l-224 -196h-153zM137 534h192l-143 -534h-191z" />
    <glyph glyph-name="icircumflex" unicode="&#xee;" horiz-adv-x="318" 
d="M282 726l-88 -102h-158l176 189h172l79 -189h-147zM137 534h192l-143 -534h-191z" />
    <glyph glyph-name="idieresis" unicode="&#xef;" horiz-adv-x="320" 
d="M139 616q-39 0 -64.5 25t-25.5 64q0 46 32 78t78 32q39 0 64.5 -24.5t25.5 -63.5q0 -47 -32 -79t-78 -32zM399 616q-39 0 -64 24.5t-25 64.5q0 46 31 78t77 32q40 0 65.5 -24.5t25.5 -63.5q0 -46 -32 -78.5t-78 -32.5zM137 534h194l-143 -534h-193z" />
    <glyph glyph-name="eth" unicode="&#xf0;" horiz-adv-x="653" 
d="M307 502q38 0 81 -13.5t74 -35.5l2 2q-12 74 -81 137l-156 -69l-42 90l109 45v1q-37 25 -118 51l62 129q115 -39 206 -112l116 52l44 -91q-30 -12 -85 -37q105 -131 105 -309q0 -69 -19.5 -131t-57 -112.5t-100.5 -80t-143 -29.5q-114 0 -191 65q-76 64 -76 183
q0 110 77 187q78 78 193 78zM312 154q51 0 87 40q37 40 37 95q0 40 -25 65t-64 25q-54 0 -90 -41q-36 -40 -36 -93q0 -40 24 -65.5t67 -25.5z" />
    <glyph glyph-name="ntilde" unicode="&#xf1;" horiz-adv-x="651" 
d="M384 806q32 0 61.5 -16t51.5 -32t34 -16q19 0 33 17.5t21 43.5h112q-15 -82 -60.5 -131.5t-117.5 -49.5q-38 0 -86.5 32t-59.5 32q-39 0 -57 -61h-111q15 82 61 131.5t118 49.5zM526 0h-190l76 281q4 13 4 33q0 57 -57 57q-75 0 -98 -87l-76 -284h-190l142 534h189
l-15 -59h1q71 70 154 70q73 0 113 -43.5t40 -114.5q0 -39 -15 -98z" />
    <glyph glyph-name="ograve" unicode="&#xf2;" horiz-adv-x="654" 
d="M445 623h-134l-149 196h197zM302 -12q-124 0 -195 69q-71 71 -71 179q0 123 92 217q92 93 228 93q125 0 195 -70q72 -70 72 -178q0 -124 -93 -217q-92 -93 -228 -93zM312 157q50 0 88 39q37 38 37 93q0 39 -25.5 63.5t-65.5 24.5q-53 0 -89 -40q-35 -40 -35 -92
q0 -39 23.5 -63.5t66.5 -24.5z" />
    <glyph glyph-name="oacute" unicode="&#xf3;" horiz-adv-x="654" 
d="M461 819h212l-223 -196h-154zM302 -12q-124 0 -195 69q-71 71 -71 179q0 123 92 217q92 93 228 93q125 0 195 -70q72 -70 72 -178q0 -124 -93 -217q-92 -93 -228 -93zM312 157q50 0 88 39q37 38 37 93q0 39 -25.5 63.5t-65.5 24.5q-53 0 -89 -40q-35 -40 -35 -92
q0 -39 23.5 -63.5t66.5 -24.5z" />
    <glyph glyph-name="ocircumflex" unicode="&#xf4;" horiz-adv-x="654" 
d="M402 726l-88 -102h-158l177 189h171l79 -189h-146zM302 -12q-124 0 -195 69q-71 71 -71 179q0 123 92 217q92 93 228 93q125 0 195 -70q72 -70 72 -178q0 -124 -93 -217q-92 -93 -228 -93zM312 157q50 0 88 39q37 38 37 93q0 39 -25.5 63.5t-65.5 24.5q-53 0 -89 -40
q-35 -40 -35 -92q0 -39 23.5 -63.5t66.5 -24.5z" />
    <glyph glyph-name="otilde" unicode="&#xf5;" horiz-adv-x="654" 
d="M356 806q32 0 61.5 -16t51.5 -32t34 -16q19 0 33 17.5t21 43.5h112q-15 -82 -60.5 -131.5t-117.5 -49.5q-38 0 -86.5 32t-59.5 32q-39 0 -57 -61h-111q15 82 61 131.5t118 49.5zM302 -12q-124 0 -195 69q-71 71 -71 179q0 123 92 217q92 93 228 93q125 0 195 -70
q72 -70 72 -178q0 -124 -93 -217q-92 -93 -228 -93zM312 157q50 0 88 39q37 38 37 93q0 39 -25.5 63.5t-65.5 24.5q-53 0 -89 -40q-35 -40 -35 -92q0 -39 23.5 -63.5t66.5 -24.5z" />
    <glyph glyph-name="odieresis" unicode="&#xf6;" horiz-adv-x="654" 
d="M271 616q-39 0 -64 25t-25 64q0 46 31.5 78t77.5 32q39 0 64.5 -24.5t25.5 -63.5q0 -47 -32 -79t-78 -32zM531 616q-39 0 -64 24.5t-25 64.5q0 46 31.5 78t77.5 32q39 0 65 -24.5t26 -63.5q0 -47 -32 -79t-79 -32zM302 -12q-124 0 -195 69q-71 71 -71 179q0 123 92 217
q92 93 228 93q125 0 195 -70q72 -70 72 -178q0 -124 -93 -217q-92 -93 -228 -93zM312 157q50 0 88 39q37 38 37 93q0 39 -25.5 63.5t-65.5 24.5q-53 0 -89 -40q-35 -40 -35 -92q0 -39 23.5 -63.5t66.5 -24.5z" />
    <glyph glyph-name="divide" unicode="&#xf7;" horiz-adv-x="605" 
d="M387 511q-42 0 -68.5 24.5t-26.5 63.5q0 45 33 76q33 33 82 33q44 0 70 -24t26 -63q0 -44 -34 -77q-33 -33 -82 -33zM47 288l42 158h529l-42 -158h-529zM258 26q-44 0 -70 24.5t-26 63.5q0 44 33 77q35 33 82 33q44 0 70 -24.5t26 -63.5q0 -44 -34 -77q-33 -33 -81 -33z
" />
    <glyph glyph-name="oslash" unicode="&#xf8;" horiz-adv-x="654" 
d="M302 -11q-97 0 -165 47l-74 -70l-52 55l71 67q-45 62 -45 150q0 121 92 215q93 93 228 93q99 0 167 -47l74 69l52 -56l-71 -67q44 -62 44 -149q0 -122 -93 -215q-92 -92 -228 -92zM348 384q-56 0 -95 -43q-38 -43 -38 -97q0 -13 5 -33l174 164q-21 9 -46 9zM440 321
l-173 -163q19 -9 45 -9q54 0 93 42q40 41 40 99q0 14 -5 31z" />
    <glyph glyph-name="ugrave" unicode="&#xf9;" horiz-adv-x="652" 
d="M472 623h-134l-150 196h198zM330 0l16 59h-2q-73 -70 -154 -70q-72 0 -112.5 44t-40.5 114q0 44 16 98l77 289h190l-75 -282q-5 -18 -5 -32q0 -27 15 -42t42 -15q75 0 99 87l76 284h190l-143 -534h-189z" />
    <glyph glyph-name="uacute" unicode="&#xfa;" horiz-adv-x="652" 
d="M487 819h212l-224 -196h-153zM330 0l16 59h-2q-73 -70 -154 -70q-72 0 -112.5 44t-40.5 114q0 44 16 98l77 289h190l-75 -282q-5 -18 -5 -32q0 -27 15 -42t42 -15q75 0 99 87l76 284h190l-143 -534h-189z" />
    <glyph glyph-name="ucircumflex" unicode="&#xfb;" horiz-adv-x="652" 
d="M447 726l-88 -102h-158l176 189h171l79 -189h-146zM330 0l16 59h-2q-73 -70 -154 -70q-72 0 -112.5 44t-40.5 114q0 44 16 98l77 289h190l-75 -282q-5 -18 -5 -32q0 -27 15 -42t42 -15q75 0 99 87l76 284h190l-143 -534h-189z" />
    <glyph glyph-name="udieresis" unicode="&#xfc;" horiz-adv-x="652" 
d="M300 616q-39 0 -64.5 25t-25.5 64q0 46 32 78t78 32q39 0 64.5 -24.5t25.5 -63.5q0 -47 -32 -79t-78 -32zM560 616q-39 0 -64 24.5t-25 64.5q0 46 31.5 78t77.5 32q39 0 64.5 -24.5t25.5 -63.5q0 -47 -32 -79t-78 -32zM330 0l16 59h-2q-73 -70 -154 -70q-72 0 -112.5 44
t-40.5 114q0 44 16 98l77 289h190l-75 -282q-5 -18 -5 -32q0 -27 15 -42t42 -15q75 0 99 87l76 284h190l-143 -534h-189z" />
    <glyph glyph-name="yacute" unicode="&#xfd;" horiz-adv-x="625" 
d="M490 819h212l-223 -196h-154zM152 -1l-70 535h187l33 -317h1l188 317h201l-506 -797h-199z" />
    <glyph glyph-name="thorn" unicode="&#xfe;" horiz-adv-x="688" 
d="M660 327q0 -142 -88 -240q-87 -98 -204 -98q-108 0 -164 83h-2l-89 -336h-189l288 1079h190l-89 -336h2q70 65 151 65q78 0 136 -56q58 -55 58 -161zM338 158q53 0 90 40q39 40 39 96q0 38 -24.5 61t-65.5 23q-53 0 -92 -41t-39 -95q0 -38 25.5 -61t66.5 -23z" />
    <glyph glyph-name="ydieresis" unicode="&#xff;" horiz-adv-x="625" 
d="M286 616q-39 0 -64.5 25t-25.5 64q0 46 31.5 78t77.5 32q39 0 65 -24.5t26 -63.5q0 -46 -32 -78.5t-78 -32.5zM545 616q-39 0 -64 25t-25 64q0 46 31.5 78t77.5 32q39 0 65 -24.5t26 -63.5q0 -47 -32 -79t-79 -32zM152 -1l-70 535h187l33 -317h1l188 317h201l-506 -797
h-199z" />
    <glyph glyph-name="Amacron" unicode="&#x100;" horiz-adv-x="818" 
d="M786 1004l-36 -136h-386l36 136h386zM235 144l-90 -144h-213l494 783h225l121 -783h-204l-21 144h-312zM525 311l-36 256l-154 -256h190z" />
    <glyph glyph-name="amacron" unicode="&#x101;" horiz-adv-x="689" 
d="M659 765l-36 -137h-386l36 137h386zM369 0l15 58h-2q-70 -69 -154 -69q-90 0 -142 64t-52 154q0 136 86 237q87 100 208 100q106 0 161 -78h1l19 68h190l-142 -534h-188zM318 157q51 0 90 40q39 41 39 95q0 38 -25.5 61.5t-64.5 23.5q-53 0 -92 -41q-38 -41 -38 -95
q0 -38 24.5 -61t66.5 -23z" />
    <glyph glyph-name="Abreve" unicode="&#x102;" horiz-adv-x="818" 
d="M659 1052h133q-27 -87 -88.5 -140t-145.5 -53q-78 0 -130 46t-52 121q0 2 2 26h128q-3 -34 14 -55t49 -21q65 0 90 76zM-68 0l494 783h225l121 -783h-204l-21 144h-312l-90 -144h-213zM525 311l-36 256l-154 -256h190z" />
    <glyph glyph-name="abreve" unicode="&#x103;" horiz-adv-x="689" 
d="M529 812h133q-27 -87 -88.5 -139.5t-145.5 -52.5q-77 0 -129 46t-52 121q0 20 1 25h128q-2 -33 15 -54.5t48 -21.5q63 0 90 76zM369 0l15 58h-2q-70 -69 -154 -69q-90 0 -142 64t-52 154q0 136 86 237q87 100 208 100q106 0 161 -78h1l19 68h190l-142 -534h-188zM318 157
q51 0 90 40q39 41 39 95q0 38 -25.5 61.5t-64.5 23.5q-53 0 -92 -41q-38 -41 -38 -95q0 -38 24.5 -61t66.5 -23z" />
    <glyph glyph-name="Aogonek" unicode="&#x104;" horiz-adv-x="818" 
d="M651 783l121 -783h-1q-45 -23 -86 -55q-43 -34 -43 -64q0 -18 17.5 -28.5t40.5 -10.5q1 0 7.5 0.5t8.5 0.5l-28 -104q-27 -5 -59 -5q-52 0 -96 26q-43 25 -43 74q0 87 130 166h-52l-21 144h-312l-90 -144h-213l494 783h225zM489 567l-154 -256h190z" />
    <glyph glyph-name="aogonek" unicode="&#x105;" horiz-adv-x="689" 
d="M275 -166q0 87 130 166h-36l15 58h-2q-70 -69 -154 -69q-90 0 -142 64t-52 154q0 136 86 237q87 100 208 100q106 0 161 -78h1l19 68h190l-142 -534q-45 -23 -86 -55q-43 -34 -43 -64q0 -18 17 -28.5t40 -10.5q2 0 8.5 0.5t8.5 0.5l-28 -104q-27 -5 -59 -5q-53 0 -97 26
q-43 25 -43 74zM318 157q51 0 90 40q39 41 39 95q0 38 -25.5 61.5t-64.5 23.5q-53 0 -92 -41q-38 -41 -38 -95q0 -38 24.5 -61t66.5 -23z" />
    <glyph glyph-name="Cacute" unicode="&#x106;" horiz-adv-x="864" 
d="M637 1048h212l-224 -196h-153zM680 315l170 -83q-41 -87 -137 -162q-109 -82 -269 -82q-154 0 -263 92q-107 93 -107 255q-2 126 62.5 234t172.5 169t229 58q170 0 255 -82q76 -73 98 -167l-188 -78q-14 59 -57 101q-44 42 -126 42q-100 0 -170 -79q-71 -79 -71 -183
q0 -81 50 -129t137 -48q79 0 132 43q55 43 82 99z" />
    <glyph glyph-name="cacute" unicode="&#x107;" horiz-adv-x="625" 
d="M460 819h212l-223 -196h-154zM313 157q35 0 64 18t44 47l153 -77q-38 -73 -108 -115t-162 -42q-124 0 -195 67q-72 67 -72 178q0 128 92 220q93 93 229 93q99 0 164.5 -46.5t86.5 -121.5l-169 -68q-19 67 -93 67q-54 0 -89 -41t-35 -92q0 -39 24 -63t66 -24z" />
    <glyph glyph-name="Ccircumflex" unicode="&#x108;" horiz-adv-x="864" 
d="M579 955l-88 -101h-158l176 189h172l79 -189h-147zM680 315l170 -83q-41 -87 -137 -162q-109 -82 -269 -82q-154 0 -263 92q-107 93 -107 255q-2 126 62.5 234t172.5 169t229 58q170 0 255 -82q76 -73 98 -167l-188 -78q-14 59 -57 101q-44 42 -126 42q-100 0 -170 -79
q-71 -79 -71 -183q0 -81 50 -129t137 -48q79 0 132 43q55 43 82 99z" />
    <glyph glyph-name="ccircumflex" unicode="&#x109;" horiz-adv-x="624" 
d="M406 726l-88 -102h-158l176 189h172l79 -189h-147zM313 157q35 0 64 18t44 47l153 -77q-38 -73 -108 -115t-162 -42q-124 0 -195 67q-72 67 -72 178q0 128 92 220q93 93 229 93q99 0 164.5 -46.5t86.5 -121.5l-169 -68q-19 67 -93 67q-54 0 -89 -41t-35 -92q0 -39 24 -63
t66 -24z" />
    <glyph glyph-name="Cdotaccent" unicode="&#x10a;" horiz-adv-x="864" 
d="M552 855q-43 0 -71 27.5t-28 70.5q0 51 35 86.5t86 35.5q43 0 71.5 -27.5t28.5 -70.5q0 -51 -36 -87q-35 -35 -86 -35zM680 315l170 -83q-41 -87 -137 -162q-109 -82 -269 -82q-154 0 -263 92q-107 93 -107 255q-2 126 62.5 234t172.5 169t229 58q170 0 255 -82
q76 -73 98 -167l-188 -78q-14 59 -57 101q-44 42 -126 42q-100 0 -170 -79q-71 -79 -71 -183q0 -81 50 -129t137 -48q79 0 132 43q55 43 82 99z" />
    <glyph glyph-name="cdotaccent" unicode="&#x10b;" horiz-adv-x="624" 
d="M376 606q-43 0 -71 27.5t-28 70.5q0 49 35 86q36 36 86 36q44 0 72 -27.5t28 -70.5q0 -51 -36 -87q-35 -35 -86 -35zM313 157q35 0 64 18t44 47l153 -77q-38 -73 -108 -115t-162 -42q-124 0 -195 67q-72 67 -72 178q0 128 92 220q93 93 229 93q99 0 164.5 -46.5
t86.5 -121.5l-169 -68q-19 67 -93 67q-54 0 -89 -41t-35 -92q0 -39 24 -63t66 -24z" />
    <glyph glyph-name="Ccaron" unicode="&#x10c;" horiz-adv-x="864" 
d="M576 942l88 101h158l-176 -189h-171l-79 189h146zM680 315l170 -83q-41 -87 -137 -162q-109 -82 -269 -82q-154 0 -263 92q-107 93 -107 255q-2 126 62.5 234t172.5 169t229 58q170 0 255 -82q76 -73 98 -167l-188 -78q-14 59 -57 101q-44 42 -126 42q-100 0 -170 -79
q-71 -79 -71 -183q0 -81 50 -129t137 -48q79 0 132 43q55 43 82 99z" />
    <glyph glyph-name="ccaron" unicode="&#x10d;" horiz-adv-x="624" 
d="M403 712l88 101h158l-176 -188h-171l-79 188h146zM313 157q35 0 64 18t44 47l153 -77q-38 -73 -108 -115t-162 -42q-124 0 -195 67q-72 67 -72 178q0 128 92 220q93 93 229 93q99 0 164.5 -46.5t86.5 -121.5l-169 -68q-19 67 -93 67q-54 0 -89 -41t-35 -92q0 -39 24 -63
t66 -24z" />
    <glyph glyph-name="Dcaron" unicode="&#x10e;" horiz-adv-x="827" 
d="M499 942l87 101h159l-177 -189h-171l-79 189h146zM15 0l208 783h214q181 0 285 -83q105 -82 105 -247q0 -89 -35.5 -172.5t-104.5 -147.5q-143 -133 -399 -133h-273zM620 437q0 164 -203 164h-44l-112 -418h52q82 0 145.5 24.5t97.5 65.5q64 77 64 164z" />
    <glyph glyph-name="dcaron" unicode="&#x10f;" horiz-adv-x="709" 
d="M557 0h-189l15 58h-1q-70 -69 -154 -69q-91 0 -143 64q-51 65 -51 154q0 136 86 237q87 100 208 100q106 0 161 -78h1l93 349h191zM908 581h-143l62 234h196zM317 157q52 0 91 39q39 40 39 96q0 38 -25.5 61.5t-65.5 23.5q-53 0 -91 -41t-38 -95q0 -38 24.5 -61t65.5 -23
z" />
    <glyph glyph-name="Dcroat" unicode="&#x110;" horiz-adv-x="859" 
d="M38 311l45 168h91l81 304h213q182 0 286 -83q105 -82 105 -247q0 -89 -35.5 -172.5t-104.5 -147.5q-143 -133 -399 -133h-273l82 311h-91zM652 437q0 166 -202 166h-45l-34 -124h141l-45 -168h-141l-34 -128h53q82 0 145.5 24.5t97.5 65.5q64 77 64 164z" />
    <glyph glyph-name="dslash" unicode="&#x111;" horiz-adv-x="689" 
d="M774 815l-21 -80h72l-33 -127h-73l-162 -608h-189l15 58h-1q-70 -69 -154 -69q-91 0 -143 64q-51 65 -51 154q0 136 86 237q87 100 208 100q106 0 161 -78h1l38 142h-153l35 127h152l21 80h191zM317 157q52 0 91 39q39 40 39 96q0 38 -25.5 61.5t-65.5 23.5
q-53 0 -91 -41t-38 -95q0 -38 24.5 -61t65.5 -23z" />
    <glyph glyph-name="Emacron" unicode="&#x112;" horiz-adv-x="686" 
d="M743 1004l-36 -136h-386l36 136h386zM770 783l-47 -175h-349l-35 -128h318l-45 -169h-318l-36 -135h352l-47 -176h-548l209 783h546z" />
    <glyph glyph-name="emacron" unicode="&#x113;" horiz-adv-x="632" 
d="M616 765l-36 -137h-386l36 137h386zM584 219h-369q0 -37 30 -60t71 -23q79 0 128 61l117 -94q-91 -115 -254 -115q-118 0 -195 68q-76 67 -76 180q0 127 97 218q98 92 228 92q110 0 176 -63q67 -63 67 -167q0 -46 -20 -97zM353 401q-36 0 -70 -21.5t-48 -54.5h191
q2 10 2 16q0 29 -20.5 44.5t-54.5 15.5z" />
    <glyph glyph-name="Edotaccent" unicode="&#x116;" horiz-adv-x="686" 
d="M511 855q-43 0 -71 27.5t-28 70.5q0 49 35 86q35 36 85 36q44 0 72 -27.5t28 -70.5q0 -51 -35 -86.5t-86 -35.5zM770 783l-47 -175h-349l-35 -128h318l-45 -169h-318l-36 -135h352l-47 -176h-548l209 783h546z" />
    <glyph glyph-name="edotaccent" unicode="&#x117;" horiz-adv-x="632" 
d="M377 606q-43 0 -71 27.5t-28 70.5q0 49 35 86q36 36 86 36q44 0 72 -27.5t28 -70.5q0 -51 -36 -87q-35 -35 -86 -35zM584 219h-369q0 -37 30 -60t71 -23q79 0 128 61l117 -94q-91 -115 -254 -115q-118 0 -195 68q-76 67 -76 180q0 127 97 218q98 92 228 92q110 0 176 -63
q67 -63 67 -167q0 -46 -20 -97zM353 401q-36 0 -70 -21.5t-48 -54.5h191q2 10 2 16q0 29 -20.5 44.5t-54.5 15.5z" />
    <glyph glyph-name="Eogonek" unicode="&#x118;" horiz-adv-x="686" 
d="M339 480h318l-45 -169h-318l-36 -135h352l-47 -176q-45 -23 -86 -55q-43 -34 -43 -64q0 -18 17 -28.5t40 -10.5q2 0 8.5 0.5t8.5 0.5l-28 -104q-27 -5 -59 -5q-53 0 -97 26q-43 25 -43 74q0 87 130 166h-396l209 783h545l-46 -175h-349z" />
    <glyph glyph-name="eogonek" unicode="&#x119;" horiz-adv-x="632" 
d="M604 316q0 -46 -20 -97h-369q0 -37 30 -60t71 -23q79 0 128 61l117 -94q-67 -84 -170 -106q-45 -23 -84 -55q-40 -33 -40 -61q0 -18 17.5 -28.5t40.5 -10.5q2 0 8.5 0.5t8.5 0.5l-28 -104q-27 -5 -59 -5q-53 0 -97 26q-43 25 -43 74q0 84 122 161q-91 18 -146 83t-55 158
q0 127 97 218q98 92 228 92q110 0 176 -63q67 -63 67 -167zM235 325h191q2 10 2 16q0 29 -20.5 44.5t-54.5 15.5q-36 0 -70 -21.5t-48 -54.5z" />
    <glyph glyph-name="Ecaron" unicode="&#x11a;" horiz-adv-x="686" 
d="M536 942l88 101h158l-176 -189h-171l-80 189h147zM294 311l-36 -135h352l-47 -176h-548l209 783h546l-47 -175h-349l-35 -128h318l-45 -169h-318z" />
    <glyph glyph-name="ecaron" unicode="&#x11b;" horiz-adv-x="632" 
d="M406 712l88 101h158l-176 -188h-172l-79 188h147zM584 219h-369q0 -37 30 -60t71 -23q79 0 128 61l117 -94q-91 -115 -254 -115q-118 0 -195 68q-76 67 -76 180q0 127 97 218q98 92 228 92q110 0 176 -63q67 -63 67 -167q0 -46 -20 -97zM353 401q-36 0 -70 -21.5
t-48 -54.5h191q2 10 2 16q0 29 -20.5 44.5t-54.5 15.5z" />
    <glyph glyph-name="Gcircumflex" unicode="&#x11c;" horiz-adv-x="874" 
d="M579 955l-88 -101h-158l176 189h172l79 -189h-147zM890 561l-183 -80q-16 62 -63.5 98t-121.5 36q-101 0 -175 -80q-73 -79 -73 -182q0 -80 50 -133q51 -53 141 -53q63 0 113 28.5t75 77.5h-226l37 155h415q-6 -179 -113 -304q-53 -63 -137 -99.5t-184 -36.5
q-157 0 -263 93q-107 93 -107 254q0 195 136 328t328 133q167 0 252 -77q74 -66 99 -158z" />
    <glyph glyph-name="gcircumflex" unicode="&#x11d;" horiz-adv-x="686" 
d="M457 726l-88 -102h-159l177 189h171l79 -189h-146zM-44 -87l156 73q11 -43 43.5 -67.5t72.5 -24.5q105 0 141 133l11 41l-44 -29q-51 -29 -106 -29q-81 0 -138 60q-56 62 -56 146q0 132 85 229t202 97q108 0 164 -80h1l20 72h188l-135 -509q-76 -292 -332 -292
q-114 0 -184 52q-70 53 -89 128zM313 175q48 0 86 38q38 40 38 92q0 36 -24 58.5t-62 22.5q-51 0 -88 -39q-37 -37 -37 -91q0 -37 23.5 -59t63.5 -22z" />
    <glyph glyph-name="Gbreve" unicode="&#x11e;" horiz-adv-x="874" 
d="M655 1052h133q-27 -87 -88.5 -140t-145.5 -53q-77 0 -129 46t-52 121q0 20 1 26h128q-2 -34 14.5 -55t48.5 -21q65 0 90 76zM890 561l-183 -80q-16 62 -63.5 98t-121.5 36q-101 0 -175 -80q-73 -79 -73 -182q0 -80 50 -133q51 -53 141 -53q63 0 113 28.5t75 77.5h-226
l37 155h415q-6 -179 -113 -304q-53 -63 -137 -99.5t-184 -36.5q-157 0 -263 93q-107 93 -107 254q0 195 136 328t328 133q167 0 252 -77q74 -66 99 -158z" />
    <glyph glyph-name="gbreve" unicode="&#x11f;" horiz-adv-x="686" 
d="M528 812h132q-27 -87 -88.5 -139.5t-144.5 -52.5q-78 0 -130 46t-52 121q0 3 2 25h128q-3 -33 14 -54.5t49 -21.5q63 0 90 76zM-44 -87l156 73q11 -43 43.5 -67.5t72.5 -24.5q105 0 141 133l11 41l-44 -29q-51 -29 -106 -29q-81 0 -138 60q-56 62 -56 146q0 132 85 229
t202 97q108 0 164 -80h1l20 72h188l-135 -509q-76 -292 -332 -292q-114 0 -184 52q-70 53 -89 128zM313 175q48 0 86 38q38 40 38 92q0 36 -24 58.5t-62 22.5q-51 0 -88 -39q-37 -37 -37 -91q0 -37 23.5 -59t63.5 -22z" />
    <glyph glyph-name="Gdotaccent" unicode="&#x120;" horiz-adv-x="874" 
d="M552 855q-43 0 -71 27.5t-28 70.5q0 51 35 86.5t86 35.5q43 0 71.5 -27.5t28.5 -70.5q0 -51 -36 -87q-35 -35 -86 -35zM890 561l-183 -80q-16 62 -63.5 98t-121.5 36q-101 0 -175 -80q-73 -79 -73 -182q0 -80 50 -133q51 -53 141 -53q63 0 113 28.5t75 77.5h-226l37 155
h415q-6 -179 -113 -304q-53 -63 -137 -99.5t-184 -36.5q-157 0 -263 93q-107 93 -107 254q0 195 136 328t328 133q167 0 252 -77q74 -66 99 -158z" />
    <glyph glyph-name="gdotaccent" unicode="&#x121;" horiz-adv-x="686" 
d="M438 606q-43 0 -71 27.5t-28 70.5q0 49 35 86q34 36 85 36q44 0 72.5 -27.5t28.5 -70.5q0 -51 -36 -87q-35 -35 -86 -35zM-44 -87l156 73q11 -43 43.5 -67.5t72.5 -24.5q105 0 141 133l11 41l-44 -29q-51 -29 -106 -29q-81 0 -138 60q-56 62 -56 146q0 132 85 229t202 97
q108 0 164 -80h1l20 72h188l-135 -509q-76 -292 -332 -292q-114 0 -184 52q-70 53 -89 128zM313 175q48 0 86 38q38 40 38 92q0 36 -24 58.5t-62 22.5q-51 0 -88 -39q-37 -37 -37 -91q0 -37 23.5 -59t63.5 -22z" />
    <glyph glyph-name="Gcommaaccent" unicode="&#x122;" horiz-adv-x="874" 
d="M890 561l-183 -80q-16 62 -63.5 98t-121.5 36q-101 0 -175 -80q-73 -79 -73 -182q0 -80 50 -133q51 -53 141 -53q63 0 113 28.5t75 77.5h-226l37 155h415q-6 -179 -113 -304q-53 -63 -137 -99.5t-184 -36.5q-157 0 -263 93q-107 93 -107 254q0 195 136 328t328 133
q167 0 252 -77q74 -66 99 -158zM499 -142q0 -64 -43 -122t-113 -100l-45 47q74 43 112 104q-18 -8 -34 -8q-31 0 -49.5 19t-18.5 49q0 43 32 73q32 29 76 29q38 0 60.5 -25.5t22.5 -65.5z" />
    <glyph glyph-name="gcommaaccent" unicode="&#x123;" horiz-adv-x="686" 
d="M347 707q0 64 43 122t113 100l45 -47q-74 -43 -112 -104q18 8 33 8q32 0 50.5 -19t18.5 -49q0 -43 -32 -73q-32 -29 -76 -29q-38 0 -60.5 25.5t-22.5 65.5zM-44 -87l156 73q11 -43 43.5 -67.5t72.5 -24.5q105 0 141 133l11 41l-44 -29q-51 -29 -106 -29q-81 0 -138 60
q-56 62 -56 146q0 132 85 229t202 97q108 0 164 -80h1l20 72h188l-135 -509q-76 -292 -332 -292q-114 0 -184 52q-70 53 -89 128zM313 175q48 0 86 38q38 40 38 92q0 36 -24 58.5t-62 22.5q-51 0 -88 -39q-37 -37 -37 -91q0 -37 23.5 -59t63.5 -22z" />
    <glyph glyph-name="Hbar" unicode="&#x126;" horiz-adv-x="891" 
d="M872 572l-153 -572h-197l80 300h-290l-81 -300h-197l153 572h-87l34 131h88l21 80h197l-21 -80h291l21 80h197l-21 -80h88l-35 -131h-88zM384 572l-24 -90h291l24 90h-291z" />
    <glyph glyph-name="hbar" unicode="&#x127;" horiz-adv-x="651" 
d="M466 545q74 0 114 -43.5t40 -114.5q0 -38 -16 -98l-77 -289h-190l75 281q5 20 5 33q0 27 -15 42t-43 15q-75 0 -98 -87l-76 -284h-190l162 608h-73l34 127h73l21 80h189l-21 -80h154l-34 -127h-154l-35 -133h1q71 70 154 70z" />
    <glyph glyph-name="Itilde" unicode="&#x128;" horiz-adv-x="363" 
d="M289 1036q32 0 61.5 -16t51.5 -32t34 -16q19 0 33 17.5t21 43.5h112q-15 -82 -60.5 -131.5t-117.5 -49.5q-38 0 -86.5 32t-59.5 32q-39 0 -57 -61h-111q15 82 61 131.5t118 49.5zM421 783l-209 -783h-197l209 783h197z" />
    <glyph glyph-name="itilde" unicode="&#x129;" horiz-adv-x="320" 
d="M208 806q32 0 61.5 -16t51.5 -32t34 -16q19 0 33 17.5t21 43.5h112q-15 -82 -60.5 -131.5t-117.5 -49.5q-38 0 -86.5 32t-59.5 32q-39 0 -57 -61h-111q15 82 61 131.5t118 49.5zM137 534h194l-143 -534h-193z" />
    <glyph glyph-name="Imacron" unicode="&#x12a;" horiz-adv-x="363" 
d="M558 1004l-37 -136h-356l36 136h357zM421 783l-209 -783h-197l209 783h197z" />
    <glyph glyph-name="imacron" unicode="&#x12b;" horiz-adv-x="318" 
d="M463 765l-36 -137h-343l37 137h342zM137 534h192l-142 -534h-192z" />
    <glyph glyph-name="Ibreve" unicode="&#x12c;" horiz-adv-x="363" 
d="M461 1052h133q-27 -87 -88.5 -140t-145.5 -53q-77 0 -129 46t-52 121q0 20 1 26h128q-2 -34 15 -55t49 -21q64 0 89 76zM15 0l209 783h197l-209 -783h-197z" />
    <glyph glyph-name="ibreve" unicode="&#x12d;" horiz-adv-x="320" 
d="M380 812h132q-27 -87 -88.5 -139.5t-145.5 -52.5q-77 0 -129 46t-52 121q0 20 1 25h128q-2 -33 15 -54.5t49 -21.5q63 0 90 76zM188 0h-193l142 534h194z" />
    <glyph glyph-name="Iogonek" unicode="&#x12e;" horiz-adv-x="363" 
d="M224 783h197l-209 -783q-45 -23 -86 -55q-43 -34 -43 -64q0 -18 17.5 -28.5t40.5 -10.5q1 0 8 0.5t9 0.5l-28 -104q-27 -5 -59 -5q-54 0 -97 25t-43 75q0 87 130 166h-46z" />
    <glyph glyph-name="iogonek" unicode="&#x12f;" horiz-adv-x="318" 
d="M293 826q43 0 71.5 -27.5t28.5 -70.5q0 -51 -36 -87q-35 -35 -86 -35q-43 0 -71 27.5t-28 70.5q0 51 35 86.5t86 35.5zM329 534l-143 -534h1q-43 -20 -86 -54q-44 -35 -44 -65q0 -18 17.5 -28.5t40.5 -10.5q3 0 25 2l-28 -104q-31 -6 -68 -6q-52 0 -96 26q-43 25 -43 74
q0 87 130 166h-40l142 534h192z" />
    <glyph glyph-name="Idot" unicode="&#x130;" horiz-adv-x="363" 
d="M340 855q-43 0 -71 27.5t-28 70.5q0 51 35 86.5t86 35.5q43 0 71.5 -27.5t28.5 -70.5q0 -51 -36 -87q-35 -35 -86 -35zM421 783l-209 -783h-197l209 783h197z" />
    <glyph glyph-name="dotlessi" unicode="&#x131;" horiz-adv-x="318" 
d="M137 534h192l-143 -534h-191z" />
    <glyph glyph-name="IJ" unicode="&#x132;" horiz-adv-x="988" 
d="M15 0l209 783h197l-209 -783h-197zM363 157l163 81q9 -29 31 -47t55 -18q37 0 64 25.5t39 71.5l136 513h201l-146 -544q-32 -118 -109.5 -184t-199.5 -66q-87 0 -152 43q-66 44 -82 125z" />
    <glyph glyph-name="ij" unicode="&#x133;" horiz-adv-x="644" 
d="M271 606q-43 0 -71 27.5t-28 70.5q0 51 35 86.5t86 35.5q43 0 71.5 -27.5t28.5 -70.5q0 -51 -36 -87q-35 -35 -86 -35zM598 606q-43 0 -71 27.5t-28 70.5q0 49 35 86q34 36 85 36q44 0 72 -27.5t28 -70.5q0 -51 -35 -86.5t-86 -35.5zM187 0h-192l142 534h192zM463 534
h192l-161 -602q-27 -100 -87.5 -149.5t-160.5 -49.5q-20 0 -57 8q-33 7 -52 20l38 143q23 -12 48 -12q69 0 86 63z" />
    <glyph glyph-name="Kcommaaccent" unicode="&#x136;" horiz-adv-x="763" 
d="M214 0h-199l209 783h199l-89 -332h1l315 332h252l-391 -397l191 -386h-221l-168 374zM410 -142q0 -64 -43 -122t-113 -100l-45 47q74 43 112 104q-18 -8 -34 -8q-31 0 -49.5 19t-18.5 49q0 43 32 73q32 29 76 29q38 0 60.5 -25.5t22.5 -65.5z" />
    <glyph glyph-name="kcommaaccent" unicode="&#x137;" horiz-adv-x="638" 
d="M212 815h190l-133 -500h3l201 219h236l-257 -265l118 -269h-206l-109 263l-70 -263h-190zM315 -142q0 -64 -43 -122t-113 -100l-45 47q74 43 112 104q-18 -8 -34 -8q-31 0 -49.5 19t-18.5 49q0 43 32 73q32 29 76 29q38 0 60.5 -25.5t22.5 -65.5z" />
    <glyph glyph-name="Lacute" unicode="&#x139;" horiz-adv-x="618" 
d="M435 1048h212l-224 -196h-153zM224 783h198l-161 -603h326l-48 -180h-524z" />
    <glyph glyph-name="lacute" unicode="&#x13a;" horiz-adv-x="318" 
d="M416 1079h211l-223 -197h-154zM404 815l-217 -815h-192l217 815h192z" />
    <glyph glyph-name="Lcommaaccent" unicode="&#x13b;" horiz-adv-x="618" 
d="M224 783h198l-161 -603h326l-48 -180h-524zM337 -142q0 -64 -43 -122t-113 -100l-45 47q74 43 112 104q-18 -8 -34 -8q-31 0 -49.5 19t-18.5 49q0 43 32 73q32 29 76 29q38 0 60.5 -25.5t22.5 -65.5z" />
    <glyph glyph-name="lcommaaccent" unicode="&#x13c;" horiz-adv-x="318" 
d="M404 815l-217 -815h-192l217 815h192zM132 -142q0 -64 -43 -122t-113 -100l-45 47q74 43 112 104q-18 -8 -34 -8q-31 0 -49.5 19t-18.5 49q0 43 32 73q32 29 76 29q38 0 60.5 -25.5t22.5 -65.5z" />
    <glyph glyph-name="Lcaron" unicode="&#x13d;" horiz-adv-x="634" 
d="M556 805h197l-116 -234h-143zM224 783h198l-161 -603h326l-48 -180h-524z" />
    <glyph glyph-name="lcaron" unicode="&#x13e;" horiz-adv-x="338" 
d="M404 815l-217 -815h-192l217 815h192zM458 815h196l-116 -234h-143z" />
    <glyph glyph-name="Ldot" unicode="&#x13f;" horiz-adv-x="627" 
d="M224 783h198l-161 -603h326l-48 -180h-524zM526 297q-43 0 -71 27.5t-28 70.5q0 51 35 86.5t86 35.5q43 0 71 -27.5t28 -71.5q0 -49 -35 -86q-35 -35 -86 -35z" />
    <glyph glyph-name="ldot" unicode="&#x140;" horiz-adv-x="504" 
d="M404 815l-217 -815h-192l217 815h192zM415 204q-44 0 -71.5 27.5t-27.5 70.5q0 51 35 86.5t86 35.5q43 0 71 -27.5t28 -70.5q0 -51 -36 -87q-35 -35 -85 -35z" />
    <glyph glyph-name="Lslash" unicode="&#x141;" horiz-adv-x="669" 
d="M592 0h-527l72 267l-116 -47l47 175l116 46l91 342h197l-68 -253l230 92l-47 -175l-230 -92l-46 -175h329z" />
    <glyph glyph-name="lslash" unicode="&#x142;" horiz-adv-x="464" 
d="M347 320l-86 -320h-192l60 225l-115 -50l46 174l115 49l112 417h192l-86 -322l115 51l-46 -173z" />
    <glyph glyph-name="Nacute" unicode="&#x143;" horiz-adv-x="868" 
d="M679 1048h212l-224 -196h-153zM341 486l-130 -486h-196l209 783h221l156 -478l128 478h197l-209 -783h-216l-159 486h-1z" />
    <glyph glyph-name="nacute" unicode="&#x144;" horiz-adv-x="651" 
d="M506 819h212l-223 -196h-154zM526 0h-190l76 281q4 13 4 33q0 57 -57 57q-75 0 -98 -87l-76 -284h-190l142 534h189l-15 -59h1q71 70 154 70q73 0 113 -43.5t40 -114.5q0 -39 -15 -98z" />
    <glyph glyph-name="Ncommaaccent" unicode="&#x145;" horiz-adv-x="868" 
d="M341 486l-130 -486h-196l209 783h221l156 -478l128 478h197l-209 -783h-216l-159 486h-1zM430 -142q0 -64 -43 -122t-113 -100l-45 47q74 43 112 104q-18 -8 -34 -8q-31 0 -49.5 19t-18.5 49q0 43 32 73q32 29 76 29q38 0 60.5 -25.5t22.5 -65.5z" />
    <glyph glyph-name="ncommaaccent" unicode="&#x146;" horiz-adv-x="651" 
d="M526 0h-190l76 281q4 13 4 33q0 57 -57 57q-75 0 -98 -87l-76 -284h-190l142 534h189l-15 -59h1q71 70 154 70q73 0 113 -43.5t40 -114.5q0 -39 -15 -98zM301 -142q0 -64 -43 -122t-113 -100l-45 47q74 43 112 104q-18 -8 -34 -8q-31 0 -49.5 19t-18.5 49q0 43 32 73
q32 29 76 29q38 0 60.5 -25.5t22.5 -65.5z" />
    <glyph glyph-name="Ncaron" unicode="&#x147;" horiz-adv-x="868" 
d="M616 942l88 101h158l-176 -189h-172l-79 189h147zM601 305l128 478h197l-209 -783h-216l-159 486h-1l-130 -486h-196l209 783h221z" />
    <glyph glyph-name="ncaron" unicode="&#x148;" horiz-adv-x="651" 
d="M445 712l88 101h158l-176 -188h-171l-79 188h146zM526 0h-190l76 281q4 13 4 33q0 57 -57 57q-75 0 -98 -87l-76 -284h-190l142 534h189l-15 -59h1q71 70 154 70q73 0 113 -43.5t40 -114.5q0 -39 -15 -98z" />
    <glyph glyph-name="Eng" unicode="&#x14a;" horiz-adv-x="867" 
d="M211 0h-196l209 783h221l158 -469h1l125 469h197l-226 -840q-27 -100 -96.5 -155t-182.5 -55q-72 0 -106 22l40 147q24 -11 51 -11q46 0 69 19t35 65l5 18l-172 495h-1z" />
    <glyph glyph-name="eng" unicode="&#x14b;" horiz-adv-x="651" 
d="M619 387q0 -39 -15 -98l-95 -357q-27 -100 -87.5 -149.5t-160.5 -49.5q-20 0 -57 8q-33 7 -52 20l38 143q22 -12 48 -12q72 0 88 63l86 326q4 13 4 33q0 57 -57 57q-75 0 -98 -87l-76 -284h-190l142 534h189l-15 -59h1q71 70 154 70q73 0 113 -43.5t40 -114.5z" />
    <glyph glyph-name="Omacron" unicode="&#x14c;" horiz-adv-x="912" 
d="M785 1004l-36 -136h-386l36 136h386zM539 796q165 0 268 -100q104 -99 104 -248q0 -127 -64 -233q-64 -105 -171 -167q-106 -60 -229 -60q-99 0 -181 39q-83 39 -137 120q-54 82 -54 191q0 125 63 232q63 106 169 166q107 60 232 60zM280 354q0 -85 52 -133t132 -48
q100 0 170 78q72 79 72 181q0 77 -51 128q-49 52 -134 52q-98 0 -170 -79q-71 -79 -71 -179z" />
    <glyph glyph-name="omacron" unicode="&#x14d;" horiz-adv-x="654" 
d="M637 765l-36 -137h-386l36 137h386zM302 -12q-124 0 -195 69q-71 71 -71 179q0 123 92 217q92 93 228 93q125 0 195 -70q72 -70 72 -178q0 -124 -93 -217q-92 -93 -228 -93zM312 157q50 0 88 39q37 38 37 93q0 39 -25.5 63.5t-65.5 24.5q-53 0 -89 -40q-35 -40 -35 -92
q0 -39 23.5 -63.5t66.5 -24.5z" />
    <glyph glyph-name="Ohungarumlaut" unicode="&#x150;" horiz-adv-x="912" 
d="M507 1048h212l-223 -196h-154zM764 1048h212l-224 -196h-153zM539 796q165 0 268 -100q104 -99 104 -248q0 -127 -64 -233q-64 -105 -171 -167q-106 -60 -229 -60q-99 0 -181 39q-83 39 -137 120q-54 82 -54 191q0 125 63 232q63 106 169 166q107 60 232 60zM280 354
q0 -85 52 -133t132 -48q100 0 170 78q72 79 72 181q0 77 -51 128q-49 52 -134 52q-98 0 -170 -79q-71 -79 -71 -179z" />
    <glyph glyph-name="ohungarumlaut" unicode="&#x151;" horiz-adv-x="654" 
d="M335 819h212l-224 -196h-153zM592 819h212l-224 -196h-153zM302 -12q-124 0 -194 69q-71 71 -71 179q0 123 92 217q91 93 227 93q125 0 195 -70q72 -70 72 -178q0 -124 -93 -217q-92 -93 -228 -93zM312 157q52 0 88 39q37 38 37 93q0 39 -25.5 63.5t-64.5 24.5
q-54 0 -90 -40q-35 -40 -35 -92q0 -39 24 -63.5t66 -24.5z" />
    <glyph glyph-name="OE" unicode="&#x152;" horiz-adv-x="1270" 
d="M1147 0h-548l12 45q-85 -57 -179 -57t-173 39t-132 120q-52 82 -52 191q0 125 63 232q63 106 169 166q107 60 232 60q86 0 148 -31t93 -86l28 104h546l-47 -175h-350l-35 -128h319l-45 -169h-318l-37 -135h353zM280 354q0 -85 52 -133t132 -48q99 0 171 79q72 80 72 182
q0 77 -50 127q-49 51 -136 51q-98 0 -170 -79q-71 -79 -71 -179z" />
    <glyph glyph-name="oe" unicode="&#x153;" horiz-adv-x="1026" 
d="M977 219h-367q0 -37 30 -60t70 -23q79 0 128 61l117 -94q-91 -115 -254 -115q-125 0 -195 79q-80 -79 -203 -79t-194 70q-72 70 -72 178q0 126 90 217q91 93 228 93q130 0 193 -81q87 81 208 81q100 0 171 -60q72 -58 72 -159q0 -51 -22 -108zM629 325h192q2 10 2 16
q0 29 -20.5 44.5t-54.5 15.5q-36 0 -70.5 -21.5t-48.5 -54.5zM312 157q52 0 88 37q37 37 37 93q0 39 -25.5 64.5t-63.5 25.5q-54 0 -90 -37.5t-36 -91.5q0 -38 24.5 -64.5t65.5 -26.5z" />
    <glyph glyph-name="Racute" unicode="&#x154;" horiz-adv-x="747" 
d="M394 852l165 196h212l-224 -196h-153zM774 559q0 -94 -54 -161.5t-161 -97.5l88 -300h-199l-80 275h-81l-74 -275h-198l209 783h243q172 0 249 -74q58 -55 58 -150zM376 613l-45 -170h95q64 0 104.5 26t40.5 72q0 26 -17 46q-24 26 -88 26h-90z" />
    <glyph glyph-name="racute" unicode="&#x155;" horiz-adv-x="461" 
d="M426 819h212l-224 -196h-153zM513 531l-49 -184q-27 10 -60 10q-124 0 -156 -123l-63 -234h-190l142 534h189l-21 -79h1q57 85 159 85q29 0 48 -9z" />
    <glyph glyph-name="Rcommaaccent" unicode="&#x156;" horiz-adv-x="747" 
d="M774 559q0 -94 -54 -161.5t-161 -97.5l88 -300h-199l-80 275h-81l-74 -275h-198l209 783h243q172 0 249 -74q58 -55 58 -150zM376 613l-45 -170h95q64 0 104.5 26t40.5 72q0 26 -17 46q-24 26 -88 26h-90zM390 -142q0 -64 -43 -122t-113 -100l-45 47q74 43 112 104
q-18 -8 -34 -8q-31 0 -49.5 19t-18.5 49q0 43 32 73q32 29 76 29q38 0 60.5 -25.5t22.5 -65.5z" />
    <glyph glyph-name="rcommaaccent" unicode="&#x157;" horiz-adv-x="461" 
d="M513 531l-49 -184q-27 10 -60 10q-124 0 -156 -123l-63 -234h-190l142 534h189l-21 -79h1q57 85 159 85q29 0 48 -9zM153 -142q0 -64 -43 -122t-113 -100l-45 47q74 43 112 104q-18 -8 -34 -8q-31 0 -49.5 19t-18.5 49q0 43 32 73q32 29 76 29q38 0 60.5 -25.5
t22.5 -65.5z" />
    <glyph glyph-name="Rcaron" unicode="&#x158;" horiz-adv-x="747" 
d="M406 854l-79 189h146l34 -101l88 101h158l-176 -189h-171zM774 559q0 -94 -54 -161.5t-161 -97.5l88 -300h-199l-80 275h-81l-74 -275h-198l209 783h243q172 0 249 -74q58 -55 58 -150zM376 613l-45 -170h95q64 0 104.5 26t40.5 72q0 26 -17 46q-24 26 -88 26h-90z" />
    <glyph glyph-name="rcaron" unicode="&#x159;" horiz-adv-x="461" 
d="M357 712l88 101h159l-177 -188h-171l-79 188h146zM513 531l-49 -184q-27 10 -60 10q-124 0 -156 -123l-63 -234h-190l142 534h189l-21 -79h1q57 85 159 85q29 0 48 -9z" />
    <glyph glyph-name="Sacute" unicode="&#x15a;" horiz-adv-x="694" 
d="M533 1048h211l-223 -196h-154zM449 229q0 45 -71 71l-66 23q-88 32 -138 85t-50 125q-1 114 94.5 190.5t214.5 72.5q110 0 184.5 -50t95.5 -134l-161 -77q-32 92 -128 92q-41 0 -69.5 -21t-28.5 -49q0 -45 65 -69l66 -24q195 -70 195 -222q0 -114 -88 -184
q-86 -70 -233 -70q-124 0 -206 53.5t-106 148.5l165 77q16 -53 57 -81t99 -28q52 0 80.5 21t28.5 50z" />
    <glyph glyph-name="sacute" unicode="&#x15b;" horiz-adv-x="535" 
d="M399 819h212l-224 -196h-153zM306 547q83 0 143 -37.5t84 -102.5l-124 -63q-10 30 -39.5 50t-66.5 20q-19 0 -33.5 -10t-14.5 -25q0 -21 35 -33l40 -14q73 -25 109.5 -63t36.5 -96q0 -84 -70 -135q-71 -50 -171 -50q-89 0 -153 43t-86 118l127 59q9 -36 40 -61t74 -25
q24 0 40 10t16 27q0 25 -30 35l-37 15q-76 30 -104 57q-44 39 -44 97q0 82 66 133q68 51 162 51z" />
    <glyph glyph-name="Scircumflex" unicode="&#x15c;" horiz-adv-x="694" 
d="M471 955l-87 -101h-159l177 189h171l79 -189h-146zM449 229q0 45 -71 71l-66 23q-88 32 -138 85t-50 125q-1 114 94.5 190.5t214.5 72.5q110 0 184.5 -50t95.5 -134l-161 -77q-32 92 -128 92q-41 0 -69.5 -21t-28.5 -49q0 -45 65 -69l66 -24q195 -70 195 -222
q0 -114 -88 -184q-86 -70 -233 -70q-124 0 -206 53.5t-106 148.5l165 77q16 -53 57 -81t99 -28q52 0 80.5 21t28.5 50z" />
    <glyph glyph-name="scircumflex" unicode="&#x15d;" horiz-adv-x="536" 
d="M354 726l-88 -102h-158l176 189h172l79 -189h-147zM307 547q83 0 143 -37.5t84 -102.5l-124 -63q-10 30 -40 50t-66 20q-19 0 -33.5 -10t-14.5 -25q0 -21 35 -33l40 -14q73 -25 109.5 -63t36.5 -96q0 -84 -70 -135q-71 -50 -171 -50q-89 0 -153 43t-86 118l127 59
q9 -36 40 -61t74 -25q24 0 40 10t16 27q0 25 -30 35l-37 15q-76 30 -104 57q-44 39 -44 97q0 82 66 133q67 51 162 51z" />
    <glyph glyph-name="Scedilla" unicode="&#x15e;" horiz-adv-x="706" 
d="M399 488l66 -24q195 -70 195 -222q0 -102 -70 -169.5t-191 -81.5q9 -24 9 -61q0 -93 -60 -144.5t-165 -51.5q-51 0 -82 12l28 106q3 0 20.5 -2t24.5 -2q56 0 85 45t19 99q-99 12 -164.5 63.5t-86.5 134.5l165 77q16 -53 57 -81t99 -28q52 0 80.5 21t28.5 50q0 47 -71 71
l-66 23q-87 31 -137.5 84.5t-50.5 125.5q-1 114 94.5 190.5t214.5 72.5q110 0 184.5 -50t95.5 -134l-161 -77q-32 92 -128 92q-41 0 -69.5 -21t-28.5 -49q0 -45 65 -69z" />
    <glyph glyph-name="scedilla" unicode="&#x15f;" horiz-adv-x="535" 
d="M290 346l40 -14q73 -25 109.5 -63t36.5 -96q0 -70 -50.5 -117.5t-133.5 -62.5q9 -24 9 -63q0 -96 -60.5 -146t-164.5 -50q-50 0 -82 12l28 106q25 -4 45 -4q48 0 77 33.5t29 83.5q0 15 -3 30q-65 13 -110.5 53t-63.5 101l127 59q9 -36 40 -61t74 -25q24 0 40 10t16 27
q0 25 -30 35l-37 15q-76 30 -104 57q-44 39 -44 97q0 82 66 133q68 51 162 51q83 0 143 -37.5t84 -102.5l-124 -63q-10 30 -39.5 50t-66.5 20q-19 0 -33.5 -10t-14.5 -25q0 -21 35 -33z" />
    <glyph glyph-name="Scaron" unicode="&#x160;" horiz-adv-x="694" 
d="M463 946l88 101h158l-176 -189h-171l-79 189h146zM449 229q0 45 -71 71l-66 23q-88 32 -138 85t-50 125q-1 114 94.5 190.5t214.5 72.5q110 0 184.5 -50t95.5 -134l-161 -77q-32 92 -128 92q-41 0 -69.5 -21t-28.5 -49q0 -45 65 -69l66 -24q195 -70 195 -222
q0 -114 -88 -184q-86 -70 -233 -70q-124 0 -206 53.5t-106 148.5l165 77q16 -53 57 -81t99 -28q52 0 80.5 21t28.5 50z" />
    <glyph glyph-name="scaron" unicode="&#x161;" horiz-adv-x="536" 
d="M346 712l88 101h158l-176 -188h-172l-79 188h147zM307 547q83 0 143 -37.5t84 -102.5l-124 -63q-10 30 -40 50t-66 20q-19 0 -33.5 -10t-14.5 -25q0 -21 35 -33l40 -14q73 -25 109.5 -63t36.5 -96q0 -84 -70 -135q-71 -50 -171 -50q-89 0 -153 43t-86 118l127 59
q9 -36 40 -61t74 -25q24 0 40 10t16 27q0 25 -30 35l-37 15q-76 30 -104 57q-44 39 -44 97q0 82 66 133q67 51 162 51z" />
    <glyph glyph-name="uni0162" unicode="&#x162;" horiz-adv-x="674" 
d="M750 604h-221l-161 -604h-7q14 -25 14 -70q0 -93 -60.5 -144.5t-165.5 -51.5q-51 0 -82 12l28 106q3 0 21 -2t25 -2q57 0 86 48t15 104h-73l162 604h-221l48 179h638z" />
    <glyph glyph-name="uni0163" unicode="&#x163;" horiz-adv-x="474" 
d="M49 -152q47 0 76 33.5t29 83.5q0 37 -28 77q-35 50 -35 100q0 33 10 66l45 168h-101l42 158h105l47 173h185l-46 -173h127l-42 -158h-127l-43 -161q-3 -11 -3 -21q0 -44 62 -44q19 0 49 5l-39 -150q-38 -13 -89 -14q10 -24 10 -61q0 -94 -61.5 -145t-164.5 -51
q-49 0 -81 12l28 106q17 -4 45 -4z" />
    <glyph glyph-name="Tcaron" unicode="&#x164;" horiz-adv-x="674" 
d="M518 942l88 101h158l-176 -189h-171l-80 189h147zM110 604l48 179h638l-46 -179h-221l-161 -604h-199l162 604h-221z" />
    <glyph glyph-name="tcaron" unicode="&#x165;" horiz-adv-x="474" 
d="M521 820h196l-116 -234h-143zM401 155l-39 -150q-44 -14 -103 -14q-76 0 -122 40t-46 111q0 33 10 66l45 168h-101l42 158h105l47 173h185l-46 -173h127l-42 -158h-127l-43 -161q-3 -11 -3 -21q0 -44 62 -44q19 0 49 5z" />
    <glyph glyph-name="Tbar" unicode="&#x166;" horiz-adv-x="690" 
d="M536 604l-56 -208h117l-35 -134h-118l-69 -262h-198l70 262h-117l36 134h117l55 208h-221l48 179h640l-48 -179h-221z" />
    <glyph glyph-name="tbar" unicode="&#x167;" horiz-adv-x="477" 
d="M466 376h-127l-16 -60h90l-28 -104h-90q-2 -16 -2 -18q0 -44 62 -44q19 0 49 5l-39 -150q-44 -14 -103 -14q-76 0 -122 40t-46 111q0 33 10 66l1 4h-90l27 104h91l16 60h-101l42 158h105l47 173h185l-46 -173h127z" />
    <glyph glyph-name="Utilde" unicode="&#x168;" horiz-adv-x="797" 
d="M512 1036q32 0 61.5 -16t51.5 -32t34 -16q19 0 33 17.5t21 43.5h112q-15 -82 -60.5 -131.5t-117.5 -49.5q-38 0 -86.5 32t-59.5 32q-39 0 -57 -61h-111q15 82 61 131.5t118 49.5zM665 783h200l-132 -494q-42 -154 -129.5 -227t-238.5 -73q-74 0 -129.5 19.5t-88.5 53
t-50 79t-16.5 97.5t15.5 109l116 436h200l-120 -450q-20 -74 6 -117.5t93 -43.5q111 0 150 146z" />
    <glyph glyph-name="utilde" unicode="&#x169;" horiz-adv-x="652" 
d="M368 806q32 0 61.5 -16t51.5 -32t34 -16q19 0 33 17.5t21 43.5h112q-15 -82 -60.5 -131.5t-117.5 -49.5q-38 0 -86.5 32t-59.5 32q-39 0 -57 -61h-111q15 82 61 131.5t118 49.5zM330 0l16 59h-2q-73 -70 -154 -70q-72 0 -112.5 44t-40.5 114q0 44 16 98l77 289h190
l-75 -282q-5 -18 -5 -32q0 -27 15 -42t42 -15q75 0 99 87l76 284h190l-143 -534h-189z" />
    <glyph glyph-name="Umacron" unicode="&#x16a;" horiz-adv-x="797" 
d="M789 1004l-37 -136h-385l36 136h386zM665 783h200l-133 -494q-42 -155 -129.5 -227.5t-238.5 -72.5q-73 0 -128.5 19.5t-88.5 53t-50 79t-16.5 97.5t15.5 109l116 436h200l-120 -450q-20 -75 5.5 -118t93.5 -43q109 0 150 146z" />
    <glyph glyph-name="umacron" unicode="&#x16b;" horiz-adv-x="652" 
d="M646 765l-37 -137h-385l36 137h386zM330 0l16 59h-2q-73 -70 -154 -70q-72 0 -112.5 44t-40.5 114q0 44 16 98l77 289h190l-75 -282q-5 -18 -5 -32q0 -27 15 -42t42 -15q75 0 99 87l76 284h190l-143 -534h-189z" />
    <glyph glyph-name="Uring" unicode="&#x16e;" horiz-adv-x="797" 
d="M549 847q-60 0 -98.5 37.5t-38.5 97.5q0 68 47 117q48 49 117 49q60 0 99 -38t39 -97q0 -70 -48 -118t-117 -48zM570 1055q-27 0 -46 -19t-19 -46q0 -22 14 -36t37 -14q27 0 46 19t19 46q0 22 -14 36t-37 14zM665 783h200l-133 -494q-42 -154 -129.5 -227t-238.5 -73
q-73 0 -128.5 19.5t-88.5 53t-50 79t-16.5 97.5t15.5 109l116 436h200l-120 -450q-20 -75 5.5 -118t93.5 -43q109 0 150 146z" />
    <glyph glyph-name="uring" unicode="&#x16f;" horiz-adv-x="652" 
d="M432 607q-60 0 -98.5 38t-38.5 98q0 68 47 117q48 49 117 49q60 0 99.5 -38t39.5 -98q0 -69 -49 -118q-48 -48 -117 -48zM453 816q-27 0 -45.5 -19t-18.5 -47q0 -22 14 -35.5t36 -13.5q27 0 46 18.5t19 46.5q0 22 -14.5 36t-36.5 14zM330 0l16 59h-2q-73 -70 -154 -70
q-72 0 -112.5 44t-40.5 114q0 44 16 98l77 289h190l-75 -282q-5 -18 -5 -32q0 -27 15 -42t42 -15q75 0 99 87l76 284h190l-143 -534h-189z" />
    <glyph glyph-name="Uhungarumlaut" unicode="&#x170;" horiz-adv-x="797" 
d="M505 1048h212l-224 -196h-153zM762 1048h212l-224 -196h-153zM665 783h200l-132 -494q-42 -155 -129.5 -227.5t-238.5 -72.5q-74 0 -129.5 19.5t-88.5 53t-50 79t-16.5 97.5t15.5 109l116 436h200l-120 -450q-20 -74 6 -117.5t93 -43.5q111 0 150 146z" />
    <glyph glyph-name="uhungarumlaut" unicode="&#x171;" horiz-adv-x="652" 
d="M376 819h212l-224 -196h-153zM633 819h212l-224 -196h-153zM330 0l16 59h-2q-73 -70 -154 -70q-72 0 -112.5 44t-40.5 114q0 44 16 98l77 289h190l-75 -282q-5 -18 -5 -32q0 -27 15 -42t42 -15q75 0 99 87l76 284h190l-143 -534h-189z" />
    <glyph glyph-name="Uogonek" unicode="&#x172;" horiz-adv-x="797" 
d="M665 783h200l-132 -494q-34 -128 -100 -199.5t-173 -92.5q-44 -21 -84 -54t-40 -62q0 -18 18 -28.5t41 -10.5q2 0 8.5 0.5t7.5 0.5l-28 -104q-27 -5 -59 -5q-52 0 -96 26q-43 25 -43 74q0 83 118 159q-73 9 -123.5 42t-72.5 81t-26.5 108t15.5 123l116 436h200l-120 -450
q-20 -75 5.5 -118t93.5 -43q111 0 150 146z" />
    <glyph glyph-name="uogonek" unicode="&#x173;" horiz-adv-x="652" 
d="M390 -119q0 -18 17 -28.5t40 -10.5q2 0 9 0.5t8 0.5l-27 -104q-27 -5 -59 -5q-55 0 -98 25t-43 75q0 85 131 166h-38l16 59h-2q-73 -70 -154 -70q-72 0 -112.5 44t-40.5 114q0 44 16 98l77 289h190l-75 -282q-5 -18 -5 -32q0 -27 15 -42t42 -15q75 0 99 87l76 284h190
l-143 -534q-43 -21 -86 -55t-43 -64z" />
    <glyph glyph-name="Wcircumflex" unicode="&#x174;" horiz-adv-x="1196" 
d="M759 955l-88 -101h-158l176 189h172l79 -189h-147zM386 0h-200l-45 783h201l15 -495h3l268 495h190l38 -496h2l252 496h210l-417 -783h-203l-32 522z" />
    <glyph glyph-name="wcircumflex" unicode="&#x175;" horiz-adv-x="909" 
d="M580 726l-88 -102h-158l176 189h172l79 -189h-147zM84 534h187l6 -287h1l170 287h155l19 -289h1l165 289h184l-312 -534h-181l-16 286h-1l-170 -286h-180z" />
    <glyph glyph-name="Ycircumflex" unicode="&#x176;" horiz-adv-x="761" 
d="M557 955l-88 -101h-158l176 189h171l79 -189h-146zM209 0l82 310l-143 473h210l78 -287l231 287h233l-416 -495l-77 -288h-198z" />
    <glyph glyph-name="ycircumflex" unicode="&#x177;" horiz-adv-x="625" 
d="M437 726l-88 -102h-159l177 189h171l79 -189h-146zM152 -1l-70 535h187l33 -317h1l188 317h201l-506 -797h-199z" />
    <glyph glyph-name="Ydieresis" unicode="&#x178;" horiz-adv-x="761" 
d="M387 865q-40 0 -65 24.5t-25 64.5q0 46 31.5 78t77.5 32q39 0 65 -24.5t26 -63.5q0 -46 -32 -78.5t-78 -32.5zM656 865q-39 0 -64.5 25t-25.5 64q0 46 32 78t78 32q39 0 64.5 -24.5t25.5 -63.5q0 -46 -32 -78.5t-78 -32.5zM209 0l82 310l-143 473h210l78 -287l231 287
h233l-416 -495l-77 -288h-198z" />
    <glyph glyph-name="Zacute" unicode="&#x179;" horiz-adv-x="696" 
d="M583 1048h212l-224 -196h-153zM-28 0l44 167l465 442h-331l48 174h591l-44 -165l-467 -442h350l-47 -176h-609z" />
    <glyph glyph-name="zacute" unicode="&#x17a;" horiz-adv-x="556" 
d="M452 819h212l-224 -196h-153zM295 377h-212l41 157h460l-37 -141l-295 -237h234l-41 -156h-473l42 151z" />
    <glyph glyph-name="Zdotaccent" unicode="&#x17b;" horiz-adv-x="696" 
d="M506 855q-43 0 -71 27.5t-28 70.5q0 49 35 86q35 36 85 36q44 0 72 -27.5t28 -70.5q0 -51 -35 -86.5t-86 -35.5zM-28 0l44 167l465 442h-331l48 174h591l-44 -165l-467 -442h350l-47 -176h-609z" />
    <glyph glyph-name="zdotaccent" unicode="&#x17c;" horiz-adv-x="556" 
d="M381 606q-43 0 -71 27.5t-28 70.5q0 49 35 86q35 36 85 36q44 0 72 -27.5t28 -70.5q0 -51 -35 -86.5t-86 -35.5zM295 377h-212l41 157h460l-37 -141l-295 -237h234l-41 -156h-473l42 151z" />
    <glyph glyph-name="Zcaron" unicode="&#x17d;" horiz-adv-x="696" 
d="M537 941l88 101h158l-177 -189h-171l-79 189h146zM198 783h591l-44 -165l-467 -442h350l-47 -176h-609l44 167l465 442h-331z" />
    <glyph glyph-name="zcaron" unicode="&#x17e;" horiz-adv-x="556" 
d="M392 712l87 101h159l-177 -188h-171l-79 188h146zM547 393l-295 -237h234l-41 -156h-473l42 151l281 226h-212l41 157h460z" />
    <glyph glyph-name="florin" unicode="&#x192;" horiz-adv-x="634" 
d="M607 379h-148l-89 -196q-88 -195 -289 -195q-54 0 -102 14l42 153q29 -13 66 -13q72 0 102 69l78 168h-95l40 155h125l26 57q89 195 288 195q57 0 101 -16l-41 -152q-56 22 -102 7t-67 -63l-13 -28h117z" />
    <glyph glyph-name="uni01B5" unicode="&#x1b5;" horiz-adv-x="697" 
d="M582 0h-609l42 164l187 176h-131l29 109h214l168 160h-331l48 174h591l-43 -161l-184 -173h139l-30 -109h-220l-173 -164h350z" />
    <glyph glyph-name="uni01B6" unicode="&#x1b6;" horiz-adv-x="556" 
d="M198 299l99 84h-213l40 151h460l-33 -129l-127 -106h101l-17 -65h-159l-99 -84h234l-39 -150h-473l40 142l110 92h-84l17 65h143z" />
    <glyph glyph-name="uni01CD" unicode="&#x1cd;" horiz-adv-x="818" 
d="M580 946l87 101h159l-177 -189h-171l-79 189h146zM-68 0l494 783h225l121 -783h-204l-21 144h-312l-90 -144h-213zM525 311l-36 256l-154 -256h190z" />
    <glyph glyph-name="uni01CE" unicode="&#x1ce;" horiz-adv-x="689" 
d="M451 712l88 101h158l-176 -188h-171l-79 188h146zM369 0l15 58h-2q-70 -69 -154 -69q-90 0 -142 64t-52 154q0 136 86 237q87 100 208 100q106 0 161 -78h1l19 68h190l-142 -534h-188zM318 157q51 0 90 40q39 41 39 95q0 38 -25.5 61.5t-64.5 23.5q-53 0 -92 -41
q-38 -41 -38 -95q0 -38 24.5 -61t66.5 -23z" />
    <glyph glyph-name="uni01CF" unicode="&#x1cf;" horiz-adv-x="363" 
d="M356 942l88 101h158l-176 -189h-172l-79 189h147zM15 0l209 783h197l-209 -783h-197z" />
    <glyph glyph-name="uni01D0" unicode="&#x1d0;" horiz-adv-x="320" 
d="M245 712l88 101h158l-177 -188h-171l-79 188h146zM188 0h-193l142 534h194z" />
    <glyph glyph-name="uni01D1" unicode="&#x1d1;" horiz-adv-x="912" 
d="M573 942l88 101h158l-176 -189h-171l-79 189h146zM539 796q165 0 268 -100q104 -99 104 -248q0 -127 -64 -233q-64 -105 -171 -167q-106 -60 -229 -60q-99 0 -181 39q-83 39 -137 120q-54 82 -54 191q0 125 63 232q63 106 169 166q107 60 232 60zM280 354q0 -85 52 -133
t132 -48q100 0 170 78q72 79 72 181q0 77 -51 128q-49 52 -134 52q-98 0 -170 -79q-71 -79 -71 -179z" />
    <glyph glyph-name="uni01D2" unicode="&#x1d2;" horiz-adv-x="654" 
d="M400 712l88 101h158l-176 -188h-172l-79 188h147zM302 -12q-124 0 -194 69q-71 71 -71 179q0 123 92 217q91 93 227 93q125 0 195 -70q72 -70 72 -178q0 -124 -93 -217q-92 -93 -228 -93zM312 157q52 0 88 39q37 38 37 93q0 39 -25.5 63.5t-64.5 24.5q-54 0 -90 -40
q-35 -40 -35 -92q0 -39 24 -63.5t66 -24.5z" />
    <glyph glyph-name="uni01D3" unicode="&#x1d3;" horiz-adv-x="797" 
d="M575 942l88 101h158l-176 -189h-171l-79 189h146zM665 783h200l-132 -494q-42 -154 -129.5 -227t-238.5 -73q-74 0 -129.5 19.5t-88.5 53t-50 79t-16.5 97.5t15.5 109l116 436h200l-120 -450q-20 -74 6 -117.5t93 -43.5q111 0 150 146z" />
    <glyph glyph-name="uni01D4" unicode="&#x1d4;" horiz-adv-x="652" 
d="M439 712l88 101h158l-176 -188h-172l-79 188h147zM330 0l16 59h-2q-73 -70 -154 -70q-72 0 -112.5 44t-40.5 114q0 44 16 98l77 289h190l-75 -282q-5 -18 -5 -32q0 -27 15 -42t42 -15q75 0 99 87l76 284h190l-143 -534h-189z" />
    <glyph glyph-name="uni01D5" unicode="&#x1d5;" horiz-adv-x="797" 
d="M842 1193l-36 -136h-386l37 136h385zM431 821q-39 0 -64 24.5t-25 63.5q0 46 31.5 78.5t77.5 32.5q39 0 64.5 -25t25.5 -64q0 -47 -31.5 -78.5t-78.5 -31.5zM701 821q-39 0 -64 24.5t-25 63.5q0 46 31.5 78.5t77.5 32.5q39 0 64.5 -25t25.5 -64q0 -47 -31.5 -78.5
t-78.5 -31.5zM665 783h200l-133 -494q-42 -154 -129.5 -227t-238.5 -73q-73 0 -128.5 19.5t-88.5 53t-50 79t-16.5 97.5t15.5 109l116 436h200l-120 -450q-20 -75 5.5 -118t93.5 -43q109 0 150 146z" />
    <glyph glyph-name="uni01D6" unicode="&#x1d6;" horiz-adv-x="652" 
d="M706 964l-36 -136h-386l36 136h386zM292 582q-39 0 -64.5 24.5t-25.5 63.5q0 46 32 78.5t78 32.5q39 0 64.5 -25t25.5 -64q0 -46 -32 -78t-78 -32zM552 582q-39 0 -64.5 24.5t-25.5 63.5q0 46 31.5 78.5t77.5 32.5q40 0 65.5 -24.5t25.5 -64.5q0 -46 -32 -78t-78 -32z
M330 0l16 59h-2q-73 -70 -154 -70q-72 0 -112.5 44t-40.5 114q0 44 16 98l77 289h190l-75 -282q-5 -18 -5 -32q0 -27 15 -42t42 -15q75 0 99 87l76 284h190l-143 -534h-189z" />
    <glyph glyph-name="uni01D7" unicode="&#x1d7;" horiz-adv-x="797" 
d="M663 1219h208l-208 -182h-153zM431 821q-39 0 -64 24.5t-25 63.5q0 46 31.5 78.5t77.5 32.5q39 0 64.5 -25t25.5 -64q0 -47 -31.5 -78.5t-78.5 -31.5zM701 821q-39 0 -64 24.5t-25 63.5q0 46 31.5 78.5t77.5 32.5q39 0 64.5 -25t25.5 -64q0 -47 -31.5 -78.5t-78.5 -31.5z
M665 783h200l-133 -494q-42 -154 -129.5 -227t-238.5 -73q-73 0 -128.5 19.5t-88.5 53t-50 79t-16.5 97.5t15.5 109l116 436h200l-120 -450q-20 -75 5.5 -118t93.5 -43q109 0 150 146z" />
    <glyph glyph-name="uni01D8" unicode="&#x1d8;" horiz-adv-x="652" 
d="M537 1005h212l-224 -196h-153zM292 582q-39 0 -64.5 24.5t-25.5 63.5q0 46 32 78.5t78 32.5q39 0 64.5 -25t25.5 -64q0 -46 -32 -78t-78 -32zM552 582q-39 0 -64.5 24.5t-25.5 63.5q0 46 31.5 78.5t77.5 32.5q40 0 65.5 -24.5t25.5 -64.5q0 -46 -32 -78t-78 -32zM330 0
l16 59h-2q-73 -70 -154 -70q-72 0 -112.5 44t-40.5 114q0 44 16 98l77 289h190l-75 -282q-5 -18 -5 -32q0 -27 15 -42t42 -15q75 0 99 87l76 284h190l-143 -534h-189z" />
    <glyph glyph-name="uni01D9" unicode="&#x1d9;" horiz-adv-x="797" 
d="M621 1135l75 84h151l-160 -162h-164l-77 162h140zM431 821q-39 0 -64 24.5t-25 63.5q0 46 31.5 78.5t77.5 32.5q39 0 64.5 -25t25.5 -64q0 -47 -31.5 -78.5t-78.5 -31.5zM701 821q-39 0 -64 24.5t-25 63.5q0 46 31.5 78.5t77.5 32.5q39 0 64.5 -25t25.5 -64
q0 -47 -31.5 -78.5t-78.5 -31.5zM665 783h200l-133 -494q-42 -154 -129.5 -227t-238.5 -73q-73 0 -128.5 19.5t-88.5 53t-50 79t-16.5 97.5t15.5 109l116 436h200l-120 -450q-20 -75 5.5 -118t93.5 -43q109 0 150 146z" />
    <glyph glyph-name="uni01DA" unicode="&#x1da;" horiz-adv-x="652" 
d="M480 897l87 101h159l-177 -189h-171l-79 189h146zM292 582q-39 0 -64.5 24.5t-25.5 63.5q0 46 32 78.5t78 32.5q39 0 64.5 -25t25.5 -64q0 -46 -32 -78t-78 -32zM552 582q-39 0 -64.5 24.5t-25.5 63.5q0 46 31.5 78.5t77.5 32.5q40 0 65.5 -24.5t25.5 -64.5
q0 -46 -32 -78t-78 -32zM330 0l16 59h-2q-73 -70 -154 -70q-72 0 -112.5 44t-40.5 114q0 44 16 98l77 289h190l-75 -282q-5 -18 -5 -32q0 -27 15 -42t42 -15q75 0 99 87l76 284h190l-143 -534h-189z" />
    <glyph glyph-name="uni01DB" unicode="&#x1db;" horiz-adv-x="797" 
d="M661 1037h-134l-139 183h193zM431 821q-39 0 -64 24.5t-25 63.5q0 46 31.5 78.5t77.5 32.5q39 0 64.5 -25t25.5 -64q0 -47 -31.5 -78.5t-78.5 -31.5zM701 821q-39 0 -64 24.5t-25 63.5q0 46 31.5 78.5t77.5 32.5q39 0 64.5 -25t25.5 -64q0 -47 -31.5 -78.5t-78.5 -31.5z
M665 783h200l-133 -494q-42 -154 -129.5 -227t-238.5 -73q-73 0 -128.5 19.5t-88.5 53t-50 79t-16.5 97.5t15.5 109l116 436h200l-120 -450q-20 -75 5.5 -118t93.5 -43q109 0 150 146z" />
    <glyph glyph-name="uni01DC" unicode="&#x1dc;" horiz-adv-x="652" 
d="M525 809h-134l-149 196h197zM292 582q-39 0 -64.5 24.5t-25.5 63.5q0 46 32 78.5t78 32.5q39 0 64.5 -25t25.5 -64q0 -46 -32 -78t-78 -32zM552 582q-39 0 -64.5 24.5t-25.5 63.5q0 46 31.5 78.5t77.5 32.5q40 0 65.5 -24.5t25.5 -64.5q0 -46 -32 -78t-78 -32zM330 0
l16 59h-2q-73 -70 -154 -70q-72 0 -112.5 44t-40.5 114q0 44 16 98l77 289h190l-75 -282q-5 -18 -5 -32q0 -27 15 -42t42 -15q75 0 99 87l76 284h190l-143 -534h-189z" />
    <glyph glyph-name="Gcaron" unicode="&#x1e6;" horiz-adv-x="874" 
d="M579 942l88 101h158l-177 -189h-171l-79 189h146zM890 561l-183 -80q-16 62 -63.5 98t-121.5 36q-101 0 -175 -80q-73 -79 -73 -182q0 -80 50 -133q51 -53 141 -53q63 0 113 28.5t75 77.5h-226l37 155h415q-6 -179 -113 -304q-53 -63 -137 -99.5t-184 -36.5
q-157 0 -263 93q-107 93 -107 254q0 195 136 328t328 133q167 0 252 -77q74 -66 99 -158z" />
    <glyph glyph-name="gcaron" unicode="&#x1e7;" horiz-adv-x="686" 
d="M442 712l88 101h158l-176 -188h-172l-79 188h147zM-44 -87l156 73q11 -43 43.5 -67.5t72.5 -24.5q105 0 141 133l11 41l-44 -29q-51 -29 -106 -29q-81 0 -138 60q-56 62 -56 146q0 132 85 229t202 97q108 0 164 -80h1l20 72h188l-135 -509q-76 -292 -332 -292
q-114 0 -184 52q-70 53 -89 128zM313 175q48 0 86 38q38 40 38 92q0 36 -24 58.5t-62 22.5q-51 0 -88 -39q-37 -37 -37 -91q0 -37 23.5 -59t63.5 -22z" />
    <glyph glyph-name="uni01E8" unicode="&#x1e8;" horiz-adv-x="763" 
d="M554 942l88 101h158l-176 -189h-171l-79 189h146zM650 783h252l-391 -397l191 -386h-221l-168 374l-99 -374h-199l209 783h199l-89 -332h1z" />
    <glyph glyph-name="uni01E9" unicode="&#x1e9;" horiz-adv-x="638" 
d="M212 815h190l-133 -500h3l201 219h236l-257 -265l118 -269h-206l-109 263l-70 -263h-190zM710 813h158l-176 -188h-171l-80 188h147l34 -101z" />
    <glyph glyph-name="uni01F4" unicode="&#x1f4;" horiz-adv-x="874" 
d="M635 1048h212l-223 -196h-154zM890 561l-183 -80q-16 62 -63.5 98t-121.5 36q-101 0 -175 -80q-73 -79 -73 -182q0 -80 50 -133q51 -53 141 -53q63 0 113 28.5t75 77.5h-226l37 155h415q-6 -179 -113 -304q-53 -63 -137 -99.5t-184 -36.5q-157 0 -263 93
q-107 93 -107 254q0 195 136 328t328 133q167 0 252 -77q74 -66 99 -158z" />
    <glyph glyph-name="uni01F5" unicode="&#x1f5;" horiz-adv-x="686" 
d="M446 819h212l-224 -196h-153zM-44 -87l156 73q11 -43 43.5 -67.5t72.5 -24.5q105 0 141 133l11 41l-44 -29q-51 -29 -106 -29q-81 0 -138 60q-56 62 -56 146q0 132 85 229t202 97q108 0 164 -80h1l20 72h188l-135 -509q-76 -292 -332 -292q-114 0 -184 52q-70 53 -89 128
zM313 175q48 0 86 38q38 40 38 92q0 36 -24 58.5t-62 22.5q-51 0 -88 -39q-37 -37 -37 -91q0 -37 23.5 -59t63.5 -22z" />
    <glyph glyph-name="Aringacute" unicode="&#x1fa;" horiz-adv-x="818" 
d="M715 1082h212l-235 -207q3 -15 3 -32q0 -60 -37 -106l114 -737h-204l-21 144h-312l-90 -144h-213l474 751q-13 25 -13 61q0 68 47 118q48 49 117 49q34 0 61 -13zM550 885q-26 0 -45 -19t-19 -46q0 -22 14 -36t37 -14q27 0 46 19t19 46q0 22 -14.5 36t-37.5 14zM525 311
l-36 256l-154 -256h190z" />
    <glyph glyph-name="aringacute" unicode="&#x1fb;" horiz-adv-x="689" 
d="M619 1013h212l-236 -207q3 -16 3 -33q0 -69 -48 -118q-48 -48 -117 -48q-60 0 -99 38t-39 98q0 69 48 117q48 49 117 49q36 0 61 -13zM454 816q-28 0 -46.5 -19t-18.5 -47q0 -22 14 -35.5t36 -13.5q28 0 46.5 18.5t18.5 46.5q0 22 -14 36t-36 14zM369 0l15 58h-2
q-70 -69 -154 -69q-90 0 -142 64t-52 154q0 136 86 237q87 100 208 100q106 0 161 -78h1l19 68h190l-142 -534h-188zM318 157q51 0 90 40q39 41 39 95q0 38 -25.5 61.5t-64.5 23.5q-53 0 -92 -41q-38 -41 -38 -95q0 -38 24.5 -61t66.5 -23z" />
    <glyph glyph-name="AEacute" unicode="&#x1fc;" horiz-adv-x="1093" 
d="M813 1048h212l-224 -196h-153zM-75 0l573 783h678l-46 -175h-347l-34 -128h314l-44 -169h-315l-37 -135h350l-47 -176h-540l33 124h-223l-89 -124h-226zM355 291h153l86 322h-11z" />
    <glyph glyph-name="aeacute" unicode="&#x1fd;" horiz-adv-x="944" 
d="M626 819h212l-224 -196h-153zM173 -12h-4q-65 0 -112 38t-47 108q0 86 70 132q71 47 163 47h90q22 0 38 13t16 33q0 21 -17 31.5t-42 10.5q-82 0 -129 -66l-113 84q87 127 268 127q97 0 157 -51q79 51 162 51q101 0 171 -60q72 -58 72 -159q0 -55 -22 -108h-367
q0 -37 30 -60t71 -23q79 0 128 61l117 -94q-91 -115 -254 -115q-139 0 -216 90q-50 -50 -102 -70t-128 -20zM665 401q-36 0 -70 -21.5t-48 -54.5h192q2 10 2 16q0 29 -21 44.5t-55 15.5zM248 122q35 0 61 19t35 53l6 22h-63q-35 0 -58.5 -15t-23.5 -38q0 -19 12 -30t31 -11z
" />
    <glyph glyph-name="Oslashacute" unicode="&#x1fe;" horiz-adv-x="912" 
d="M635 1048h212l-223 -196h-154zM447 -12q-127 0 -225 66l-95 -91l-82 85l91 88q-61 85 -61 201q0 126 63 233q62 105 170 166q106 60 232 60q130 0 225 -65l93 90l82 -85l-91 -88q62 -88 62 -200q0 -127 -64 -233q-64 -105 -171 -167q-106 -60 -229 -60zM522 618
q-100 0 -174 -81q-73 -80 -73 -184q0 -41 13 -76l333 317q-45 24 -99 24zM368 189q40 -22 95 -22q102 0 174 81q73 80 73 185q0 43 -13 73z" />
    <glyph glyph-name="oslashacute" unicode="&#x1ff;" horiz-adv-x="654" 
d="M463 819h212l-223 -196h-154zM302 -11q-97 0 -165 47l-74 -70l-52 55l71 67q-45 62 -45 150q0 121 92 215q93 93 228 93q99 0 167 -47l74 69l52 -56l-71 -67q44 -62 44 -149q0 -122 -93 -215q-92 -92 -228 -92zM348 384q-56 0 -95 -43q-38 -43 -38 -97q0 -13 5 -33
l174 164q-21 9 -46 9zM267 158q19 -9 45 -9q54 0 93 42q40 41 40 99q0 14 -5 31z" />
    <glyph glyph-name="Scommaaccent" unicode="&#x218;" horiz-adv-x="694" 
d="M449 229q0 45 -71 71l-66 23q-88 32 -138 85t-50 125q-1 114 94.5 190.5t214.5 72.5q110 0 184.5 -50t95.5 -134l-161 -77q-32 92 -128 92q-41 0 -69.5 -21t-28.5 -49q0 -45 65 -69l66 -24q195 -70 195 -222q0 -114 -88 -184q-86 -70 -233 -70q-124 0 -206 53.5
t-106 148.5l165 77q16 -53 57 -81t99 -28q52 0 80.5 21t28.5 50zM379 -142q0 -64 -43 -122t-113 -100l-45 47q74 43 112 104q-18 -8 -34 -8q-31 0 -49.5 19t-18.5 49q0 43 32 73q32 29 76 29q38 0 60.5 -25.5t22.5 -65.5z" />
    <glyph glyph-name="scommaaccent" unicode="&#x219;" horiz-adv-x="535" 
d="M306 547q83 0 143 -37.5t84 -102.5l-124 -63q-10 30 -39.5 50t-66.5 20q-19 0 -33.5 -10t-14.5 -25q0 -21 35 -33l40 -14q73 -25 109.5 -63t36.5 -96q0 -84 -70 -135q-71 -50 -171 -50q-89 0 -153 43t-86 118l127 59q9 -36 40 -61t74 -25q24 0 40 10t16 27q0 25 -30 35
l-37 15q-76 30 -104 57q-44 39 -44 97q0 82 66 133q68 51 162 51zM273 -142q0 -64 -43 -122t-113 -100l-45 47q74 43 112 104q-18 -8 -34 -8q-31 0 -49.5 19t-18.5 49q0 43 32 73q32 29 76 29q38 0 60.5 -25.5t22.5 -65.5z" />
    <glyph glyph-name="uni021A" unicode="&#x21a;" horiz-adv-x="674" 
d="M169 0l162 604h-221l48 179h638l-46 -179h-221l-161 -604h-199zM318 -142q0 -64 -43 -122t-113 -100l-45 47q74 43 112 104q-18 -8 -34 -8q-31 0 -49.5 19t-18.5 49q0 43 32 73q32 29 76 29q38 0 60.5 -25.5t22.5 -65.5z" />
    <glyph glyph-name="uni021B" unicode="&#x21b;" horiz-adv-x="474" 
d="M401 155l-39 -150q-44 -14 -103 -14q-76 0 -122 40t-46 111q0 33 10 66l45 168h-101l42 158h105l47 173h185l-46 -173h127l-42 -158h-127l-43 -161q-3 -11 -3 -21q0 -44 62 -44q19 0 49 5zM235 -142q0 -64 -43 -122t-113 -100l-45 47q74 43 112 104q-18 -8 -34 -8
q-31 0 -49.5 19t-18.5 49q0 43 32 73q32 29 76 29q38 0 60.5 -25.5t22.5 -65.5z" />
    <glyph glyph-name="uni0237" unicode="&#x237;" horiz-adv-x="326" 
d="M145 534h192l-161 -602q-27 -100 -87.5 -149.5t-160.5 -49.5q-19 0 -56 8q-34 7 -53 20l38 143q23 -12 48 -12q69 0 86 63z" />
    <glyph glyph-name="circumflex" unicode="&#x2c6;" horiz-adv-x="426" 
d="M346 726l-88 -102h-158l176 189h171l79 -189h-146z" />
    <glyph glyph-name="breve" unicode="&#x2d8;" horiz-adv-x="416" 
d="M383 812h133q-27 -87 -88.5 -139.5t-145.5 -52.5q-78 0 -130 46t-52 121q0 3 2 25h128q-3 -33 14 -54.5t49 -21.5q63 0 90 76z" />
    <glyph glyph-name="dotaccent" unicode="&#x2d9;" horiz-adv-x="220" 
d="M199 606q-43 0 -71 27.5t-28 70.5q0 49 35 86q35 36 85 36q44 0 72 -27.5t28 -70.5q0 -51 -35 -86.5t-86 -35.5z" />
    <glyph glyph-name="tilde" unicode="&#x2dc;" horiz-adv-x="462" 
d="M280 806q32 0 61.5 -16t51.5 -32t34 -16q19 0 33 17.5t21 43.5h112q-15 -82 -60.5 -131.5t-117.5 -49.5q-38 0 -86.5 32t-59.5 32q-39 0 -57 -61h-111q15 82 61 131.5t118 49.5z" />
    <glyph glyph-name="hungarumlaut" unicode="&#x2dd;" horiz-adv-x="579" 
d="M265 819h212l-224 -196h-153zM522 819h212l-224 -196h-153z" />
    <glyph glyph-name="gravecomb" unicode="&#x300;" horiz-adv-x="0" 
d="M142 623h-134l-150 196h198z" />
    <glyph glyph-name="acutecomb" unicode="&#x301;" horiz-adv-x="0" 
d="M-23 819h211l-223 -196h-153z" />
    <glyph glyph-name="uni0302" unicode="&#x302;" horiz-adv-x="0" 
d="M33 726l-88 -102h-158l176 189h171l79 -189h-146z" />
    <glyph glyph-name="tildecomb" unicode="&#x303;" horiz-adv-x="0" 
d="M48 806q32 0 61.5 -16t51.5 -32t34 -16q19 0 33 17.5t21 43.5h112q-15 -82 -60.5 -131.5t-117.5 -49.5q-38 0 -86.5 32t-59.5 32q-39 0 -57 -61h-111q15 82 61 131.5t118 49.5z" />
    <glyph glyph-name="uni0304" unicode="&#x304;" horiz-adv-x="0" 
d="M211 765l-36 -137h-386l36 137h386z" />
    <glyph glyph-name="uni0306" unicode="&#x306;" horiz-adv-x="0" 
d="M75 812h133q-27 -87 -88.5 -139.5t-145.5 -52.5q-77 0 -129 46q-53 47 -53 121q0 3 2 25h128q-3 -33 14 -54.5t49 -21.5q63 0 90 76z" />
    <glyph glyph-name="uni0307" unicode="&#x307;" horiz-adv-x="0" 
d="M-11 606q-43 0 -71 27.5t-28 70.5q0 49 35 86q35 36 85 36q44 0 72 -27.5t28 -70.5q0 -51 -35 -86.5t-86 -35.5z" />
    <glyph glyph-name="uni0308" unicode="&#x308;" horiz-adv-x="0" 
d="M-26 616q-39 0 -64.5 25t-25.5 64q0 46 32 78t78 32q39 0 64.5 -24.5t25.5 -63.5q0 -47 -32 -79t-78 -32zM234 616q-39 0 -64 24.5t-25 64.5q0 46 31 78t77 32q40 0 65.5 -24.5t25.5 -63.5q0 -46 -32 -78.5t-78 -32.5z" />
    <glyph glyph-name="uni030A" unicode="&#x30a;" horiz-adv-x="0" 
d="M-14 607q-60 0 -98.5 38t-38.5 98q0 69 48 117q46 49 116 49q60 0 99 -38t39 -98q0 -69 -48 -118q-48 -48 -117 -48zM7 816q-27 0 -46 -19t-19 -47q0 -22 14 -35.5t37 -13.5q27 0 46 18.5t19 46.5q0 22 -14.5 36t-36.5 14z" />
    <glyph glyph-name="uni030B" unicode="&#x30b;" horiz-adv-x="0" 
d="M-152 819h212l-224 -196h-153zM105 819h212l-224 -196h-153z" />
    <glyph glyph-name="uni030C" unicode="&#x30c;" horiz-adv-x="0" 
d="M-33 712l88 101h158l-176 -188h-171l-79 188h146z" />
    <glyph glyph-name="uni0312" unicode="&#x312;" horiz-adv-x="0" 
d="M130 926l-15 -61q-36 2 -75.5 -19t-56.5 -64q19 10 39 10q36 0 57.5 -22.5t21.5 -58.5q0 -41 -29.5 -68t-71.5 -27q-47 0 -73 30t-26 80q0 110 102 169q62 36 127 31z" />
    <glyph glyph-name="uni0326" unicode="&#x326;" horiz-adv-x="0" 
d="M-131 -393l16 62q38 0 76.5 19.5t54.5 63.5q-14 -10 -38 -10q-36 0 -58 22.5t-22 58.5q0 39 30 66.5t72 27.5q47 0 73 -29.5t26 -79.5q0 -111 -103 -169q-62 -35 -127 -32z" />
    <glyph glyph-name="uni0327" unicode="&#x327;" horiz-adv-x="0" 
d="M21 0h119q13 -23 13 -70q0 -96 -60.5 -146t-164.5 -50q-50 0 -81 12l28 106q23 -4 45 -4q47 0 76 33.5t29 83.5q0 22 -4 35z" />
    <glyph glyph-name="uni0328" unicode="&#x328;" horiz-adv-x="0" 
d="M11 -119q0 -18 17.5 -28.5t40.5 -10.5q2 0 9 0.5t8 0.5l-28 -104q-27 -5 -59 -5q-53 0 -97 26q-43 25 -43 74q0 87 130 166h152q-45 -22 -87 -55q-43 -34 -43 -64z" />
    <glyph glyph-name="Theta" unicode="&#x398;" horiz-adv-x="912" 
d="M539 796q165 0 268 -100q104 -99 104 -248q0 -127 -64 -233q-64 -105 -171 -167q-106 -60 -229 -60q-99 0 -181 39q-83 39 -137 120q-54 82 -54 191q0 125 63 232q63 106 169 166q107 60 232 60zM280 354q0 -85 52 -133t132 -48q100 0 170 78q72 79 72 181q0 77 -51 128
q-49 52 -134 52q-98 0 -170 -79q-71 -79 -71 -179zM644 472l-40 -154h-261l41 154h260z" />
    <glyph glyph-name="uni03A9" unicode="&#x3a9;" horiz-adv-x="913" 
d="M777 0h-355l57 215q94 13 157 81q63 69 63 163q0 68 -52 111t-122 43q-97 0 -163 -75t-66 -173q0 -55 30.5 -95.5t81.5 -51.5l-59 -218h-354l47 174h135q-39 39 -61.5 91t-22.5 106q0 116 65 216q65 98 170 154q103 55 220 55q91 0 171 -37q81 -36 135 -108t54 -164
q0 -96 -58 -179q-58 -84 -145 -134h119z" />
    <glyph glyph-name="theta" unicode="&#x3b8;" horiz-adv-x="754" 
d="M343 -12q-70 0 -124 26t-86 71t-48.5 101t-16.5 121q0 188 108 345q52 76 132.5 121t173.5 45q69 0 123 -27t86.5 -73t49 -101.5t16.5 -117.5q0 -89 -28 -178.5t-79 -164.5t-131.5 -121.5t-175.5 -46.5zM285 483h288v12q0 151 -113 151q-59 0 -105.5 -45.5t-69.5 -117.5z
M542 330h-289q0 -3 -0.5 -10t-0.5 -9q0 -75 25.5 -112.5t84.5 -37.5q62 0 110 48q47 49 70 121z" />
    <glyph glyph-name="pi" unicode="&#x3c0;" horiz-adv-x="784" 
d="M769 376h-119l-43 -162q-3 -9 -3 -21q0 -43 59 -43q25 0 47 5l-39 -150q-45 -14 -101 -14q-74 0 -116.5 39.5t-42.5 111.5q0 34 9 66l45 168h-115l-100 -376h-188l101 376h-107l42 158h713z" />
    <glyph glyph-name="uni0401" unicode="&#x401;" horiz-adv-x="686" 
d="M395 865q-40 0 -65 24.5t-25 64.5q0 46 31.5 78t77.5 32q39 0 64.5 -24.5t25.5 -63.5q0 -46 -31.5 -78.5t-77.5 -32.5zM664 865q-39 0 -64.5 25t-25.5 64q0 46 32 78t78 32q39 0 64.5 -24.5t25.5 -63.5q0 -46 -32 -78.5t-78 -32.5zM769 783l-47 -175h-348l-35 -128h318
l-46 -169h-317l-36 -135h352l-47 -176h-549l209 783h546z" />
    <glyph glyph-name="uni0402" unicode="&#x402;" horiz-adv-x="869" 
d="M771 604h-283l-39 -146q93 45 190 45q90 0 144 -65q55 -64 55 -158q0 -152 -91 -252q-90 -101 -238 -101q-62 0 -113 15l46 171q6 -1 30 -1q153 0 153 122q0 38 -28 61t-69 23q-64 0 -125 -31l-76 -287h-198l162 604h-180l48 179h660z" />
    <glyph glyph-name="uni0403" unicode="&#x403;" horiz-adv-x="623" 
d="M554 1048h212l-224 -196h-153zM14 0l210 783h522l-49 -181h-324l-161 -602h-198z" />
    <glyph glyph-name="uni0404" unicode="&#x404;" horiz-adv-x="867" 
d="M466 170q78 0 133 43q54 42 83 99l167 -82q-46 -96 -150 -169q-103 -73 -255 -73q-154 0 -263 92q-107 93 -107 255q-2 126 62.5 234t172.5 169t229 58q166 0 254 -81q75 -67 99 -166l-185 -76q-15 64 -61 103t-125 39q-68 0 -129 -38q-59 -37 -88 -101h284l-43 -161
h-265q10 -67 59.5 -106t127.5 -39z" />
    <glyph glyph-name="uni0405" unicode="&#x405;" horiz-adv-x="695" 
d="M450 229q0 45 -71 71l-66 23q-88 32 -138 85t-50 125q-1 114 94.5 190.5t214.5 72.5q110 0 184.5 -50t95.5 -134l-161 -77q-32 92 -128 92q-41 0 -69.5 -21t-28.5 -49q0 -45 65 -69l66 -24q195 -70 195 -222q0 -114 -88 -184q-86 -70 -233 -70q-124 0 -206 53.5
t-106 148.5l165 77q16 -53 57 -81t99 -28q52 0 80.5 21t28.5 50z" />
    <glyph glyph-name="uni0406" unicode="&#x406;" horiz-adv-x="362" 
d="M421 783l-210 -783h-197l209 783h198z" />
    <glyph glyph-name="uni0407" unicode="&#x407;" horiz-adv-x="362" 
d="M226 865q-40 0 -65 24.5t-25 64.5q0 46 31.5 78t77.5 32q39 0 64.5 -24.5t25.5 -63.5q0 -46 -31.5 -78.5t-77.5 -32.5zM491 865q-39 0 -64.5 25t-25.5 64q0 46 32 78t78 32q39 0 64.5 -24.5t25.5 -63.5q0 -46 -32 -78.5t-78 -32.5zM421 783l-210 -783h-197l209 783h198z
" />
    <glyph glyph-name="uni0408" unicode="&#x408;" horiz-adv-x="625" 
d="M0 157l163 81q9 -29 31 -47t55 -18q37 0 64 25.5t39 71.5l136 513h201l-146 -544q-32 -118 -109.5 -184t-199.5 -66q-87 0 -152 43q-66 44 -82 125z" />
    <glyph glyph-name="uni0409" unicode="&#x409;" horiz-adv-x="1272" 
d="M698 608h-211l-105 -298q-52 -144 -128 -224q-84 -90 -238 -90q-39 0 -59 7l44 169h6q84 0 131 66q40 58 80 165l136 380h588l-73 -276h113q120 0 195 -57q76 -57 76 -153q0 -141 -99 -219q-98 -78 -254 -78h-364zM824 340l-44 -166h141q58 0 93.5 25t35.5 72
q0 32 -24.5 50.5t-64.5 18.5h-137z" />
    <glyph glyph-name="uni040A" unicode="&#x40a;" horiz-adv-x="1235" 
d="M909 783l-77 -287h120q121 0 192 -59t71 -147q0 -95 -49 -162q-92 -128 -296 -128h-369l87 326h-289l-87 -326h-198l209 783h198l-77 -287h290l76 287h199zM788 333l-42 -159h145q124 0 124 93q0 32 -22.5 49t-61.5 17h-143z" />
    <glyph glyph-name="uni040B" unicode="&#x40b;" horiz-adv-x="869" 
d="M767 0h-198l50 185q8 30 8 56q0 77 -90 77q-79 0 -134 -31l-76 -287h-198l162 604h-180l48 179h660l-48 -179h-283l-39 -146q94 45 190 45q89 0 147 -46q59 -45 59 -131q0 -34 -10 -70z" />
    <glyph glyph-name="uni040C" unicode="&#x40c;" horiz-adv-x="763" 
d="M624 1048h212l-224 -196h-153zM213 0h-199l209 783h199l-89 -332h1l315 332h252l-391 -397l191 -386h-221l-167 374z" />
    <glyph glyph-name="uni040E" unicode="&#x40e;" horiz-adv-x="739" 
d="M347 1043l102 19q4 -40 28 -64.5t62 -24.5q40 0 72.5 25.5t44.5 64.5l103 -20q-28 -85 -89 -136t-143 -51q-77 0 -130 48q-51 48 -51 126q0 10 1 13zM667 783h223l-438 -590q-79 -107 -157.5 -155.5t-178.5 -48.5q-108 0 -170 56l121 148q29 -28 71 -28q74 0 144 85
l-149 533h212l80 -334z" />
    <glyph glyph-name="uni040F" unicode="&#x40f;" horiz-adv-x="839" 
d="M446 0l-44 -164h-189l44 164h-243l209 783h198l-161 -602h279l161 602h198l-210 -783h-242z" />
    <glyph glyph-name="uni0410" unicode="&#x410;" horiz-adv-x="818" 
d="M235 144l-90 -144h-213l494 783h225l121 -783h-204l-21 144h-312zM525 311l-36 256l-154 -256h190z" />
    <glyph glyph-name="uni0411" unicode="&#x411;" horiz-adv-x="756" 
d="M797 783l-46 -174h-379l-32 -116h126q120 0 190 -57q72 -57 72 -148q0 -135 -95 -212q-94 -76 -248 -76h-371l209 783h574zM297 332l-42 -158h150q56 0 89.5 23t33.5 69q0 27 -22 46.5t-61 19.5h-148z" />
    <glyph glyph-name="uni0412" unicode="&#x412;" horiz-adv-x="755" 
d="M14 0l209 783h259q79 0 141 -18q63 -15 102 -57t41 -113q0 -76 -49 -129.5t-128 -69.5v-2q57 -17 88 -58t31 -98q0 -106 -91 -172q-90 -66 -264 -66h-339zM370 614l-37 -141h110q54 0 88 21t34 61q0 59 -96 59h-99zM292 317l-40 -147h131q53 0 88 22t35 62q0 63 -98 63
h-116z" />
    <glyph glyph-name="uni0413" unicode="&#x413;" horiz-adv-x="623" 
d="M14 0l210 783h522l-49 -181h-324l-161 -602h-198z" />
    <glyph glyph-name="uni0414" unicode="&#x414;" horiz-adv-x="900" 
d="M753 181h82l-93 -345h-190l44 164h-462l-44 -164h-190l92 341q77 0 147 79q72 82 112 193l121 334h543zM670 608h-166l-65 -181q-29 -82 -65 -140.5t-93 -105.5h274z" />
    <glyph glyph-name="uni0415" unicode="&#x415;" horiz-adv-x="686" 
d="M769 783l-47 -175h-348l-35 -128h318l-46 -169h-317l-36 -135h352l-47 -176h-549l209 783h546z" />
    <glyph glyph-name="uni0416" unicode="&#x416;" horiz-adv-x="1166" 
d="M186 0h-255l392 425l-181 358h204l178 -367l4 1l97 366h199l-97 -367h3l328 367h245l-384 -408l182 -375h-210l-171 380h-3l-102 -380h-198l101 380h-3z" />
    <glyph glyph-name="uni0417" unicode="&#x417;" horiz-adv-x="679" 
d="M430 244q0 68 -87 68h-104l44 166h84q62 0 96.5 22.5t34.5 61.5q0 27 -24 45.5t-62 18.5q-88 0 -146 -78l-138 104q104 144 306 144q122 0 192 -60q71 -59 71 -152q0 -74 -47 -126.5t-124 -70.5v-1q48 -22 75 -62.5t27 -92.5q0 -104 -89 -175q-89 -69 -233 -69
q-104 0 -184 53q-78 52 -102 150l161 76q13 -50 48 -79.5t90 -29.5q45 0 77 25q34 25 34 62z" />
    <glyph glyph-name="uni0418" unicode="&#x418;" horiz-adv-x="862" 
d="M419 783l-127 -472h1l406 472h221l-209 -783h-195l127 474h-2l-405 -474h-222l209 783h196z" />
    <glyph glyph-name="uni0419" unicode="&#x419;" horiz-adv-x="862" 
d="M428 1043l102 19q4 -40 28 -64.5t62 -24.5q40 0 72.5 25.5t44.5 64.5l103 -20q-28 -85 -89 -136t-143 -51q-78 0 -130 48q-51 48 -51 126q0 10 1 13zM419 783l-127 -472h1l406 472h221l-209 -783h-195l127 474h-2l-405 -474h-222l209 783h196z" />
    <glyph glyph-name="uni041A" unicode="&#x41a;" horiz-adv-x="763" 
d="M213 0h-199l209 783h199l-89 -332h1l315 332h252l-391 -397l191 -386h-221l-167 374z" />
    <glyph glyph-name="uni041B" unicode="&#x41b;" horiz-adv-x="884" 
d="M-43 3l44 169h6q63 0 110 42q20 18 40 51q32 55 61 138l136 380h588l-209 -783h-198l163 608h-211l-105 -298q-52 -144 -128 -224q-84 -90 -238 -90q-39 0 -59 7z" />
    <glyph glyph-name="uni041C" unicode="&#x41c;" horiz-adv-x="1055" 
d="M840 495l-319 -495h-119l-65 492h-2l-131 -492h-190l209 783h243l65 -480l309 480h273l-209 -783h-194l132 495h-2z" />
    <glyph glyph-name="uni041D" unicode="&#x41d;" horiz-adv-x="850" 
d="M293 305l-81 -305h-198l210 783h197l-79 -296h289l79 296h198l-209 -783h-198l82 305h-290z" />
    <glyph glyph-name="uni041E" unicode="&#x41e;" horiz-adv-x="912" 
d="M539 796q165 0 268 -100q103 -99 103 -248q0 -127 -64 -233t-170 -167q-106 -60 -229 -60q-154 0 -263 94q-110 95 -110 256q0 191 137 325q136 133 328 133zM279 354q0 -85 52 -133q53 -48 132 -48q99 0 170 78q72 79 72 181q0 76 -50 128q-49 52 -134 52
q-99 0 -171 -79q-71 -79 -71 -179z" />
    <glyph glyph-name="uni041F" unicode="&#x41f;" horiz-adv-x="840" 
d="M374 602l-162 -602h-198l210 783h674l-209 -783h-198l160 602h-277z" />
    <glyph glyph-name="uni0420" unicode="&#x420;" horiz-adv-x="712" 
d="M14 0l210 783h244q118 0 186 -37q107 -57 107 -185q0 -30 -8 -66q-6 -31 -18 -56q-32 -65 -101 -110q-89 -58 -220 -58h-129l-73 -271h-198zM375 610l-45 -172h82q65 0 106 25.5t41 76.5q0 28 -20 46q-25 24 -82 24h-82z" />
    <glyph glyph-name="uni0421" unicode="&#x421;" horiz-adv-x="864" 
d="M680 315l170 -83q-41 -87 -137 -162q-109 -82 -269 -82q-154 0 -263 92q-107 93 -107 255q-2 126 62.5 234t172.5 169t229 58q170 0 255 -82q76 -73 98 -167l-188 -78q-14 59 -57 101q-44 42 -126 42q-100 0 -170 -79q-71 -79 -71 -183q0 -81 50 -129t137 -48
q79 0 132 43q55 43 82 99z" />
    <glyph glyph-name="uni0422" unicode="&#x422;" horiz-adv-x="672" 
d="M168 0l162 604h-221l48 179h638l-46 -179h-221l-161 -604h-199z" />
    <glyph glyph-name="uni0423" unicode="&#x423;" horiz-adv-x="739" 
d="M667 783h223l-438 -590q-79 -107 -157.5 -155.5t-178.5 -48.5q-108 0 -170 56l121 148q29 -28 71 -28q74 0 144 85l-149 533h212l80 -334z" />
    <glyph glyph-name="uni0424" unicode="&#x424;" horiz-adv-x="1053" 
d="M549 -24h-198l22 83q-141 11 -220 88t-79 201q0 168 122 278q121 111 319 111h39l19 71h198l-19 -71q142 -11 223 -86q83 -77 83 -196q0 -178 -125 -288q-125 -108 -315 -108h-47zM276 369q0 -60 39 -93.5t105 -39.5l87 324h-18q-91 0 -152 -51t-61 -140zM854 426
q0 61 -44 96q-44 36 -105 36l-86 -322h24q92 0 151 50q60 50 60 140z" />
    <glyph glyph-name="uni0425" unicode="&#x425;" horiz-adv-x="773" 
d="M167 0h-237l380 410l-165 373h217l95 -229l206 229h236l-358 -387l175 -396h-216l-105 251z" />
    <glyph glyph-name="uni0426" unicode="&#x426;" horiz-adv-x="884" 
d="M818 181l-91 -345h-190l44 164h-567l209 783h198l-161 -602h279l161 602h198l-161 -602h81z" />
    <glyph glyph-name="uni0427" unicode="&#x427;" horiz-adv-x="787" 
d="M636 0h-198l81 301q-123 -53 -219 -53q-89 0 -144 48t-55 134q0 41 16 98l68 255h198l-62 -234q-8 -34 -8 -51q0 -71 76 -71q97 0 177 50l81 306h198z" />
    <glyph glyph-name="uni0428" unicode="&#x428;" horiz-adv-x="1250" 
d="M421 783l-161 -602h246l161 602h197l-160 -602h246l161 602h197l-209 -783h-1085l209 783h198z" />
    <glyph glyph-name="uni0429" unicode="&#x429;" horiz-adv-x="1294" 
d="M1229 181l-92 -345h-190l44 164h-977l209 783h198l-161 -602h246l161 602h197l-160 -602h246l161 602h197l-161 -602h82z" />
    <glyph glyph-name="uni042A" unicode="&#x42a;" horiz-adv-x="845" 
d="M515 783l-74 -276h115q119 0 194 -57q76 -57 76 -153q0 -141 -99 -219q-97 -78 -254 -78h-364l162 609h-160l46 174h358zM397 340l-44 -166h141q58 0 93.5 25t35.5 72q0 32 -24.5 50.5t-64.5 18.5h-137z" />
    <glyph glyph-name="uni042B" unicode="&#x42b;" horiz-adv-x="1146" 
d="M421 783l-73 -276h113q120 0 195 -57t75 -153q0 -141 -98 -219q-97 -78 -255 -78h-364l209 783h198zM1204 783l-209 -783h-198l209 783h198zM303 340l-45 -166h141q59 0 94 25t35 72q0 32 -24 50.5t-64 18.5h-137z" />
    <glyph glyph-name="uni042C" unicode="&#x42c;" horiz-adv-x="750" 
d="M421 783l-73 -276h113q120 0 195 -57t75 -153q0 -141 -98 -219q-97 -78 -255 -78h-364l209 783h198zM303 340l-45 -166h141q59 0 94 25t35 72q0 32 -24 50.5t-64 18.5h-137z" />
    <glyph glyph-name="uni042D" unicode="&#x42d;" horiz-adv-x="864" 
d="M495 796q154 0 259 -93q106 -93 106 -254q2 -126 -62.5 -234t-172.5 -169t-229 -58q-164 0 -255 81q-75 69 -98 166l185 76q15 -64 61 -103t125 -39q71 0 130 40q60 41 89 106h-284l43 161h262q-11 64 -58.5 101t-122.5 37q-79 0 -135 -43q-57 -42 -84 -95l-167 82
q44 90 139 158q112 80 269 80z" />
    <glyph glyph-name="uni042E" unicode="&#x42e;" horiz-adv-x="1239" 
d="M890 796q159 0 253 -97q95 -98 95 -247q0 -93 -36.5 -179t-98.5 -150q-61 -63 -145 -99t-172 -36q-148 0 -246 85t-106 239h-139l-83 -312h-198l209 783h198l-81 -305h117q47 140 166 228q120 90 267 90zM804 173q94 0 161 78q68 80 68 181q0 78 -46 128q-45 52 -124 52
q-92 0 -160 -80q-66 -80 -66 -180q0 -83 46.5 -131t120.5 -48z" />
    <glyph glyph-name="uni042F" unicode="&#x42f;" horiz-adv-x="744" 
d="M187 0h-219l249 312q-102 57 -102 182q0 133 99 211t259 78h329l-209 -783h-197l73 275h-73zM514 443l45 170h-94q-65 0 -103.5 -27.5t-38.5 -72.5q0 -35 27 -52.5t66 -17.5h98z" />
    <glyph glyph-name="uni0430" unicode="&#x430;" horiz-adv-x="689" 
d="M369 0l15 58h-2q-70 -69 -154 -69q-90 0 -142 64t-52 154q0 136 86 237q87 100 208 100q106 0 161 -78h1l19 68h190l-142 -534h-188zM318 157q51 0 90 40q39 41 39 95q0 38 -25.5 61.5t-64.5 23.5q-53 0 -92 -41q-38 -41 -38 -95q0 -38 24.5 -61t66.5 -23z" />
    <glyph glyph-name="uni0431" unicode="&#x431;" horiz-adv-x="688" 
d="M229 442h2q71 81 194 81q96 0 163 -62q67 -61 67 -165q0 -131 -95 -220q-94 -88 -227 -88q-128 0 -199 77q-70 76 -70 205q0 114 38 233q22 67 68.5 126t110.5 100q40 25 89 38.5t137 27.5l158 25v-153l-165 -28q-83 -15 -136 -41q-114 -56 -135 -156zM346 155
q53 0 89 39t36 94q0 42 -26 69.5t-68 27.5q-53 0 -89 -40q-36 -39 -36 -94q0 -42 26 -69t68 -27z" />
    <glyph glyph-name="uni0432" unicode="&#x432;" horiz-adv-x="645" 
d="M-5 0l142 534h292q93 0 143 -34t50 -94q0 -52 -32.5 -87t-89.5 -50v-1q39 -13 60.5 -40.5t21.5 -64.5q0 -78 -64 -120.5t-178 -42.5h-345zM289 401l-20 -77h94q66 0 66 45q0 32 -52 32h-88zM240 219l-22 -83h103q31 0 50.5 12.5t19.5 35.5q0 35 -56 35h-95z" />
    <glyph glyph-name="uni0433" unicode="&#x433;" horiz-adv-x="510" 
d="M-5 0l142 534h429l-42 -158h-239l-100 -376h-190z" />
    <glyph glyph-name="uni0434" unicode="&#x434;" horiz-adv-x="745" 
d="M677 156l-85 -320h-173l44 164h-334l-44 -164h-173l86 319q59 3 97 62q40 64 91 210l38 107h479l-101 -378h75zM417 156l59 221h-127q-22 -62 -34 -88q-36 -85 -95 -133h197z" />
    <glyph glyph-name="uni0435" unicode="&#x435;" horiz-adv-x="632" 
d="M584 219h-369q0 -37 30 -60t71 -23q79 0 128 61l117 -94q-91 -115 -254 -115q-118 0 -195 68q-76 67 -76 180q0 127 97 218q98 92 228 92q110 0 176 -63q67 -63 67 -167q0 -46 -20 -97zM353 401q-36 0 -70 -21.5t-48 -54.5h191q2 10 2 16q0 29 -20.5 44.5t-54.5 15.5z
" />
    <glyph glyph-name="uni0436" unicode="&#x436;" horiz-adv-x="957" 
d="M583 287h3l209 247h224l-248 -282l112 -252h-204l-100 259h-4l-69 -259h-191l68 255h-4l-202 -255h-239l258 296l-111 238h193l110 -251h3l67 251h191z" />
    <glyph glyph-name="uni0437" unicode="&#x437;" horiz-adv-x="557" 
d="M536 396q0 -49 -31.5 -84.5t-82.5 -47.5h-1q68 -32 68 -103q0 -79 -69.5 -126t-187.5 -47q-87 0 -148 38.5t-82 110.5l126 59q12 -32 40 -50.5t63 -18.5q33 0 52.5 12.5t19.5 35.5q0 34 -51 34h-50l33 123h39q75 0 75 43q0 33 -51 33q-73 0 -123 -62l-107 80
q86 120 258 120q97 0 153 -43q57 -42 57 -107z" />
    <glyph glyph-name="uni0438" unicode="&#x438;" horiz-adv-x="665" 
d="M173 0h-178l142 534h185l-68 -256l1 -1l239 257h182l-143 -534h-185l69 262l-1 1z" />
    <glyph glyph-name="uni0439" unicode="&#x439;" horiz-adv-x="665" 
d="M251 793v13l103 19q3 -40 27 -64.5t62 -24.5q41 0 73.5 25t44.5 65l103 -19q-28 -86 -89 -137t-143 -51q-78 0 -130 48q-51 48 -51 126zM173 0h-178l142 534h185l-68 -256l1 -1l239 257h182l-143 -534h-185l69 262l-1 1z" />
    <glyph glyph-name="uni043A" unicode="&#x43a;" horiz-adv-x="656" 
d="M253 254l-68 -254h-190l142 534h191l-64 -239h3l228 239h236l-277 -273l135 -261h-212l-120 254h-4z" />
    <glyph glyph-name="uni043B" unicode="&#x43b;" horiz-adv-x="703" 
d="M-38 0l41 153q44 0 75.5 37t63.5 127l77 217h494l-142 -534h-191l101 376h-134l-47 -127q-35 -97 -102 -169q-76 -84 -192 -84q-33 0 -44 4z" />
    <glyph glyph-name="uni043C" unicode="&#x43c;" horiz-adv-x="846" 
d="M609 305l-204 -305h-100l-40 318h-2l-85 -318h-183l142 534h238l39 -293l197 293h245l-142 -534h-185l82 305h-2z" />
    <glyph glyph-name="uni043D" unicode="&#x43d;" horiz-adv-x="658" 
d="M236 190l-51 -190h-190l142 534h190l-51 -191h152l51 191h190l-143 -534h-190l51 190h-151z" />
    <glyph glyph-name="uni043E" unicode="&#x43e;" horiz-adv-x="654" 
d="M302 -12q-124 0 -195 69q-71 71 -71 179q0 123 92 217q92 93 228 93q125 0 195 -70q72 -70 72 -178q0 -124 -93 -217q-92 -93 -228 -93zM312 157q50 0 88 39q37 38 37 93q0 39 -25.5 63.5t-65.5 24.5q-53 0 -89 -40q-35 -40 -35 -92q0 -39 23.5 -63.5t66.5 -24.5z" />
    <glyph glyph-name="uni043F" unicode="&#x43f;" horiz-adv-x="654" 
d="M433 377h-149l-100 -377h-189l142 534h528l-143 -534h-190z" />
    <glyph glyph-name="uni0440" unicode="&#x440;" horiz-adv-x="688" 
d="M660 327q0 -142 -88 -240q-87 -98 -204 -98q-108 0 -164 83h-2l-89 -336h-189l213 798h191l-15 -55h2q70 65 151 65q78 0 136 -56q58 -55 58 -161zM338 158q53 0 90 40q39 40 39 96q0 38 -24.5 61t-65.5 23q-53 0 -92 -41t-39 -95q0 -38 25.5 -61t66.5 -23z" />
    <glyph glyph-name="uni0441" unicode="&#x441;" horiz-adv-x="617" 
d="M313 157q35 0 64 18t44 47l153 -77q-38 -73 -108 -115t-162 -42q-124 0 -195 67q-72 67 -72 178q0 128 92 220q93 93 229 93q99 0 164.5 -46.5t86.5 -121.5l-169 -68q-19 67 -93 67q-54 0 -89 -41t-35 -92q0 -39 24 -63t66 -24z" />
    <glyph glyph-name="uni0442" unicode="&#x442;" horiz-adv-x="552" 
d="M111 0l100 376h-162l42 158h518l-42 -158h-163l-100 -376h-193z" />
    <glyph glyph-name="uni0443" unicode="&#x443;" horiz-adv-x="625" 
d="M152 -1l-70 535h187l33 -317h1l188 317h201l-506 -797h-199z" />
    <glyph glyph-name="uni0444" unicode="&#x444;" horiz-adv-x="948" 
d="M436 -244h-192l73 274q-56 -38 -123 -38q-80 0 -120 60q-40 59 -40 149q0 46 11 92.5t34.5 91.5t56.5 79.5t82 56t106 21.5q71 0 117 -46l83 309h192l-83 -309q59 44 125 44q80 0 120 -61q41 -62 41 -150q0 -44 -11 -90.5t-34.5 -91.5t-56.5 -80t-81.5 -56.5
t-104.5 -21.5q-73 0 -122 43zM229 234q0 -78 69 -78q29 0 56 12l52 195q-19 16 -57 16q-55 0 -88 -43q-32 -44 -32 -102zM724 295q0 80 -69 80q-30 0 -57 -13l-52 -194q19 -16 58 -16q56 0 87 42q33 44 33 101z" />
    <glyph glyph-name="uni0445" unicode="&#x445;" horiz-adv-x="629" 
d="M167 0h-228l272 276l-136 258h209l61 -139l124 139h223l-265 -270l136 -264h-206l-64 141z" />
    <glyph glyph-name="uni0446" unicode="&#x446;" horiz-adv-x="706" 
d="M639 156l-86 -320h-173l44 164h-429l142 534h190l-101 -378h148l101 378h190l-102 -378h76z" />
    <glyph glyph-name="uni0447" unicode="&#x447;" horiz-adv-x="620" 
d="M489 0h-191l44 163q-62 -24 -143 -24q-66 0 -109.5 38t-43.5 105q0 25 10 58l51 194h192l-43 -161q-4 -13 -4 -33t12.5 -31.5t31.5 -11.5q48 0 88 22l57 215h190z" />
    <glyph glyph-name="uni0448" unicode="&#x448;" horiz-adv-x="972" 
d="M327 534l-100 -378h137l101 378h190l-101 -378h137l101 378h191l-143 -534h-845l142 534h190z" />
    <glyph glyph-name="uni0449" unicode="&#x449;" horiz-adv-x="1024" 
d="M957 156l-85 -320h-174l44 164h-747l142 534h190l-100 -378h137l101 378h190l-101 -378h137l101 378h191l-101 -378h75z" />
    <glyph glyph-name="uni044A" unicode="&#x44a;" horiz-adv-x="711" 
d="M412 534l-39 -149h83q92 0 157 -45q65 -44 65 -115q0 -108 -77 -167q-76 -58 -191 -58h-330l101 379h-132l41 155h322zM338 252l-30 -111h94q38 0 62 16.5t24 48.5q0 20 -17 33t-42 13h-91z" />
    <glyph glyph-name="uni044B" unicode="&#x44b;" horiz-adv-x="944" 
d="M137 534h190l-39 -149h82q93 0 158 -45q65 -44 65 -115q0 -108 -77 -167q-76 -58 -191 -58h-330zM764 534h191l-143 -534h-191zM252 252l-29 -111h94q38 0 62 16.5t24 48.5q0 21 -16.5 33.5t-42.5 12.5h-92z" />
    <glyph glyph-name="uni044C" unicode="&#x44c;" horiz-adv-x="626" 
d="M137 534h190l-39 -149h82q93 0 158 -45q65 -44 65 -115q0 -108 -77 -167q-76 -58 -191 -58h-330zM252 252l-29 -111h94q38 0 62 16.5t24 48.5q0 21 -16.5 33.5t-42.5 12.5h-92z" />
    <glyph glyph-name="uni044D" unicode="&#x44d;" horiz-adv-x="616" 
d="M312 546q122 0 194 -69q73 -69 73 -179q0 -125 -93 -218q-94 -92 -229 -92q-96 0 -162 45.5t-87 118.5l161 65q24 -69 99 -69q38 0 69 19t47 52h-142l25 98h131q-16 69 -95 69q-34 0 -66 -19t-48 -47l-145 73q39 70 110.5 111.5t157.5 41.5z" />
    <glyph glyph-name="uni044E" unicode="&#x44e;" horiz-adv-x="929" 
d="M647 546q113 0 181 -68t68 -179q0 -130 -88 -221q-88 -90 -215 -90q-103 0 -174 55q-72 55 -85 149h-97l-51 -192h-191l142 534h191l-51 -193h75q33 91 114 148t181 57zM602 157q46 0 77 42q32 44 32 91q0 40 -21 64t-59 24q-49 0 -80 -40q-31 -38 -31 -89q0 -40 23 -66
t59 -26z" />
    <glyph glyph-name="uni044F" unicode="&#x44f;" horiz-adv-x="652" 
d="M309 160l-133 -160h-217l187 202q-36 18 -59 52.5t-23 72.5q0 54 23 95.5t62 65t83.5 35t93.5 11.5h337l-143 -534h-188l43 160h-66zM410 289l27 102h-100q-39 0 -61.5 -15.5t-22.5 -44.5q0 -42 58 -42h99z" />
    <glyph glyph-name="uni0451" unicode="&#x451;" horiz-adv-x="632" 
d="M255 616q-39 0 -64 25t-25 64q0 46 31.5 78t77.5 32q39 0 64.5 -24.5t25.5 -63.5q0 -47 -32 -79t-78 -32zM515 616q-39 0 -64 24.5t-25 64.5q0 46 31.5 78t77.5 32q39 0 64.5 -24.5t25.5 -63.5q0 -47 -32 -79t-78 -32zM584 219h-369q0 -37 30 -60t71 -23q79 0 128 61
l117 -94q-91 -115 -254 -115q-118 0 -195 68q-76 67 -76 180q0 127 97 218q98 92 228 92q110 0 176 -63q67 -63 67 -167q0 -46 -20 -97zM353 401q-36 0 -70 -21.5t-48 -54.5h191q2 10 2 16q0 29 -20.5 44.5t-54.5 15.5z" />
    <glyph glyph-name="uni0452" unicode="&#x452;" horiz-adv-x="652" 
d="M416 314q0 57 -57 57q-75 0 -98 -87l-76 -284h-190l162 608h-73l34 127h72l22 80h189l-22 -80h154l-33 -127h-154l-35 -133h1q71 70 154 70q73 0 113 -43.5t40 -114.5q0 -39 -15 -98l-95 -357q-27 -100 -87.5 -149.5t-160.5 -49.5q-20 0 -57 8q-33 7 -52 20l38 143
q22 -12 48 -12q72 0 88 63l86 326q4 13 4 33z" />
    <glyph glyph-name="uni0453" unicode="&#x453;" horiz-adv-x="510" 
d="M444 819h212l-223 -196h-154zM-5 0l142 534h429l-42 -158h-239l-100 -376h-190z" />
    <glyph glyph-name="uni0454" unicode="&#x454;" horiz-adv-x="618" 
d="M315 148q35 0 66.5 18.5t47.5 47.5l145 -73q-39 -72 -109 -112.5t-159 -40.5q-123 0 -195 66q-72 68 -72 178q0 130 93 221q93 93 229 93q96 0 162 -45.5t87 -118.5l-161 -65q-24 69 -99 69q-38 0 -68.5 -19t-46.5 -50h142l-25 -98h-132q6 -33 31 -52t64 -19z" />
    <glyph glyph-name="uni0455" unicode="&#x455;" horiz-adv-x="536" 
d="M307 547q83 0 143 -37.5t84 -102.5l-124 -63q-10 30 -40 50t-66 20q-19 0 -33.5 -10t-14.5 -25q0 -21 35 -33l40 -14q73 -25 109.5 -63t36.5 -96q0 -84 -70 -135q-71 -50 -171 -50q-89 0 -153 43t-86 118l127 59q9 -36 40 -61t74 -25q24 0 40 10t16 27q0 25 -30 35
l-37 15q-76 30 -104 57q-44 39 -44 97q0 82 66 133q67 51 162 51z" />
    <glyph glyph-name="uni0456" unicode="&#x456;" horiz-adv-x="318" 
d="M271 606q-43 0 -71 27.5t-28 70.5q0 51 35 86.5t86 35.5q43 0 71.5 -27.5t28.5 -70.5q0 -51 -36 -87q-35 -35 -86 -35zM137 534h192l-142 -534h-192z" />
    <glyph glyph-name="uni0457" unicode="&#x457;" horiz-adv-x="320" 
d="M128 616q-39 0 -64 24.5t-25 64.5q0 46 31 78t77 32q40 0 65.5 -24.5t25.5 -63.5q0 -46 -32 -78.5t-78 -32.5zM384 616q-39 0 -64.5 25t-25.5 64q0 46 31.5 78t77.5 32q39 0 65 -24.5t26 -63.5q0 -46 -32 -78.5t-78 -32.5zM137 534h194l-143 -534h-193z" />
    <glyph glyph-name="uni0458" unicode="&#x458;" horiz-adv-x="326" 
d="M280 606q-43 0 -71 27.5t-28 70.5q0 49 35 86q34 36 85 36q44 0 72 -27.5t28 -70.5q0 -51 -35 -86.5t-86 -35.5zM145 534h192l-161 -602q-27 -100 -87.5 -149.5t-160.5 -49.5q-19 0 -56 8q-34 7 -53 20l38 143q23 -12 48 -12q69 0 86 63z" />
    <glyph glyph-name="uni0459" unicode="&#x459;" horiz-adv-x="1012" 
d="M481 376h-134l-47 -127q-35 -97 -102 -169q-76 -84 -192 -84q-33 0 -44 4l41 153q44 0 75.5 37t63.5 127l77 217h494l-39 -149h82q94 0 158 -45q65 -44 65 -115q0 -109 -77.5 -167t-191.5 -58h-329zM639 252l-31 -111h95q39 0 63 16.5t24 48.5q0 21 -17.5 33.5
t-42.5 12.5h-91z" />
    <glyph glyph-name="uni045A" unicode="&#x45a;" horiz-adv-x="969" 
d="M935 220q0 -104 -75 -163q-75 -57 -194 -57h-330l60 225h-151l-60 -225h-190l142 534h190l-42 -158h151l43 158h190l-43 -158h100q95 0 152 -43t57 -113zM745 202q0 19 -17 31.5t-46 12.5h-90l-28 -105h93q88 0 88 61z" />
    <glyph glyph-name="uni045B" unicode="&#x45b;" horiz-adv-x="651" 
d="M466 545q73 0 113 -43.5t40 -114.5q0 -39 -15 -98l-78 -289h-190l75 281q5 20 5 33q0 57 -57 57q-75 0 -98 -87l-76 -284h-190l162 608h-73l34 127h72l22 80h189l-22 -80h154l-33 -127h-154l-35 -133h1q71 70 154 70z" />
    <glyph glyph-name="uni045C" unicode="&#x45c;" horiz-adv-x="656" 
d="M502 819h212l-223 -196h-154zM253 254l-68 -254h-190l142 534h191l-64 -239h3l228 239h236l-277 -273l135 -261h-212l-120 254h-4z" />
    <glyph glyph-name="uni045E" unicode="&#x45e;" horiz-adv-x="625" 
d="M182 793v13l102 19q4 -40 28 -64.5t62 -24.5q41 0 73.5 25.5t43.5 64.5l103 -19q-26 -84 -87 -136q-59 -52 -144 -52q-77 0 -130 48q-51 48 -51 126zM302 217h1l188 317h201l-506 -797h-199l165 262l-70 535h187z" />
    <glyph glyph-name="uni045F" unicode="&#x45f;" horiz-adv-x="654" 
d="M345 0l-44 -164h-173l43 164h-176l142 534h190l-101 -378h148l101 378h190l-143 -534h-177z" />
    <glyph glyph-name="uni0490" unicode="&#x490;" horiz-adv-x="623" 
d="M14 0l209 783h332l45 167h190l-93 -348h-324l-161 -602h-198z" />
    <glyph glyph-name="uni0491" unicode="&#x491;" horiz-adv-x="510" 
d="M285 376l-100 -376h-190l142 534h257l44 169h174l-88 -327h-239z" />
    <glyph glyph-name="uni0496" unicode="&#x496;" horiz-adv-x="1199" 
d="M915 0h-24l-171 380h-3l-102 -380h-198l101 380h-3l-329 -380h-255l392 425l-181 358h204l178 -367l4 1l97 366h199l-97 -367h3l328 367h245l-384 -408l94 -194h139l-91 -345h-190z" />
    <glyph glyph-name="uni0497" unicode="&#x497;" horiz-adv-x="984" 
d="M712 0h-33l-100 259h-4l-69 -259h-191l68 255h-4l-202 -255h-239l258 296l-111 238h193l110 -251h3l67 251h191l-66 -247h3l209 247h224l-248 -282l43 -96h113l-86 -320h-173z" />
    <glyph glyph-name="uni0498" unicode="&#x498;" horiz-adv-x="679" 
d="M697 584q0 -74 -47 -126.5t-124 -70.5v-1q48 -22 75 -62.5t27 -92.5q0 -89 -65 -154q-63 -63 -175 -83l-42 -158h-190l45 166q-69 21 -116 69.5t-65 118.5l161 76q13 -50 48 -79.5t90 -29.5q45 0 77 25q34 25 34 62q0 68 -87 68h-104l44 166h84q62 0 96.5 22.5t34.5 61.5
q0 27 -24 45.5t-62 18.5q-88 0 -146 -78l-138 104q104 144 306 144q122 0 192 -60q71 -59 71 -152z" />
    <glyph glyph-name="uni0499" unicode="&#x499;" horiz-adv-x="554" 
d="M533 396q0 -49 -31.5 -84.5t-82.5 -47.5h-1q68 -32 68 -103q0 -64 -46 -107.5t-128 -58.5l-43 -159h-171l43 164q-110 31 -142 137l126 59q12 -32 40 -50.5t63 -18.5q33 0 52.5 12.5t19.5 35.5q0 34 -51 34h-50l33 123h39q75 0 75 43q0 33 -51 33q-73 0 -123 -62l-107 80
q85 120 258 120q97 0 153 -43q57 -42 57 -107z" />
    <glyph glyph-name="uni049A" unicode="&#x49a;" horiz-adv-x="798" 
d="M515 0h-35l-167 374l-100 -374h-199l209 783h199l-89 -332h1l315 332h252l-391 -397l102 -205h140l-91 -345h-190z" />
    <glyph glyph-name="uni049B" unicode="&#x49b;" horiz-adv-x="684" 
d="M418 0h-41l-120 254h-4l-68 -254h-190l142 534h191l-64 -239h3l228 239h236l-277 -273l54 -105h125l-86 -320h-173z" />
    <glyph glyph-name="uni04A2" unicode="&#x4a2;" horiz-adv-x="894" 
d="M591 0h-90l82 305h-290l-81 -305h-198l210 783h197l-79 -296h289l79 296h198l-161 -602h82l-92 -345h-190z" />
    <glyph glyph-name="uni04A3" unicode="&#x4a3;" horiz-adv-x="710" 
d="M429 0h-93l51 190h-151l-51 -190h-190l142 534h190l-51 -191h152l51 191h190l-101 -378h76l-86 -320h-173z" />
    <glyph glyph-name="uni04AA" unicode="&#x4aa;" horiz-adv-x="864" 
d="M466 173q79 0 132 43q55 43 82 99l170 -83q-38 -80 -118 -147q-78 -66 -195 -89l-42 -160h-190l43 162q-122 26 -198 114t-76 223q-2 126 62.5 234t172.5 169t229 58q170 0 255 -82q76 -73 98 -167l-188 -78q-14 59 -57 101q-44 42 -126 42q-100 0 -170 -79
q-71 -79 -71 -183q0 -81 50 -129t137 -48z" />
    <glyph glyph-name="uni04AB" unicode="&#x4ab;" horiz-adv-x="617" 
d="M313 157q35 0 64 18t44 47l153 -77q-60 -115 -186 -147l-44 -162h-173l43 163q-83 22 -130 83.5t-47 150.5q0 128 92 220q93 93 229 93q99 0 164.5 -46.5t86.5 -121.5l-169 -68q-19 67 -93 67q-54 0 -89 -41t-35 -92q0 -39 24 -63t66 -24z" />
    <glyph glyph-name="uni04AC" unicode="&#x4ac;" horiz-adv-x="678" 
d="M259 0h-91l162 604h-221l48 179h638l-46 -179h-221l-112 -423h81l-92 -345h-190z" />
    <glyph glyph-name="uni04AD" unicode="&#x4ad;" horiz-adv-x="558" 
d="M206 0h-95l100 376h-162l42 158h518l-42 -158h-163l-59 -220h75l-85 -320h-173z" />
    <glyph glyph-name="uni04B2" unicode="&#x4b2;" horiz-adv-x="807" 
d="M527 0h-27l-105 251l-228 -251h-237l380 410l-165 373h217l95 -229l206 229h236l-358 -387l95 -215h129l-92 -345h-190z" />
    <glyph glyph-name="uni04B3" unicode="&#x4b3;" horiz-adv-x="661" 
d="M393 0h-36l-64 141l-126 -141h-228l272 276l-136 258h209l61 -139l124 139h223l-265 -270l55 -108h125l-85 -320h-173z" />
    <glyph glyph-name="uni04B6" unicode="&#x4b6;" horiz-adv-x="831" 
d="M528 0h-90l81 301q-123 -53 -219 -53q-89 0 -144 48t-55 134q0 41 16 98l68 255h198l-62 -234q-8 -34 -8 -51q0 -71 76 -71q97 0 177 50l81 306h198l-160 -602h81l-92 -345h-190z" />
    <glyph glyph-name="uni04B7" unicode="&#x4b7;" horiz-adv-x="673" 
d="M391 0h-93l44 163q-62 -24 -143 -24q-66 0 -109.5 38t-43.5 105q0 25 10 58l51 194h192l-43 -161q-4 -13 -4 -33t12.5 -31.5t31.5 -11.5q48 0 88 22l57 215h190l-101 -378h75l-85 -320h-173z" />
    <glyph glyph-name="uni04C0" unicode="&#x4c0;" horiz-adv-x="362" 
d="M421 783l-210 -783h-197l209 783h198z" />
    <glyph glyph-name="uni04C1" unicode="&#x4c1;" horiz-adv-x="1166" 
d="M565 1030v13l102 19q4 -40 28 -64.5t62 -24.5q41 0 73.5 25t44.5 65l103 -20q-28 -85 -89 -136t-143 -51q-78 0 -130 48q-51 48 -51 126zM186 0h-255l392 425l-181 358h204l178 -367l4 1l97 366h199l-97 -367h3l328 367h245l-384 -408l182 -375h-210l-171 380h-3
l-102 -380h-198l101 380h-3z" />
    <glyph glyph-name="uni04C2" unicode="&#x4c2;" horiz-adv-x="957" 
d="M391 806l102 19q4 -40 28 -64.5t62 -24.5q40 0 72.5 25.5t44.5 64.5l103 -19q-28 -86 -89 -137t-143 -51q-77 0 -130 48q-51 48 -51 126q0 10 1 13zM583 287h3l209 247h224l-248 -282l112 -252h-204l-100 259h-4l-69 -259h-191l68 255h-4l-202 -255h-239l258 296
l-111 238h193l110 -251h3l67 251h191z" />
    <glyph glyph-name="uni04CF" unicode="&#x4cf;" horiz-adv-x="318" 
d="M137 534h192l-143 -534h-191z" />
    <glyph glyph-name="uni04D0" unicode="&#x4d0;" horiz-adv-x="818" 
d="M378 1030v13l102 19q4 -40 28 -64.5t62 -24.5q41 0 73.5 25.5t43.5 64.5l104 -20q-28 -85 -89 -136t-143 -51q-77 0 -130 48q-51 48 -51 126zM235 144l-90 -144h-213l494 783h225l121 -783h-204l-21 144h-312zM525 311l-36 256l-154 -256h190z" />
    <glyph glyph-name="uni04D1" unicode="&#x4d1;" horiz-adv-x="689" 
d="M237 806l102 19q4 -40 28 -64.5t62 -24.5q40 0 72.5 25.5t44.5 64.5l103 -19q-28 -86 -89 -137t-143 -51q-77 0 -130 48q-51 48 -51 126q0 10 1 13zM369 0l15 58h-2q-70 -69 -154 -69q-90 0 -142 64t-52 154q0 136 86 237q87 100 208 100q106 0 161 -78h1l19 68h190
l-142 -534h-188zM318 157q51 0 90 40q39 41 39 95q0 38 -25.5 61.5t-64.5 23.5q-53 0 -92 -41q-38 -41 -38 -95q0 -38 24.5 -61t66.5 -23z" />
    <glyph glyph-name="uni04D2" unicode="&#x4d2;" horiz-adv-x="818" 
d="M422 865q-39 0 -64.5 25t-25.5 64q0 46 32 78t78 32q39 0 64.5 -24.5t25.5 -63.5q0 -46 -32 -78.5t-78 -32.5zM692 865q-40 0 -65 24.5t-25 64.5q0 46 31.5 78t77.5 32q39 0 64.5 -24.5t25.5 -63.5q0 -46 -31.5 -78.5t-77.5 -32.5zM235 144l-90 -144h-213l494 783h225
l121 -783h-204l-21 144h-312zM525 311l-36 256l-154 -256h190z" />
    <glyph glyph-name="uni04D3" unicode="&#x4d3;" horiz-adv-x="689" 
d="M317 616q-39 0 -64 25t-25 64q0 46 31.5 78t77.5 32q39 0 64.5 -24.5t25.5 -63.5q0 -47 -32 -79t-78 -32zM577 616q-39 0 -64 24.5t-25 64.5q0 46 31.5 78t77.5 32q39 0 64.5 -24.5t25.5 -63.5q0 -47 -32 -79t-78 -32zM369 0l15 58h-2q-70 -69 -154 -69q-90 0 -142 64
t-52 154q0 136 86 237q87 100 208 100q106 0 161 -78h1l19 68h190l-142 -534h-188zM318 157q51 0 90 40q39 41 39 95q0 38 -25.5 61.5t-64.5 23.5q-53 0 -92 -41q-38 -41 -38 -95q0 -38 24.5 -61t66.5 -23z" />
    <glyph glyph-name="uni04D4" unicode="&#x4d4;" horiz-adv-x="1093" 
d="M-75 0l573 783h679l-47 -175h-346l-34 -128h314l-45 -169h-314l-37 -135h350l-47 -176h-541l33 124h-223l-89 -124h-226zM356 291h152l86 322h-10z" />
    <glyph glyph-name="uni04D5" unicode="&#x4d5;" horiz-adv-x="944" 
d="M173 -12h-4q-65 0 -112 38t-47 108q0 86 70 132q71 47 163 47h90q22 0 38 13t16 33q0 21 -17 31.5t-42 10.5q-82 0 -129 -66l-113 84q87 127 268 127q97 0 157 -51q79 51 162 51q101 0 171 -60q72 -58 72 -159q0 -55 -22 -108h-367q0 -37 30 -60t71 -23q79 0 128 61
l117 -94q-91 -115 -254 -115q-139 0 -216 90q-50 -50 -102 -70t-128 -20zM665 401q-36 0 -70 -21.5t-48 -54.5h192q2 10 2 16q0 29 -21 44.5t-55 15.5zM248 122q35 0 61 19t35 53l6 22h-63q-35 0 -58.5 -15t-23.5 -38q0 -19 12 -30t31 -11z" />
    <glyph glyph-name="uni04D6" unicode="&#x4d6;" horiz-adv-x="686" 
d="M340 1030v13l102 19q4 -40 28 -64.5t62 -24.5q41 0 73.5 25.5t43.5 64.5l103 -20q-27 -85 -88 -136t-143 -51q-77 0 -130 48q-51 48 -51 126zM769 783l-47 -175h-348l-35 -128h318l-46 -169h-317l-36 -135h352l-47 -176h-549l209 783h546z" />
    <glyph glyph-name="uni04D7" unicode="&#x4d7;" horiz-adv-x="632" 
d="M216 793v13l102 19q4 -40 28 -64.5t62 -24.5q41 0 73.5 25.5t43.5 64.5l103 -19q-26 -84 -87 -136q-59 -52 -144 -52q-77 0 -130 48q-51 48 -51 126zM584 219h-369q0 -37 30 -60t71 -23q79 0 128 61l117 -94q-91 -115 -254 -115q-118 0 -195 68q-76 67 -76 180
q0 127 97 218q98 92 228 92q110 0 176 -63q67 -63 67 -167q0 -46 -20 -97zM353 401q-36 0 -70 -21.5t-48 -54.5h191q2 10 2 16q0 29 -20.5 44.5t-54.5 15.5z" />
    <glyph glyph-name="uni04DC" unicode="&#x4dc;" horiz-adv-x="1166" 
d="M628 865q-39 0 -64.5 25t-25.5 64q0 46 31.5 78t77.5 32q39 0 65 -24.5t26 -63.5q0 -46 -32 -78.5t-78 -32.5zM894 865q-40 0 -65 24.5t-25 64.5q0 46 31.5 78t77.5 32q39 0 64.5 -24.5t25.5 -63.5q0 -46 -31.5 -78.5t-77.5 -32.5zM186 0h-255l392 425l-181 358h204
l178 -367l4 1l97 366h199l-97 -367h3l328 367h245l-384 -408l182 -375h-210l-171 380h-3l-102 -380h-198l101 380h-3z" />
    <glyph glyph-name="uni04DD" unicode="&#x4dd;" horiz-adv-x="957" 
d="M455 616q-39 0 -64.5 25t-25.5 64q0 46 31.5 78t77.5 32q39 0 64.5 -24.5t25.5 -63.5q0 -47 -31.5 -79t-77.5 -32zM714 616q-39 0 -64 25t-25 64q0 46 31.5 78t77.5 32q39 0 65 -24.5t26 -63.5q0 -47 -33 -79q-32 -32 -78 -32zM583 287h3l209 247h224l-248 -282l112 -252
h-204l-100 259h-4l-69 -259h-191l68 255h-4l-202 -255h-239l258 296l-111 238h193l110 -251h3l67 251h191z" />
    <glyph glyph-name="uni04DE" unicode="&#x4de;" horiz-adv-x="679" 
d="M361 865q-39 0 -64.5 25t-25.5 64q0 46 32 78t78 32q39 0 64.5 -24.5t25.5 -63.5q0 -46 -32 -78.5t-78 -32.5zM631 865q-40 0 -65 24.5t-25 64.5q0 46 31.5 78t77.5 32q39 0 64.5 -24.5t25.5 -63.5q0 -46 -31.5 -78.5t-77.5 -32.5zM430 244q0 68 -87 68h-104l44 166h84
q62 0 96.5 22.5t34.5 61.5q0 27 -24 45.5t-62 18.5q-88 0 -146 -78l-138 104q104 144 306 144q122 0 192 -60q71 -59 71 -152q0 -74 -47 -126.5t-124 -70.5v-1q48 -22 75 -62.5t27 -92.5q0 -104 -89 -175q-89 -69 -233 -69q-104 0 -184 53q-78 52 -102 150l161 76
q13 -50 48 -79.5t90 -29.5q45 0 77 25q34 25 34 62z" />
    <glyph glyph-name="uni04DF" unicode="&#x4df;" horiz-adv-x="557" 
d="M360 727q0 -47 -32 -79t-78 -32q-39 0 -64.5 25t-25.5 64q0 46 32 78t78 32q39 0 64.5 -24.5t25.5 -63.5zM620 727q0 -47 -32 -79t-78 -32q-39 0 -64 24.5t-25 64.5q0 46 31.5 78t77.5 32q39 0 64.5 -24.5t25.5 -63.5zM536 396q0 -49 -31.5 -84.5t-82.5 -47.5h-1
q68 -32 68 -103q0 -79 -69.5 -126t-187.5 -47q-87 0 -148 38.5t-82 110.5l126 59q12 -32 40 -50.5t63 -18.5q33 0 52.5 12.5t19.5 35.5q0 34 -51 34h-50l33 123h39q75 0 75 43q0 33 -51 33q-73 0 -123 -62l-107 80q86 120 258 120q97 0 153 -43q57 -42 57 -107z" />
    <glyph glyph-name="uni04E2" unicode="&#x4e2;" horiz-adv-x="862" 
d="M822 1004l-36 -136h-386l37 136h385zM419 783l-127 -472h1l406 472h221l-209 -783h-195l127 474h-2l-405 -474h-222l209 783h196z" />
    <glyph glyph-name="uni04E3" unicode="&#x4e3;" horiz-adv-x="665" 
d="M657 765l-36 -137h-386l36 137h386zM173 0h-178l142 534h185l-68 -256l1 -1l239 257h182l-143 -534h-185l69 262l-1 1z" />
    <glyph glyph-name="uni04E4" unicode="&#x4e4;" horiz-adv-x="862" 
d="M469 865q-39 0 -64.5 25t-25.5 64q0 46 32 78t78 32q39 0 64.5 -24.5t25.5 -63.5q0 -46 -32 -78.5t-78 -32.5zM739 865q-40 0 -65 24.5t-25 64.5q0 46 31.5 78t77.5 32q39 0 64.5 -24.5t25.5 -63.5q0 -46 -31.5 -78.5t-77.5 -32.5zM419 783l-127 -472h1l406 472h221
l-209 -783h-195l127 474h-2l-405 -474h-222l209 783h196z" />
    <glyph glyph-name="uni04E5" unicode="&#x4e5;" horiz-adv-x="665" 
d="M309 616q-39 0 -64.5 25t-25.5 64q0 46 32 78t78 32q39 0 64.5 -24.5t25.5 -63.5q0 -47 -32 -79t-78 -32zM569 616q-39 0 -64.5 25t-25.5 64q0 46 31.5 78t77.5 32q40 0 65.5 -24.5t25.5 -63.5q0 -46 -32 -78.5t-78 -32.5zM173 0h-178l142 534h185l-68 -256l1 -1l239 257
h182l-143 -534h-185l69 262l-1 1z" />
    <glyph glyph-name="uni04E6" unicode="&#x4e6;" horiz-adv-x="912" 
d="M437 865q-39 0 -64.5 25t-25.5 64q0 46 32 78t78 32q39 0 64.5 -24.5t25.5 -63.5q0 -46 -32 -78.5t-78 -32.5zM707 865q-40 0 -65 24.5t-25 64.5q0 46 31.5 78t77.5 32q39 0 64.5 -24.5t25.5 -63.5q0 -46 -31.5 -78.5t-77.5 -32.5zM539 796q165 0 268 -100
q103 -99 103 -248q0 -127 -64 -233t-170 -167q-106 -60 -229 -60q-154 0 -263 94q-110 95 -110 256q0 191 137 325q136 133 328 133zM279 354q0 -85 52 -133q53 -48 132 -48q99 0 170 78q72 79 72 181q0 76 -50 128q-49 52 -134 52q-99 0 -171 -79q-71 -79 -71 -179z" />
    <glyph glyph-name="uni04E7" unicode="&#x4e7;" horiz-adv-x="654" 
d="M271 616q-39 0 -64 25t-25 64q0 46 31.5 78t77.5 32q39 0 64.5 -24.5t25.5 -63.5q0 -47 -32 -79t-78 -32zM531 616q-39 0 -64 24.5t-25 64.5q0 46 31.5 78t77.5 32q39 0 65 -24.5t26 -63.5q0 -47 -32 -79t-79 -32zM302 -12q-124 0 -195 69q-71 71 -71 179q0 123 92 217
q92 93 228 93q125 0 195 -70q72 -70 72 -178q0 -124 -93 -217q-92 -93 -228 -93zM312 157q50 0 88 39q37 38 37 93q0 39 -25.5 63.5t-65.5 24.5q-53 0 -89 -40q-35 -40 -35 -92q0 -39 23.5 -63.5t66.5 -24.5z" />
    <glyph glyph-name="uni04E8" unicode="&#x4e8;" horiz-adv-x="912" 
d="M539 796q165 0 268 -100q103 -99 103 -248q0 -127 -64 -233t-170 -167q-106 -60 -229 -60q-154 0 -263 94q-110 95 -110 256q0 191 137 325q136 133 328 133zM521 612q-66 0 -127 -41t-86 -99h394q-11 62 -60.5 101t-120.5 39zM679 318h-398q11 -68 61 -106.5t121 -38.5
q70 0 129 41q60 42 87 104z" />
    <glyph glyph-name="uni04E9" unicode="&#x4e9;" horiz-adv-x="654" 
d="M302 -12q-124 0 -195 69q-71 71 -71 179q0 123 92 217q92 93 228 93q125 0 195 -70q72 -70 72 -178q0 -124 -93 -217q-92 -93 -228 -93zM222 315h231q-7 37 -35 59t-69 22t-76 -22.5t-51 -58.5zM437 220h-232q6 -37 33.5 -59.5t70.5 -22.5q42 0 77 23t51 59z" />
    <glyph glyph-name="uni04EA" unicode="&#x4ea;" horiz-adv-x="912" 
d="M437 865q-39 0 -64.5 25t-25.5 64q0 46 32 78t78 32q39 0 64.5 -24.5t25.5 -63.5q0 -46 -32 -78.5t-78 -32.5zM707 865q-40 0 -65 24.5t-25 64.5q0 46 31.5 78t77.5 32q39 0 64.5 -24.5t25.5 -63.5q0 -46 -31.5 -78.5t-77.5 -32.5zM539 796q165 0 268 -100
q103 -99 103 -248q0 -127 -64 -233t-170 -167q-106 -60 -229 -60q-154 0 -263 94q-110 95 -110 256q0 191 137 325q136 133 328 133zM521 612q-66 0 -127 -41t-86 -99h394q-11 62 -60.5 101t-120.5 39zM679 318h-398q11 -68 61 -106.5t121 -38.5q70 0 129 41q60 42 87 104z
" />
    <glyph glyph-name="uni04EB" unicode="&#x4eb;" horiz-adv-x="654" 
d="M271 616q-39 0 -64 25t-25 64q0 46 31.5 78t77.5 32q39 0 64.5 -24.5t25.5 -63.5q0 -47 -32 -79t-78 -32zM531 616q-39 0 -64 24.5t-25 64.5q0 46 31.5 78t77.5 32q39 0 65 -24.5t26 -63.5q0 -47 -32 -79t-79 -32zM302 -12q-124 0 -195 69q-71 71 -71 179q0 123 92 217
q92 93 228 93q125 0 195 -70q72 -70 72 -178q0 -124 -93 -217q-92 -93 -228 -93zM222 315h231q-7 37 -35 59t-69 22t-76 -22.5t-51 -58.5zM437 220h-232q6 -37 33.5 -59.5t70.5 -22.5q42 0 77 23t51 59z" />
    <glyph glyph-name="uni04EC" unicode="&#x4ec;" horiz-adv-x="864" 
d="M283 965q0 42 28 70.5t71 28.5q42 0 70.5 -28.5t28.5 -70.5q0 -43 -28 -71.5t-71 -28.5t-71 28.5t-28 71.5zM572 965q0 42 28 70.5t71 28.5t71.5 -28.5t28.5 -70.5q0 -43 -28.5 -71.5t-71.5 -28.5t-71 28.5t-28 71.5zM495 796q154 0 259 -93q106 -93 106 -254
q2 -126 -62.5 -234t-172.5 -169t-229 -58q-164 0 -255 81q-75 69 -98 166l185 76q15 -64 61 -103t125 -39q71 0 130 40q60 41 89 106h-284l43 161h262q-11 64 -58.5 101t-122.5 37q-79 0 -135 -43q-57 -42 -84 -95l-167 82q44 90 139 158q112 80 269 80z" />
    <glyph glyph-name="uni04ED" unicode="&#x4ed;" horiz-adv-x="613" 
d="M196 616q-39 0 -64.5 25t-25.5 64q0 46 31.5 78t77.5 32q40 0 65.5 -24.5t25.5 -63.5q0 -46 -32 -78.5t-78 -32.5zM455 616q-39 0 -64 25t-25 64q0 46 31.5 78t77.5 32q39 0 65 -24.5t26 -63.5q0 -47 -32 -79t-79 -32zM309 546q122 0 194 -69q73 -69 73 -179
q0 -125 -93 -218q-94 -92 -229 -92q-96 0 -162 45.5t-87 118.5l161 65q24 -69 99 -69q38 0 69 19t47 52h-142l25 98h131q-17 69 -95 69q-34 0 -66 -19t-48 -47l-145 73q39 70 110.5 111.5t157.5 41.5z" />
    <glyph glyph-name="uni04EE" unicode="&#x4ee;" horiz-adv-x="739" 
d="M750 1004l-36 -136h-385l36 136h385zM667 783h223l-438 -590q-79 -107 -157.5 -155.5t-178.5 -48.5q-108 0 -170 56l121 148q29 -28 71 -28q74 0 144 85l-149 533h212l80 -334z" />
    <glyph glyph-name="uni04EF" unicode="&#x4ef;" horiz-adv-x="625" 
d="M642 765l-37 -137h-385l36 137h386zM152 -1l-70 535h187l33 -317h1l188 317h201l-506 -797h-199z" />
    <glyph glyph-name="uni04F0" unicode="&#x4f0;" horiz-adv-x="739" 
d="M506 965q0 -43 -28.5 -71.5t-71.5 -28.5t-71 28.5t-28 71.5q0 42 28 70.5t71 28.5t71.5 -28.5t28.5 -70.5zM795 965q0 -43 -28.5 -71.5t-71.5 -28.5t-71 28.5t-28 71.5q0 42 28.5 70.5t70.5 28.5q43 0 71.5 -28.5t28.5 -70.5zM667 783h223l-438 -590
q-79 -107 -157.5 -155.5t-178.5 -48.5q-108 0 -170 56l121 148q29 -28 71 -28q74 0 144 85l-149 533h212l80 -334z" />
    <glyph glyph-name="uni04F1" unicode="&#x4f1;" horiz-adv-x="625" 
d="M295 616q-39 0 -64 25t-25 64q0 46 31.5 78t77.5 32q39 0 64.5 -24.5t25.5 -63.5q0 -47 -32 -79t-78 -32zM555 616q-39 0 -64 24.5t-25 64.5q0 46 31.5 78t77.5 32q39 0 65 -24.5t26 -63.5q0 -47 -32 -79t-79 -32zM152 -1l-70 535h187l33 -317h1l188 317h201l-506 -797
h-199z" />
    <glyph glyph-name="uni04F2" unicode="&#x4f2;" horiz-adv-x="739" 
d="M470 1048h212l-224 -196h-153zM727 1048h211l-223 -196h-153zM667 783h223l-438 -590q-79 -107 -157.5 -155.5t-178.5 -48.5q-108 0 -170 56l121 148q29 -28 71 -28q74 0 144 85l-149 533h212l80 -334z" />
    <glyph glyph-name="uni04F3" unicode="&#x4f3;" horiz-adv-x="625" 
d="M338 819h212l-223 -196h-154zM595 819h212l-224 -196h-153zM152 -1l-70 535h187l33 -317h1l188 317h201l-506 -797h-199z" />
    <glyph glyph-name="uni04F4" unicode="&#x4f4;" horiz-adv-x="787" 
d="M412 865q-39 0 -64.5 25t-25.5 64q0 46 32 78t78 32q39 0 64.5 -24.5t25.5 -63.5q0 -46 -32 -78.5t-78 -32.5zM682 865q-40 0 -65 24.5t-25 64.5q0 46 31.5 78t77.5 32q39 0 64.5 -24.5t25.5 -63.5q0 -46 -31.5 -78.5t-77.5 -32.5zM636 0h-198l81 301q-123 -53 -219 -53
q-89 0 -144 48t-55 134q0 41 16 98l68 255h198l-62 -234q-8 -34 -8 -51q0 -71 76 -71q97 0 177 50l81 306h198z" />
    <glyph glyph-name="uni04F5" unicode="&#x4f5;" horiz-adv-x="620" 
d="M277 616q-39 0 -64.5 25t-25.5 64q0 46 32 78t78 32q39 0 64.5 -24.5t25.5 -63.5q0 -47 -32 -79t-78 -32zM537 616q-39 0 -64 24.5t-25 64.5q0 46 31.5 78t77.5 32q39 0 64.5 -24.5t25.5 -63.5q0 -47 -32 -79t-78 -32zM489 0h-191l44 163q-62 -24 -143 -24
q-66 0 -109.5 38t-43.5 105q0 25 10 58l51 194h192l-43 -161q-4 -13 -4 -33t12.5 -31.5t31.5 -11.5q48 0 88 22l57 215h190z" />
    <glyph glyph-name="uni04F8" unicode="&#x4f8;" horiz-adv-x="1146" 
d="M609 865q-39 0 -64.5 25t-25.5 64q0 46 32 78t78 32q39 0 64.5 -24.5t25.5 -63.5q0 -46 -32 -78.5t-78 -32.5zM879 865q-40 0 -65 24.5t-25 64.5q0 46 31.5 78t77.5 32q39 0 64.5 -24.5t25.5 -63.5q0 -46 -31.5 -78.5t-77.5 -32.5zM421 783l-73 -276h113q120 0 195 -57
t75 -153q0 -141 -98 -219q-97 -78 -255 -78h-364l209 783h198zM1204 783l-209 -783h-198l209 783h198zM303 340l-45 -166h141q59 0 94 25t35 72q0 32 -24 50.5t-64 18.5h-137z" />
    <glyph glyph-name="uni04F9" unicode="&#x4f9;" horiz-adv-x="944" 
d="M452 616q-39 0 -64.5 25t-25.5 64q0 46 32 78t78 32q39 0 64.5 -24.5t25.5 -63.5q0 -47 -32 -79t-78 -32zM712 616q-39 0 -64 24.5t-25 64.5q0 46 31 78t77 32q40 0 65.5 -24.5t25.5 -63.5q0 -46 -32 -78.5t-78 -32.5zM137 534h190l-39 -149h82q93 0 158 -45
q65 -44 65 -115q0 -108 -77 -167q-76 -58 -191 -58h-330zM764 534h191l-143 -534h-191zM252 252l-29 -111h94q38 0 62 16.5t24 48.5q0 21 -16.5 33.5t-42.5 12.5h-92z" />
    <glyph glyph-name="uni0E3F" unicode="&#xe3f;" horiz-adv-x="761" 
d="M271 0h-255l209 783h254l29 109h75l-30 -112q215 -26 215 -185q0 -79 -51 -131q-48 -51 -127 -68v-2q57 -17 88.5 -58.5t31.5 -97.5q0 -106 -91 -172t-265 -66h-9l-28 -102l-74 -1zM372 622l-39 -147h66l39 147h-66zM508 619l-38 -143q46 4 73 25t27 59q0 50 -62 59z
M292 318l-42 -152h66l41 152h-65zM428 318l-41 -152q53 0 88.5 23t35.5 64q0 60 -83 65z" />
    <glyph glyph-name="uni1E20" unicode="&#x1e20;" horiz-adv-x="874" 
d="M783 994l-36 -136h-386l36 136h386zM890 561l-183 -80q-16 62 -63.5 98t-121.5 36q-101 0 -175 -80q-73 -79 -73 -182q0 -80 50 -133q51 -53 141 -53q63 0 113 28.5t75 77.5h-226l37 155h415q-6 -179 -113 -304q-53 -63 -137 -99.5t-184 -36.5q-157 0 -263 93
q-107 93 -107 254q0 195 136 328t328 133q167 0 252 -77q74 -66 99 -158z" />
    <glyph glyph-name="uni1E21" unicode="&#x1e21;" horiz-adv-x="686" 
d="M655 765l-36 -137h-386l36 137h386zM-44 -87l156 73q11 -43 43.5 -67.5t72.5 -24.5q105 0 141 133l11 41l-44 -29q-51 -29 -106 -29q-81 0 -138 60q-56 62 -56 146q0 132 85 229t202 97q108 0 164 -80h1l20 72h188l-135 -509q-76 -292 -332 -292q-114 0 -184 52
q-70 53 -89 128zM313 175q48 0 86 38q38 40 38 92q0 36 -24 58.5t-62 22.5q-51 0 -88 -39q-37 -37 -37 -91q0 -37 23.5 -59t63.5 -22z" />
    <glyph glyph-name="uni1E30" unicode="&#x1e30;" horiz-adv-x="763" 
d="M625 1048h211l-223 -196h-154zM214 0h-199l209 783h199l-89 -332h1l315 332h252l-391 -397l191 -386h-221l-168 374z" />
    <glyph glyph-name="uni1E31" unicode="&#x1e31;" horiz-adv-x="638" 
d="M601 819h211l-223 -196h-153zM212 815h190l-133 -500h3l201 219h236l-257 -265l118 -269h-206l-109 263l-70 -263h-190z" />
    <glyph glyph-name="uni1E60" unicode="&#x1e60;" horiz-adv-x="694" 
d="M442 855q-43 0 -71 27.5t-28 70.5q0 49 35 86q35 36 85 36q44 0 72 -27.5t28 -70.5q0 -51 -35 -86.5t-86 -35.5zM449 229q0 45 -71 71l-66 23q-88 32 -138 85t-50 125q-1 114 94.5 190.5t214.5 72.5q110 0 184.5 -50t95.5 -134l-161 -77q-32 92 -128 92q-41 0 -69.5 -21
t-28.5 -49q0 -45 65 -69l66 -24q195 -70 195 -222q0 -114 -88 -184q-86 -70 -233 -70q-124 0 -206 53.5t-106 148.5l165 77q16 -53 57 -81t99 -28q52 0 80.5 21t28.5 50z" />
    <glyph glyph-name="uni1E61" unicode="&#x1e61;" horiz-adv-x="535" 
d="M314 606q-43 0 -71 27.5t-28 70.5q0 49 35 86q36 36 86 36q44 0 72 -27.5t28 -70.5q0 -51 -36 -87q-35 -35 -86 -35zM306 547q83 0 143 -37.5t84 -102.5l-124 -63q-10 30 -39.5 50t-66.5 20q-19 0 -33.5 -10t-14.5 -25q0 -21 35 -33l40 -14q73 -25 109.5 -63t36.5 -96
q0 -84 -70 -135q-71 -50 -171 -50q-89 0 -153 43t-86 118l127 59q9 -36 40 -61t74 -25q24 0 40 10t16 27q0 25 -30 35l-37 15q-76 30 -104 57q-44 39 -44 97q0 82 66 133q68 51 162 51z" />
    <glyph glyph-name="Wgrave" unicode="&#x1e80;" horiz-adv-x="1196" 
d="M798 852h-134l-149 196h197zM386 0h-200l-45 783h201l15 -495h3l268 495h190l38 -496h2l252 496h210l-417 -783h-203l-32 522z" />
    <glyph glyph-name="wgrave" unicode="&#x1e81;" horiz-adv-x="909" 
d="M602 623h-134l-150 196h198zM84 534h187l6 -287h1l170 287h155l19 -289h1l165 289h184l-312 -534h-181l-16 286h-1l-170 -286h-180z" />
    <glyph glyph-name="Wacute" unicode="&#x1e82;" horiz-adv-x="1196" 
d="M825 1048h212l-224 -196h-153zM386 0h-200l-45 783h201l15 -495h3l268 495h190l38 -496h2l252 496h210l-417 -783h-203l-32 522z" />
    <glyph glyph-name="wacute" unicode="&#x1e83;" horiz-adv-x="909" 
d="M626 819h212l-223 -196h-154zM84 534h187l6 -287h1l170 287h155l19 -289h1l165 289h184l-312 -534h-181l-16 286h-1l-170 -286h-180z" />
    <glyph glyph-name="Wdieresis" unicode="&#x1e84;" horiz-adv-x="1196" 
d="M621 865q-39 0 -64.5 25t-25.5 64q0 46 32 78t78 32q39 0 64.5 -24.5t25.5 -63.5q0 -46 -32 -78.5t-78 -32.5zM891 865q-40 0 -65 24.5t-25 64.5q0 46 31.5 78t77.5 32q39 0 64.5 -24.5t25.5 -63.5q0 -46 -31.5 -78.5t-77.5 -32.5zM386 0h-200l-45 783h201l15 -495h3
l268 495h190l38 -496h2l252 496h210l-417 -783h-203l-32 522z" />
    <glyph glyph-name="wdieresis" unicode="&#x1e85;" horiz-adv-x="909" 
d="M429 616q-39 0 -64.5 25t-25.5 64q0 46 32 78t78 32q39 0 64.5 -24.5t25.5 -63.5q0 -47 -32 -79t-78 -32zM689 616q-39 0 -64 24.5t-25 64.5q0 46 31 78t77 32q40 0 65.5 -24.5t25.5 -63.5q0 -46 -32 -78.5t-78 -32.5zM84 534h187l6 -287h1l170 287h155l19 -289h1
l165 289h184l-312 -534h-181l-16 286h-1l-170 -286h-180z" />
    <glyph glyph-name="uni1E90" unicode="&#x1e90;" horiz-adv-x="696" 
d="M536 955l-88 -101h-158l176 189h172l79 -189h-147zM198 783h591l-44 -165l-467 -442h350l-47 -176h-609l44 167l465 442h-331z" />
    <glyph glyph-name="uni1E91" unicode="&#x1e91;" horiz-adv-x="556" 
d="M395 726l-88 -102h-158l176 189h172l79 -189h-147zM547 393l-295 -237h234l-41 -156h-473l42 151l281 226h-212l41 157h460z" />
    <glyph glyph-name="uni1EBC" unicode="&#x1ebc;" horiz-adv-x="686" 
d="M468 1036q32 0 61.5 -16t51.5 -32t34 -16q19 0 33 17.5t21 43.5h112q-15 -82 -60.5 -131.5t-117.5 -49.5q-38 0 -86.5 32t-59.5 32q-39 0 -57 -61h-111q15 82 61 131.5t118 49.5zM770 783l-47 -175h-349l-35 -128h318l-45 -169h-318l-36 -135h352l-47 -176h-548l209 783
h546z" />
    <glyph glyph-name="uni1EBD" unicode="&#x1ebd;" horiz-adv-x="632" 
d="M343 806q32 0 61.5 -16t51.5 -32t34 -16q19 0 33 17.5t21 43.5h112q-15 -82 -60.5 -131.5t-117.5 -49.5q-38 0 -86.5 32t-59.5 32q-39 0 -57 -61h-111q15 82 61 131.5t118 49.5zM584 219h-369q0 -37 30 -60t71 -23q79 0 128 61l117 -94q-91 -115 -254 -115
q-118 0 -195 68q-76 67 -76 180q0 127 97 218q98 92 228 92q110 0 176 -63q67 -63 67 -167q0 -46 -20 -97zM353 401q-36 0 -70 -21.5t-48 -54.5h191q2 10 2 16q0 29 -20.5 44.5t-54.5 15.5z" />
    <glyph glyph-name="Ygrave" unicode="&#x1ef2;" horiz-adv-x="761" 
d="M595 852h-134l-149 196h197zM209 0l82 310l-143 473h210l78 -287l231 287h233l-416 -495l-77 -288h-198z" />
    <glyph glyph-name="ygrave" unicode="&#x1ef3;" horiz-adv-x="625" 
d="M472 623h-134l-150 196h198zM152 -1l-70 535h187l33 -317h1l188 317h201l-506 -797h-199z" />
    <glyph glyph-name="endash" unicode="&#x2013;" horiz-adv-x="614" 
d="M593 404l-42 -157h-495l42 157h495z" />
    <glyph glyph-name="emdash" unicode="&#x2014;" horiz-adv-x="998" 
d="M977 404l-42 -157h-879l42 157h879z" />
    <glyph glyph-name="quoteleft" unicode="&#x2018;" horiz-adv-x="327" 
d="M114 523q0 86 55 156q55 71 140 123l57 -60q-93 -55 -141 -130q21 10 43 10q38 0 61.5 -24t23.5 -61q0 -54 -41 -92q-40 -37 -94 -37q-47 0 -75.5 32.5t-28.5 82.5z" />
    <glyph glyph-name="quoteright" unicode="&#x2019;" horiz-adv-x="328" 
d="M394 679q0 -83 -56 -156q-55 -70 -140 -123l-56 60q93 56 140 130q-20 -9 -42 -9q-39 0 -62.5 23.5t-23.5 60.5q0 54 40 91q41 38 95 38q47 0 76 -32.5t29 -82.5z" />
    <glyph glyph-name="quotesinglbase" unicode="&#x201a;" horiz-adv-x="332" 
d="M248 106q0 -84 -56 -155q-54 -70 -140 -124l-56 60q94 56 140 130q-19 -10 -42 -10q-39 0 -62.5 24t-23.5 61q0 54 40 91q41 38 95 38q47 0 76 -32.5t29 -82.5z" />
    <glyph glyph-name="quotedblleft" unicode="&#x201c;" horiz-adv-x="600" 
d="M114 523q0 86 55 156q55 71 140 123l57 -60q-93 -55 -141 -130q21 10 43 10q38 0 61.5 -24t23.5 -61q0 -54 -41 -92q-40 -37 -94 -37q-47 0 -75.5 32.5t-28.5 82.5zM389 523q0 84 56 155q54 70 140 124l56 -60q-94 -56 -140 -130q21 10 42 10q39 0 62.5 -24t23.5 -61
q0 -54 -41 -92q-40 -37 -94 -37q-47 0 -76 32.5t-29 82.5z" />
    <glyph glyph-name="quotedblright" unicode="&#x201d;" horiz-adv-x="601" 
d="M393 679q0 -83 -56 -156q-55 -70 -140 -123l-56 60q93 56 140 130q-19 -9 -42 -9q-39 0 -62.5 23.5t-23.5 60.5q0 54 40 91q41 38 95 38q47 0 76 -32.5t29 -82.5zM668 679q0 -84 -56 -157q-57 -72 -139 -122l-57 60q92 55 141 130q-19 -9 -43 -9q-39 0 -62 23.5t-23 60.5
q0 54 40 91q41 38 95 38q47 0 75.5 -32.5t28.5 -82.5z" />
    <glyph glyph-name="quotedblbase" unicode="&#x201e;" horiz-adv-x="605" 
d="M245 106q0 -84 -56 -155q-55 -72 -139 -124l-57 60q93 55 141 130q-21 -10 -43 -10q-38 0 -61.5 24t-23.5 61q0 55 40 92t95 37q47 0 75.5 -32.5t28.5 -82.5zM521 106q0 -84 -56 -155q-54 -70 -140 -124l-56 60q94 56 140 130q-21 -10 -42 -10q-39 0 -62.5 24t-23.5 61
q0 54 40 91q41 38 95 38q47 0 76 -32.5t29 -82.5z" />
    <glyph glyph-name="dagger" unicode="&#x2020;" horiz-adv-x="709" 
d="M196 0l106 397h-187l42 158h187l61 229h179l-61 -229h188l-42 -158h-188l-106 -397h-179z" />
    <glyph glyph-name="daggerdbl" unicode="&#x2021;" horiz-adv-x="709" 
d="M142 -206l55 206h-212l42 159h212l58 217h-212l42 158h212l56 207h178l-55 -207h212l-42 -158h-212l-58 -217h212l-42 -159h-213l-55 -206h-178z" />
    <glyph glyph-name="bullet" unicode="&#x2022;" horiz-adv-x="495" 
d="M257 190q-77 0 -123.5 43.5t-46.5 112.5q0 78 59 137q61 59 145 59q77 0 124 -45q47 -44 47 -112q0 -78 -60 -137q-58 -58 -145 -58z" />
    <glyph glyph-name="ellipsis" unicode="&#x2026;" horiz-adv-x="991" 
d="M119 -12q-44 0 -76 32t-32 76q0 45 32 77t76 32q46 0 77.5 -32t31.5 -77q0 -44 -32 -76t-77 -32zM462 -12q-44 0 -76 32t-32 76q0 45 32 77t76 32q45 0 76.5 -32t31.5 -77t-31.5 -76.5t-76.5 -31.5zM806 -12q-44 0 -76 32t-32 76q0 45 31.5 77t76.5 32t76.5 -32t31.5 -77
q0 -44 -32 -76t-76 -32z" />
    <glyph glyph-name="perthousand" unicode="&#x2030;" horiz-adv-x="1508" 
d="M308 410q-84 0 -134 48q-49 48 -49 122q0 84 64 147q64 64 156 64q84 0 135 -48t51 -121q0 -83 -65 -148q-64 -64 -158 -64zM829 783h166l-679 -783h-167zM321 535q31 0 52.5 21.5t21.5 51.5q0 25 -17.5 41.5t-44.5 16.5q-29 0 -50 -22t-21 -50q0 -25 16.5 -42t42.5 -17z
M800 -6q-84 0 -134 48q-49 48 -49 122q0 84 63 147q64 64 156 64q85 0 136 -48t51 -121q0 -83 -65 -148q-64 -64 -158 -64zM1233 -6q-85 0 -134 48t-49 122q0 84 64 147q64 64 156 64q85 0 136 -48t51 -121q0 -84 -66 -148q-64 -64 -158 -64zM812 119q30 0 52 21.5t22 51.5
q0 25 -17 41.5t-44 16.5q-30 0 -51 -22t-21 -50q0 -25 16.5 -42t42.5 -17zM1246 119q30 0 52 21.5t22 51.5q0 25 -17.5 41.5t-44.5 16.5q-29 0 -50 -22t-21 -50q0 -25 16.5 -42t42.5 -17z" />
    <glyph glyph-name="guilsinglleft" unicode="&#x2039;" horiz-adv-x="404" 
d="M211 68l-174 233l295 231l78 -101l-190 -148l100 -132z" />
    <glyph glyph-name="guilsinglright" unicode="&#x203a;" horiz-adv-x="404" 
d="M216 535l174 -234l-295 -230l-78 100l190 148l-100 132z" />
    <glyph glyph-name="uni203D" unicode="&#x203d;" horiz-adv-x="604" 
d="M400 796q109 0 174 -56t65 -141q0 -102 -84 -174q-17 -15 -68 -52.5t-76.5 -63.5t-32.5 -53l-3 -11h-172l72 312h161l-24 -80q57 45 57 83q0 35 -29 57.5t-74 22.5q-69 0 -119 -59l-113 106q106 109 266 109zM261 206q43 0 71 -27t28 -70q0 -49 -35 -86q-35 -35 -85 -35
q-43 0 -71 27t-28 70q0 50 35 85q34 36 85 36z" />
    <glyph glyph-name="uni2042" unicode="&#x2042;" horiz-adv-x="925" 
d="M523 397l-43 107l-89 -71l-66 82l88 71l-96 63l58 87l95 -62l30 113l104 -28l-30 -113l113 6l8 -104l-114 -7l40 -105zM237 -18l-42 107l-90 -72l-66 82l88 72l-96 63l58 87l95 -62l30 113l105 -29l-30 -112l113 6l8 -105l-115 -7l40 -105zM691 -18l-42 107l-90 -72
l-66 82l88 72l-96 63l58 87l95 -62l30 113l105 -29l-30 -112l113 6l7 -105l-114 -7l41 -105z" />
    <glyph glyph-name="fraction" unicode="&#x2044;" horiz-adv-x="492" 
d="M455 783h169l-513 -783h-170z" />
    <glyph glyph-name="uni2051" unicode="&#x2051;" horiz-adv-x="489" 
d="M355 397l-43 107l-89 -71l-66 82l88 71l-96 63l58 87l95 -62l30 113l105 -28l-31 -113l114 6l7 -104l-114 -7l40 -105zM244 -18l-43 107l-90 -72l-66 82l88 72l-95 63l57 87l95 -62l31 113l104 -29l-30 -112l113 6l8 -105l-115 -7l41 -105z" />
    <glyph glyph-name="lira" unicode="&#x20a4;" horiz-adv-x="713" 
d="M453 162q41 0 82 50l113 -94q-84 -129 -238 -129q-45 0 -104 22t-88 22q-40 0 -116 -40l-83 162q123 61 162 115h-114l23 87h117v1q0 25 -6 49h-97l23 88h58l-1 14q0 133 84 210q86 77 221 77q88 0 150.5 -45.5t80.5 -129.5l-168 -79q-10 44 -29 64t-53 20
q-45 0 -68.5 -28.5t-23.5 -76.5q0 -20 1 -26h213l-24 -88h-179q1 -6 1 -28l-1 -22h166l-23 -87h-166q-21 -40 -77 -78v-1q20 5 31 5q24 0 66 -17q43 -17 67 -17z" />
    <glyph glyph-name="uni20A6" unicode="&#x20a6;" horiz-adv-x="994" 
d="M917 519h73l-30 -113h-73l-13 -50h73l-30 -113h-73l-65 -243h-216l-159 486h-1l-130 -486h-196l65 243h-73l30 113h73l13 50h-73l31 113h72l71 264h221l156 -478l128 478h197z" />
    <glyph glyph-name="uni20A9" unicode="&#x20a9;" horiz-adv-x="1274" 
d="M1292 519l-29 -113h-104l-27 -50h118l-30 -113h-148l-129 -243h-203l-32 522h-1l-281 -522h-200l-15 243h-156l28 113h122l-3 50h-105l29 113h70l-15 264h201l15 -495h3l268 495h190l38 -496h2l251 496h210l-140 -264h73z" />
    <glyph glyph-name="uni20AA" unicode="&#x20aa;" horiz-adv-x="1090" 
d="M743 208l-185 1l60 218q6 23 6 33q0 45 -56 45l-224 1l-134 -506h-185l175 657h376q233 0 233 -159q0 -40 -18 -107zM917 657h185l-109 -412q-33 -120 -82 -177q-58 -68 -186 -68h-462l120 449h184l-79 -297h229q40 0 58 20.5t33 76.5z" />
    <glyph glyph-name="dong" unicode="&#x20ab;" horiz-adv-x="753" 
d="M779 815l-21 -80h84l-33 -127h-85l-162 -608h-189l15 58h-1q-71 -69 -154 -69q-91 0 -143 64q-51 65 -51 154q0 136 86 237q87 100 208 100q105 0 161 -78h1l38 142h-153l35 127h152l21 80h191zM322 157q52 0 91 39q39 40 39 96q0 38 -25.5 61.5t-65.5 23.5
q-53 0 -91 -41t-38 -95q0 -38 24.5 -61t65.5 -23zM546 -58l-42 -157h-547l42 157h547z" />
    <glyph glyph-name="Euro" unicode="&#x20ac;" horiz-adv-x="972" 
d="M549 171q79 0 132 43q54 42 83 99l169 -82q-47 -97 -151 -170q-103 -73 -255 -73q-136 0 -238 72q-102 74 -126 203h-117l29 105h83q2 26 6 51h-76l28 105h81q56 125 170 197q116 75 254 75q169 0 254 -82q75 -67 99 -166l-186 -77q-13 58 -58 101q-43 42 -127 42
q-55 0 -105 -24.5t-79 -65.5h236l-49 -105h-239q-6 -27 -7 -51h227l-48 -105h-161q47 -92 171 -92z" />
    <glyph glyph-name="uni20AE" unicode="&#x20ae;" horiz-adv-x="723" 
d="M523 486l192 58l-32 -120l-192 -59l-14 -53l191 59l-32 -121l-191 -59l-51 -191h-196l34 126l-191 -58l32 121l191 59l14 52l-191 -58l32 121l192 58l48 183h-222l48 179h640l-48 -179h-222z" />
    <glyph glyph-name="uni20B1" unicode="&#x20b1;" horiz-adv-x="837" 
d="M885 569l-23 -88h-63q-28 -97 -116 -152q-89 -58 -220 -58h-129l-73 -271h-198l128 481h-83l24 88h83l57 214h245q118 0 186 -37q104 -57 107 -177h75zM424 612l-11 -44h195q-3 15 -10 19q-28 25 -84 25h-90zM390 482l-12 -45h94q88 0 122 45h-204z" />
    <glyph glyph-name="uni20B4" unicode="&#x20b4;" horiz-adv-x="767" 
d="M92 424l31 115h410q11 17 11 36q0 27 -19.5 42t-49.5 15q-36 0 -76 -24t-71 -60l-116 107q55 67 129.5 104t157.5 37q64 0 115 -16q56 -17 93 -60t37 -104q0 -41 -16 -77h64l-30 -115h-670zM748 374l-30 -115h-417q-19 -20 -19 -49q0 -28 21 -42.5t54 -14.5
q52 0 105.5 27t92.5 70l115 -109q-126 -152 -343 -152q-44 0 -86 9.5t-79.5 29.5t-60.5 56t-23 83q0 51 26 92h-56l31 115h669z" />
    <glyph glyph-name="uni20B8" unicode="&#x20b8;" horiz-adv-x="732" 
d="M776 605h-640l48 178h640zM196 0l98 369h-221l48 177h640l-48 -177h-220l-99 -369h-198z" />
    <glyph glyph-name="uni20B9" unicode="&#x20b9;" horiz-adv-x="659" 
d="M761 783l-38 -143h-146q23 -28 26 -65h102l-24 -92h-87q-37 -135 -205 -183l89 -300h-201l-75 275h-148l43 159h143q99 0 141 49h-272l25 92h263q-1 9 -12 21q-29 29 -100 29h-138l42 158h572z" />
    <glyph glyph-name="uni20BA" unicode="&#x20ba;" horiz-adv-x="750" 
d="M552 364l187 -20q-36 -143 -136 -240q-109 -104 -301 -104h-212l71 265l-115 -46l33 126l115 46l13 48l-115 -45l34 125l115 46l58 218h197l-35 -130l180 73l-34 -126l-180 -72l-12 -49l179 72l-34 -126l-179 -72l-48 -177q51 0 91.5 17.5t65.5 47.5t39.5 60t22.5 63z
" />
    <glyph glyph-name="uni20BD" unicode="&#x20bd;" horiz-adv-x="779" 
d="M817 561q0 -30 -8 -66q-6 -31 -18 -56q-32 -65 -101 -110q-89 -58 -220 -58h-119l-17 -60h169l-26 -98h-168l-31 -113h-198l30 113h-92l26 98h93l15 60h-91l40 152h92l96 360h234q119 0 186 -37q108 -57 108 -185zM440 610l-45 -174h72q61 0 104 25q44 26 44 79
q0 29 -20 46q-25 24 -82 24h-73z" />
    <glyph glyph-name="uni2113" unicode="&#x2113;" horiz-adv-x="484" 
d="M265 311q-30 -115 -30 -133q0 -55 91 -55q31 0 58 9l-34 -128q-45 -13 -87 -13q-79 0 -126.5 39t-47.5 111q0 29 27 121q-43 -11 -83 -13l34 128q53 9 84 21l61 232q22 83 70.5 124.5t130.5 41.5q63 0 104.5 -36t41.5 -96q0 -110 -100 -212q-91 -91 -194 -141zM420 643
q0 24 -25 24q-35 0 -47 -46l-41 -153q43 27 77 77q36 53 36 98z" />
    <glyph glyph-name="uni2116" unicode="&#x2116;" horiz-adv-x="1329" 
d="M340 486l-130 -486h-196l209 783h222l155 -478h1l128 478h196l-209 -783h-216l-159 486h-1zM1125 296q-84 0 -134 48t-50 124q0 86 64 150q65 65 158 65q84 0 134 -48t50 -124q0 -87 -64 -151t-158 -64zM1132 413q36 0 61 27.5t25 63.5q0 27 -17.5 44t-44.5 17
q-36 0 -61 -26.5t-25 -63.5q0 -28 16.5 -45t45.5 -17zM883 229h384l-37 -136h-383z" />
    <glyph glyph-name="trademark" unicode="&#x2122;" horiz-adv-x="1061" 
d="M183 332l93 348h-128l28 103h368l-27 -103h-127l-93 -348h-114zM966 617l-184 -285h-69l-37 283h-1l-76 -283h-109l120 451h140l38 -277l178 277h157l-121 -451h-111l76 285h-1z" />
    <glyph glyph-name="estimated" unicode="&#x212e;" horiz-adv-x="884" 
d="M487 -12q-179 0 -284 116q-104 118 -104 294q0 168 108 282q109 115 280 115q170 0 278 -114q109 -112 109 -281v-9h-604v-254q39 -40 98.5 -64t118.5 -24q101 0 175 43t113 124l53 -29q-40 -91 -132 -145q-90 -54 -209 -54zM270 453h435v197q-38 40 -98 62.5t-122 22.5
q-128 0 -215 -84v-198z" />
    <glyph glyph-name="uni2153" unicode="&#x2153;" horiz-adv-x="1205" 
d="M296 620l-108 -53l-51 104l229 112h132l-120 -453h-158zM874 783h180l-678 -783h-182zM1159 335q0 -42 -27 -72.5t-71 -39.5v-1q57 -26 57 -90q0 -65 -54 -104.5t-147 -39.5q-67 0 -115 34t-62 92l110 52q18 -61 76 -61q23 0 37.5 11.5t14.5 29.5q0 32 -49 32h-33l26 99
h30q67 0 67 40q0 28 -41 28q-50 0 -85 -48l-91 68q64 97 190 97q77 0 122 -35t45 -92z" />
    <glyph glyph-name="uni2154" unicode="&#x2154;" horiz-adv-x="1219" 
d="M72 330l30 112l239 155q35 23 35 45q0 14 -11.5 23t-28.5 9q-48 0 -85 -54l-97 69q64 106 195 106q77 0 121.5 -34.5t44.5 -96.5q0 -84 -114 -157l-95 -61h157l-31 -116h-360zM902 783h180l-679 -783h-181zM1187 335q0 -42 -27 -72.5t-71 -39.5v-1q57 -26 57 -90
q0 -65 -54 -104.5t-147 -39.5q-67 0 -115 34t-62 92l110 52q18 -61 76 -61q23 0 37.5 11.5t14.5 29.5q0 32 -49 32h-33l26 99h30q67 0 67 39q0 29 -41 29q-50 0 -85 -48l-91 68q64 97 191 97q76 0 121 -35t45 -92z" />
    <glyph glyph-name="oneeighth" unicode="&#x215b;" horiz-adv-x="1194" 
d="M296 620l-108 -53l-51 104l229 112h132l-120 -453h-158zM874 783h180l-678 -783h-182zM981 465q70 0 122 -38q51 -38 51 -89q0 -40 -25 -71t-68 -47q50 -32 50 -85q0 -67 -57 -107q-55 -40 -141 -40q-83 0 -138 34t-55 92q0 46 29.5 80t77.5 49q-42 31 -42 77
q0 63 58 103q59 42 138 42zM970 350q-20 0 -35.5 -10.5t-15.5 -27.5q0 -14 13.5 -23t30.5 -9q20 0 35.5 10.5t15.5 27.5q0 14 -13.5 23t-30.5 9zM923 180q-23 0 -41 -11t-18 -30q0 -15 17 -25t36 -10q24 0 41.5 10.5t17.5 29.5q0 16 -16.5 26t-36.5 10z" />
    <glyph glyph-name="threeeighths" unicode="&#x215c;" horiz-adv-x="1180" 
d="M502 668q0 -42 -27 -72.5t-71 -39.5v-1q57 -25 57 -90t-54 -104.5t-147 -39.5q-67 0 -115 34t-62 92l110 52q18 -61 76 -61q23 0 37.5 11.5t14.5 29.5q0 32 -49 32h-33l26 99h30q67 0 67 40q0 28 -41 28q-51 0 -85 -48l-91 68q64 97 190 97q77 0 122 -35t45 -92zM871 783
h181l-679 -783h-182zM979 465q70 0 122 -38q51 -38 51 -89q0 -40 -25.5 -71t-68.5 -47q51 -32 51 -85q0 -67 -57 -107q-55 -40 -141 -40q-83 0 -138 34t-55 92q0 46 29.5 80t77.5 49q-42 30 -42 77q0 63 58 103q59 42 138 42zM968 350q-20 0 -35.5 -10.5t-15.5 -27.5
q0 -14 13.5 -23t30.5 -9q20 0 35 10.5t15 27.5q0 14 -13.5 23t-29.5 9zM921 180q-23 0 -41 -11t-18 -30q0 -15 17 -25t36 -10q24 0 41.5 10.5t17.5 29.5q0 16 -16.5 26t-36.5 10z" />
    <glyph glyph-name="fiveeighths" unicode="&#x215d;" horiz-adv-x="1183" 
d="M473 500q0 -81 -58 -130t-150 -49q-62 0 -108.5 30.5t-66.5 85.5l108 59q22 -57 75 -57q27 0 43 14.5t16 37.5q0 16 -13.5 27t-34.5 11q-26 0 -49 -19l-105 53l88 220h307l-32 -121h-198l-21 -51q33 18 72 18q54 0 90.5 -36.5t36.5 -92.5zM873 783h180l-678 -783h-182z
M1155 338q0 -40 -25.5 -71t-68.5 -47q51 -32 51 -85q0 -67 -57 -107q-56 -40 -142 -40q-82 0 -137 34t-55 92q0 46 29.5 80t76.5 49q-41 32 -41 77q0 63 58 103q58 42 138 42q70 0 122 -38q51 -38 51 -89zM963 280q20 0 35.5 10.5t15.5 27.5q0 14 -13.5 23t-29.5 9
q-20 0 -35.5 -10.5t-15.5 -27.5q0 -14 13 -23t30 -9zM917 104q24 0 41.5 10.5t17.5 29.5q0 16 -16.5 26t-36.5 10q-23 0 -40.5 -11t-17.5 -30q0 -15 16.5 -25t35.5 -10z" />
    <glyph glyph-name="seveneighths" unicode="&#x215e;" horiz-adv-x="1104" 
d="M325 646h-184l36 137h363l-36 -134l-232 -319h-183zM794 783h180l-678 -783h-182zM902 465q70 0 122 -38q51 -38 51 -89q0 -40 -25.5 -71t-68.5 -47q51 -32 51 -85q0 -67 -57 -107q-56 -40 -142 -40q-82 0 -137 34t-55 92q0 46 29.5 80t77.5 49q-42 30 -42 77
q0 63 58 103q58 42 138 42zM891 350q-20 0 -35.5 -10.5t-15.5 -27.5q0 -14 13 -23t30 -9q20 0 35.5 10.5t15.5 27.5q0 14 -13.5 23t-29.5 9zM843 180q-23 0 -40.5 -11t-17.5 -30q0 -15 16.5 -25t35.5 -10q24 0 41.5 10.5t17.5 29.5q0 16 -16.5 26t-36.5 10z" />
    <glyph glyph-name="arrowleft" unicode="&#x2190;" horiz-adv-x="664" 
d="M656 452v-175h-338l134 -134l-114 -107l-292 315v26l292 316l114 -108l-134 -133h338z" />
    <glyph glyph-name="arrowup" unicode="&#x2191;" horiz-adv-x="664" 
d="M451 60h-175v337l-133 -133l-107 113l315 292h25l316 -292l-107 -113l-134 133v-337z" />
    <glyph glyph-name="arrowright" unicode="&#x2192;" horiz-adv-x="664" 
d="M65 277v175h338l-133 133l114 108l291 -316v-26l-291 -315l-114 107l133 134h-338z" />
    <glyph glyph-name="arrowdown" unicode="&#x2193;" horiz-adv-x="664" 
d="M271 668h175v-337l134 133l107 -113l-315 -292h-26l-316 292l107 113l134 -133v337z" />
    <glyph glyph-name="uni2196" unicode="&#x2196;" horiz-adv-x="664" 
d="M627 204l-124 -124l-239 239q2 -95 0 -189l-156 4l17 429l18 19l429 17l5 -156q-74 -3 -189 -1z" />
    <glyph glyph-name="uni2197" unicode="&#x2197;" horiz-adv-x="664" 
d="M197 80l-123 124l238 238q-114 -2 -188 1l4 156l430 -17l18 -19l17 -429l-156 -4q-1 21 -1 189z" />
    <glyph glyph-name="uni2198" unicode="&#x2198;" horiz-adv-x="664" 
d="M81 476l124 123l238 -239q0 168 1 189l156 -5l-17 -429l-18 -18l-430 -17l-4 156q95 2 189 0z" />
    <glyph glyph-name="uni2199" unicode="&#x2199;" horiz-adv-x="664" 
d="M512 599l124 -123l-240 -240q94 2 189 0l-4 -156l-430 17l-18 18l-16 429l156 5q1 -95 0 -189z" />
    <glyph glyph-name="uni21A9" unicode="&#x21a9;" horiz-adv-x="1102" 
d="M19 201v26l292 316l113 -107q-19 -21 -132 -134h443q81 0 134 43q54 43 54 111q0 70 -52 112t-139 42h-192v173h201q158 0 259 -93q100 -93 100 -234t-100 -235t-259 -94h-449l132 -134l-113 -107z" />
    <glyph glyph-name="uni21B0" unicode="&#x21b0;" horiz-adv-x="986" 
d="M378 612h169q155 0 250 -80t95 -216v-316h-178v298q0 66 -45.5 102.5t-126.5 36.5h-165l133 -134l-113 -107l-292 316v26l292 315l113 -107z" />
    <glyph glyph-name="uni21B1" unicode="&#x21b1;" horiz-adv-x="821" 
d="M419 612h170l-133 134l114 107l292 -315v-26l-292 -316l-114 107l133 134h-164q-81 0 -127 -36.5t-46 -102.5v-298h-177v316q0 136 95 216t249 80z" />
    <glyph glyph-name="uni21B2" unicode="&#x21b2;" horiz-adv-x="820" 
d="M474 171h-170l133 -133l-114 -108l-292 316v25l292 316l114 -107l-133 -134h164q81 0 127 36.5t46 103.5v297h177v-316q0 -137 -95 -217q-94 -79 -249 -79z" />
    <glyph glyph-name="uni21B3" unicode="&#x21b3;" horiz-adv-x="986" 
d="M547 38l133 133h-170q-155 0 -249 79q-95 80 -95 217v316h177v-297q0 -67 46 -103.5t127 -36.5h164l-133 134l114 107l292 -316v-25l-292 -316z" />
    <glyph glyph-name="uni21B4" unicode="&#x21b4;" horiz-adv-x="1037" 
d="M776 439v-169l134 132l107 -113l-315 -292h-26l-316 292l107 113q48 -44 134 -132v163q0 82 -36.5 130t-102.5 48h-298v172h316q137 0 217 -95q79 -94 79 -249z" />
    <glyph glyph-name="partialdiff" unicode="&#x2202;" horiz-adv-x="705" 
d="M293 -13q-50 0 -95.5 13t-84 39t-61 70.5t-22.5 101.5q0 128 101 212q100 85 234 85q77 0 135 -31q-1 68 -37 108.5t-101 40.5q-66 0 -162 -44l-42 147q121 67 248 67q141 0 216 -89t75 -234q0 -194 -99 -336q-49 -70 -128.5 -110t-176.5 -40zM374 350q-60 0 -103 -30
q-44 -30 -44 -87q0 -34 25.5 -54t62.5 -20q61 0 103.5 42t58.5 110q-17 18 -46 28.5t-57 10.5z" />
    <glyph glyph-name="uni2206" unicode="&#x2206;" horiz-adv-x="890" 
d="M699 783l92 -783h-824l510 783h222zM579 170l-46 392l-252 -392h298z" />
    <glyph glyph-name="product" unicode="&#x220f;" horiz-adv-x="822" 
d="M406 0l162 608h-125l-162 -608h-191l162 608h-119l47 175h745l-47 -175h-119l-162 -608h-191z" />
    <glyph glyph-name="summation" unicode="&#x2211;" horiz-adv-x="696" 
d="M336 405l-175 219l43 159h579l-47 -177h-331l176 -220l-268 -209h310l-47 -177h-594l45 165z" />
    <glyph glyph-name="minus" unicode="&#x2212;" horiz-adv-x="637" 
d="M622 444l-42 -158h-509l42 158h509z" />
    <glyph glyph-name="radical" unicode="&#x221a;" horiz-adv-x="751" 
d="M441 234h4l330 724h136l-435 -958h-149l-112 494h-143l34 128h248z" />
    <glyph glyph-name="infinity" unicode="&#x221e;" horiz-adv-x="1015" 
d="M722 98q-106 0 -214 124q-49 -41 -80 -63q-29 -21 -76 -41q-51 -20 -99 -20q-83 0 -139 53q-54 53 -54 136q0 111 78 188q80 78 190 78q108 0 215 -125l60 48l54 36q63 41 141 41q85 0 139 -54q55 -52 55 -137q0 -112 -79 -188t-191 -76zM314 405q-37 0 -66 -28t-29 -64
q0 -29 19 -48.5t48 -19.5q50 0 138 78l-23 27q-4 5 -23 24q-31 31 -64 31zM768 405q-23 0 -54 -16q-32 -17 -44 -27l-44 -36l20 -24l23 -24q33 -33 70 -33t65 28q29 29 29 65q0 28 -18.5 47.5t-46.5 19.5z" />
    <glyph glyph-name="integral" unicode="&#x222b;" horiz-adv-x="490" 
d="M75 -25l164 612q27 99 94.5 154t174.5 55q72 0 106 -21l-38 -145q-26 8 -53 8q-80 0 -103 -83l-165 -612q-26 -99 -93.5 -154.5t-174.5 -55.5q-72 0 -106 22l38 144q30 -8 53 -8q80 0 103 84z" />
    <glyph glyph-name="uni2236" unicode="&#x2236;" horiz-adv-x="352" 
d="M233 400q-46 0 -75.5 29t-29.5 75q0 54 37 91q38 38 91 38q46 0 76 -29t30 -75q0 -53 -38 -91t-91 -38zM147 76q-46 0 -75.5 29t-29.5 75q0 55 37 92q38 38 90 38q46 0 76 -29.5t30 -75.5q0 -53 -38 -91t-90 -38z" />
    <glyph glyph-name="approxequal" unicode="&#x2248;" horiz-adv-x="671" 
d="M500 385q-31 -2 -72 18.5t-76.5 41t-53.5 19.5q-44 0 -81 -51l-100 78q80 125 184 125q34 1 77.5 -19.5t77.5 -41t47 -18.5q44 0 82 50l100 -78q-78 -124 -185 -124zM428 115q-32 -2 -73 18.5t-76.5 41t-53.5 19.5q-41 0 -81 -51l-100 78q80 125 184 125q34 1 77.5 -19.5
t78 -41t47.5 -19.5q43 0 81 51l100 -78q-78 -124 -184 -124z" />
    <glyph glyph-name="notequal" unicode="&#x2260;" horiz-adv-x="635" 
d="M387 316h200l-41 -156h-265l-103 -153l-109 62l61 91h-93l42 156h157l67 99h-198l42 157h263l105 155l110 -63l-63 -92h94l-42 -157h-159z" />
    <glyph glyph-name="lessequal" unicode="&#x2264;" horiz-adv-x="662" 
d="M575 202l-482 182l43 161l578 180l-44 -169l-366 -97l-1 -1l315 -98zM567 146l-43 -161h-537l43 161h537z" />
    <glyph glyph-name="greaterequal" unicode="&#x2265;" horiz-adv-x="658" 
d="M198 725l482 -180l-44 -161l-578 -182l46 171l366 96v2l-314 97zM573 146l-43 -161h-537l43 161h537z" />
    <glyph glyph-name="uni2318" unicode="&#x2318;" horiz-adv-x="819" 
d="M646 69q-50 0 -87 37q-36 36 -36 86v63h-148v-63q0 -50 -36 -86q-34 -37 -87 -37q-52 0 -86 37q-36 36 -36 86t36 86t86 36h62v148h-61q-52 0 -86 37q-37 34 -37 86t37 86q36 36 86 36t86 -36t36 -86v-63h148v63q0 50 36 86q37 36 87 36t86 -36t36 -86t-36 -86
q-34 -37 -86 -37h-62v-148h62q50 0 86 -36t36 -86t-36 -86q-34 -37 -86 -37zM253 522h61v63q0 26 -18 44q-17 18 -43 18q-29 0 -45 -18q-18 -17 -18 -44q0 -26 18 -44q20 -19 45 -19zM646 647q-28 0 -44 -18q-18 -17 -18 -44v-63h62q25 0 44 19q30 26 13 67.5t-57 38.5z
M523 462h-148v-148h148v148zM314 192v63h-62q-28 0 -44 -19q-18 -16 -18 -44q0 -26 18 -45q20 -18 44 -18t44 18q18 19 18 45zM646 255h-62v-63q0 -26 18 -45q18 -18 44 -18q24 0 44 18q18 19 18 45q0 28 -18 44q-16 19 -44 19z" />
    <glyph glyph-name="filledbox" unicode="&#x25a0;" horiz-adv-x="908" 
d="M810 0h-709v711h709v-711z" />
    <glyph glyph-name="uni25A1" unicode="&#x25a1;" horiz-adv-x="908" 
d="M810 711v-711h-709v711h709zM692 600h-477v-489h477v489z" />
    <glyph glyph-name="triagup" unicode="&#x25b2;" horiz-adv-x="838" 
d="M421 730l417 -730h-838z" />
    <glyph glyph-name="uni25B3" unicode="&#x25b3;" horiz-adv-x="838" 
d="M419 730l419 -730h-838zM639 112l-220 388l-221 -388h441z" />
    <glyph glyph-name="lozenge" unicode="&#x25ca;" horiz-adv-x="796" 
d="M27 393l367 390h200l179 -390l-366 -393h-201zM344 182l205 219l-91 203l-206 -219z" />
    <glyph glyph-name="circle" unicode="&#x25cb;" horiz-adv-x="813" 
d="M777 356q0 -154 -108 -262t-262 -108q-153 0 -263 108q-108 108 -108 262t108 263q109 109 263 109t262 -109q108 -108 108 -263zM407 99q105 0 179 75q74 76 74 182t-74 182q-73 76 -179 76t-181 -76q-75 -75 -75 -182t75 -182t181 -75z" />
    <glyph glyph-name="uni25CF" unicode="&#x25cf;" horiz-adv-x="813" 
d="M36 356q0 155 108 263q108 109 262 109t262 -109q109 -109 109 -263t-109 -262q-108 -108 -262 -108t-262 108t-108 262z" />
    <glyph glyph-name="uni2605" unicode="&#x2605;" horiz-adv-x="838" 
d="M814 443l-244 -177l93 -287l-244 177l-245 -175l94 285l-244 177h302l93 287l93 -287h302z" />
    <glyph glyph-name="uni2611" unicode="&#x2611;" horiz-adv-x="956" 
d="M810 0h-709v711h612l130 227l101 -61l-134 -232v-645zM213 431l89 76l173 -211l175 305h-437v-170zM500 109h194v335zM477 109l-264 318v-318h264z" />
    <glyph glyph-name="uni2612" unicode="&#x2612;" horiz-adv-x="908" 
d="M810 711v-711h-709v711h709zM213 109h481v492h-481v-492zM686 509l-153 -154l153 -152l-79 -80l-152 152l-155 -155l-78 79l154 156l-154 154l79 78l154 -153l152 154z" />
    <glyph glyph-name="uni2639" unicode="&#x2639;" horiz-adv-x="813" 
d="M777 356q0 -154 -108 -262t-262 -108q-153 0 -263 108q-108 108 -108 262t108 263q109 109 263 109t262 -109q108 -108 108 -263zM677 356q0 115 -79 194q-80 81 -191 81q-115 0 -194 -81q-79 -79 -79 -194t79 -194q80 -80 194 -80q111 0 191 80q79 80 79 194zM363 501
q19 -19 19 -47t-19 -47t-47 -19t-47 19t-19 47t19 47q19 20 47 20t47 -20zM544 501q19 -19 19 -47t-19 -47t-47 -19t-47 19t-19 47t19 47q19 20 47 20t47 -20zM603 180h-78q-6 45 -42 74q-35 29 -76 29q-44 0 -79 -28.5t-41 -74.5h-78q10 77 66 127q56 49 132 49
q74 0 130 -50q55 -50 66 -126z" />
    <glyph glyph-name="smileface" unicode="&#x263a;" horiz-adv-x="813" 
d="M777 356q0 -154 -108 -262t-262 -108q-153 0 -263 108q-108 108 -108 262t108 263q109 109 263 109t262 -109q108 -108 108 -263zM407 631q-115 0 -194 -81q-79 -79 -79 -194t79 -194q80 -80 194 -80q111 0 191 80q79 80 79 194q0 115 -79 194q-80 81 -191 81zM363 501
q19 -19 19 -47t-19 -47t-47 -19t-47 19t-19 47t19 47q19 20 47 20t47 -20zM544 501q19 -19 19 -47t-19 -47t-47 -19t-47 19t-19 47t19 47q19 20 47 20t47 -20zM525 332h78q-11 -78 -67 -127q-56 -50 -129 -50q-76 0 -132 49q-55 49 -66 128h78q6 -46 41 -74.5t79 -28.5
q42 0 76 28q36 29 42 75z" />
    <glyph glyph-name="invsmileface" unicode="&#x263b;" horiz-adv-x="813" 
d="M777 356q0 -154 -108 -262t-262 -108q-153 0 -263 108q-108 108 -108 262t108 263q109 109 263 109t262 -109q108 -108 108 -263zM363 407q19 19 19 47t-19 47q-19 20 -47 20t-47 -20q-19 -19 -19 -47t19 -47t47 -19t47 19zM544 407q19 19 19 47t-19 47q-19 20 -47 20
t-47 -20q-19 -19 -19 -47t19 -47t47 -19t47 19zM603 332h-78q-6 -46 -42 -75q-34 -28 -76 -28q-44 0 -79 28.5t-41 74.5h-78q11 -79 66 -128q56 -49 132 -49q73 0 129 50q56 49 67 127z" />
    <glyph glyph-name="heart" unicode="&#x2665;" horiz-adv-x="872" 
d="M3 480q0 96 65 163q66 66 163 66q58 0 106 -28t72 -78q24 51 72 78.5t109 27.5q96 0 160 -67q65 -68 65 -162q0 -120 -95 -237q-39 -49 -98 -102q-98 -88 -213 -155q-114 67 -214 155q-59 54 -97 102q-95 117 -95 237z" />
    <glyph glyph-name="uni2713" unicode="&#x2713;" horiz-adv-x="942" 
d="M97 385l215 -232l517 563l83 -81l-603 -651l-294 323z" />
    <glyph glyph-name="uni2715" unicode="&#x2715;" horiz-adv-x="755" 
d="M19 76l277 279l-277 277l81 80l276 -276l274 276l80 -80l-274 -277l280 -279l-80 -81l-280 279l-277 -279z" />
    <glyph glyph-name="uni2E18" unicode="&#x2e18;" horiz-adv-x="604" 
d="M343 328q-43 0 -71 27t-28 70q0 50 35 85q35 36 85 36q43 0 71 -27t28 -70q0 -49 -35 -86q-35 -35 -85 -35zM357 -47l113 -106q-106 -109 -266 -109q-109 0 -174 56t-65 141q0 102 84 174q17 15 68 52.5t76.5 63.5t32.5 53l3 11h172l-72 -312h-161l24 80q-57 -45 -57 -83
q0 -35 29 -57.5t74 -22.5q69 0 119 59z" />
    <glyph glyph-name="zero.slash" unicode="&#xe008;" horiz-adv-x="774" 
d="M482 796q135 0 212 -89t77 -226q0 -184 -106 -334q-51 -73 -130.5 -116t-170.5 -43q-136 0 -213 87q-76 86 -76 228q0 119 47 231q46 110 142 186q95 76 218 76zM458 617q-42 0 -78 -28t-58 -75q-42 -88 -48 -181l263 252q-29 32 -79 32zM386 167q44 0 80 29t57.5 74
t34 92.5t14.5 90.5l-264 -255q28 -31 78 -31z" />
    <glyph glyph-name="uniE09D" unicode="&#xe09d;" horiz-adv-x="877" 
d="M866 376h-127l-43 -161q-3 -11 -3 -21q0 -44 62 -44q19 0 49 5l-39 -150q-44 -14 -103 -14q-76 0 -122 40t-46 111q0 33 10 66l46 170h-206l-101 -378h-189l101 378h-98l41 156h97l21 74q59 209 268 209q72 0 106 -21l-39 -148q-25 12 -51 12q-80 0 -104 -84l-12 -42h211
l47 173h185l-46 -173h127z" />
    <glyph glyph-name="at.case" unicode="&#xf633;" horiz-adv-x="875" 
d="M590 539l16 48h118q-80 -246 -80 -276q0 -29 26 -29q60 0 100 66q40 65 40 131q0 107 -85 174q-85 68 -196 68q-149 0 -259 -113q-109 -112 -109 -265q0 -123 81 -201t207 -78q55 0 116.5 19.5t107.5 51.5l33 -63q-48 -38 -123 -62q-78 -23 -140 -23q-151 0 -257 98
q-105 97 -105 252q0 123 59 229q58 105 163 167q105 63 230 63q87 0 167 -36q81 -36 135 -108t54 -162q0 -70 -29 -139q-29 -68 -88 -115t-132 -47q-34 0 -65 15.5t-40 41.5q-22 -25 -58 -41.5t-69 -16.5q-61 0 -101 46t-40 110q0 97 70 171q70 76 163 76q29 0 56.5 -14.5
t33.5 -37.5zM556 420q0 26 -15 41t-41 15q-41 0 -74 -37q-33 -36 -33 -77q0 -27 15.5 -44.5t40.5 -17.5q41 0 74 39t33 81z" />
    <glyph glyph-name="commaaccent" unicode="&#xf6c3;" horiz-adv-x="0" 
d="M-55 -393l16 62q38 0 76.5 19.5t54.5 63.5q-14 -10 -38 -10q-36 0 -58 22.5t-22 58.5q0 39 30 66.5t72 27.5q47 0 73 -29.5t26 -79.5q0 -111 -103 -169q-62 -35 -127 -32z" />
    <glyph glyph-name="uniF730" unicode="&#xf730;" horiz-adv-x="633" 
d="M287 -12q-118 0 -182 67t-64 178q0 123 89 218q90 95 222 95q117 0 181 -67q65 -68 65 -176q0 -125 -90 -220t-221 -95zM337 380q-51 0 -83 -39q-31 -38 -31 -92q0 -43 20.5 -69.5t58.5 -26.5q50 0 81 39q33 39 33 95q0 42 -21.5 67.5t-57.5 25.5z" />
    <glyph glyph-name="uniF731" unicode="&#xf731;" horiz-adv-x="464" 
d="M225 341l-127 -61l-60 122l269 132h155l-141 -534h-186z" />
    <glyph glyph-name="uniF732" unicode="&#xf732;" horiz-adv-x="526" 
d="M368 206l-106 -69h183l-37 -137h-430l35 130l266 175q55 36 55 66q0 33 -42 33q-56 0 -102 -66l-118 86q77 122 235 122q84 0 140 -43q57 -42 57 -117q0 -49 -31.5 -90.5t-104.5 -89.5z" />
    <glyph glyph-name="uniF733" unicode="&#xf733;" horiz-adv-x="521" 
d="M303 546q88 0 140 -43q54 -42 54 -109q0 -47 -32 -81.5t-82 -46.5q67 -31 67 -101q0 -75 -66 -124q-65 -49 -169 -49q-79 0 -136.5 39.5t-75.5 113.5l131 62q10 -33 33.5 -53t54.5 -20q24 0 42 13t18 29q0 30 -43 30h-44l35 130h24q36 0 54.5 11.5t18.5 28.5
q0 12 -11.5 20t-31.5 8q-58 0 -97 -53l-113 85q78 110 229 110z" />
    <glyph glyph-name="uniF734" unicode="&#xf734;" horiz-adv-x="585" 
d="M257 85h-270l47 173l300 276h220l-83 -312h66l-36 -137h-66l-23 -85h-177zM334 372l-162 -150h122z" />
    <glyph glyph-name="uniF735" unicode="&#xf735;" horiz-adv-x="516" 
d="M456 205q0 -95 -71 -154t-170 -59q-162 0 -211 133l122 78q30 -68 95 -68q28 0 47 16t19 42q0 18 -15 30t-37 12q-36 0 -72 -33l-122 60l115 272h359l-37 -136h-227l-25 -57q35 20 76 20q67 0 110 -46q44 -47 44 -110z" />
    <glyph glyph-name="uniF736" unicode="&#xf736;" horiz-adv-x="550" 
d="M353 406q-94 0 -129 -87h1q53 41 107 41q69 0 115 -44q45 -44 45 -111q0 -91 -73 -152q-71 -61 -169 -61q-96 0 -155 57q-58 57 -58 149q0 146 90 246q91 102 240 102q111 0 173 -69l-89 -114q-46 43 -98 43zM272 236q-29 0 -52.5 -19t-23.5 -44q0 -20 16 -32t41 -12
q31 0 53 18t22 45q0 20 -15.5 32t-40.5 12z" />
    <glyph glyph-name="uniF737" unicode="&#xf737;" horiz-adv-x="498" 
d="M280 373h-218l43 161h429l-43 -158l-273 -376h-216z" />
    <glyph glyph-name="uniF738" unicode="&#xf738;" horiz-adv-x="541" 
d="M318 546q82 0 143 -44q60 -44 60 -104q0 -46 -30 -82.5t-80 -55.5q59 -38 59 -100q0 -77 -67 -125q-67 -47 -165 -47q-96 0 -160 40q-65 41 -65 107q0 53 34.5 93.5t90.5 58.5q-49 34 -49 90q0 73 67 121q68 48 162 48zM305 411q-23 0 -41 -12t-18 -32q0 -16 15.5 -26.5
t35.5 -10.5q23 0 41 12.5t18 32.5q0 16 -15.5 26t-35.5 10zM250 212q-27 0 -48 -12.5t-21 -34.5q0 -19 19.5 -30t42.5 -11q27 0 48 12.5t21 34.5q0 19 -19.5 30t-42.5 11z" />
    <glyph glyph-name="uniF739" unicode="&#xf739;" horiz-adv-x="552" 
d="M208 131q87 0 123 88h-1q-52 -42 -107 -42q-68 0 -114 44q-45 43 -45 111q0 91 72 152q74 62 170 62t154 -57q59 -57 59 -150q0 -145 -90 -246q-89 -101 -235 -101q-115 0 -178 72l89 114q50 -47 103 -47zM283 302q30 0 53.5 18.5t23.5 43.5q0 21 -16 33t-41 12
q-31 0 -53.5 -18.5t-22.5 -45.5q0 -20 15.5 -31.5t40.5 -11.5z" />
    <glyph glyph-name="NULL" horiz-adv-x="0" 
 />
    <glyph glyph-name="CR" horiz-adv-x="333" 
 />
    <glyph glyph-name="Aring.alt" horiz-adv-x="818" 
d="M558 847q-60 0 -99 37.5t-39 97.5q0 69 48 117q48 49 117 49q60 0 99 -38t39 -97q0 -70 -48 -118t-117 -48zM579 1055q-28 0 -46.5 -19t-18.5 -46q0 -22 14 -36t36 -14q28 0 46.5 19t18.5 46q0 22 -14 36t-36 14zM235 144l-90 -144h-213l494 783h225l121 -783h-204
l-21 144h-312zM525 311l-36 256l-154 -256h190z" />
    <glyph glyph-name="OE.alt" horiz-adv-x="1139" 
d="M1063 176l-46 -176h-554q-181 0 -287 83q-104 83 -104 247q0 89 36 172.5t105 147.5q143 133 398 133h612l-47 -175h-349l-35 -128h318l-45 -169h-317l-37 -135h352zM279 346q0 -164 203 -164h35l111 419h-42q-68 0 -122.5 -17t-88 -43.5t-56 -61.5t-31.5 -68t-9 -65z
" />
    <glyph glyph-name="Q.alt" horiz-adv-x="962" 
d="M969 160l-42 -160h-465q-79 0 -148.5 21.5t-123 62t-84.5 106t-31 148.5q0 191 137 325q136 133 328 133q165 0 268 -100q103 -99 103 -248q0 -168 -168 -288h226zM280 354q0 -85 52 -133t132 -48q100 0 170 78q72 79 72 181q0 77 -51 128q-49 52 -134 52q-98 0 -170 -79
q-71 -79 -71 -179z" />
    <glyph glyph-name="O.slash" horiz-adv-x="912" 
d="M539 796q165 0 268 -100q103 -99 103 -248q0 -127 -64 -233q-62 -105 -170 -167q-106 -60 -229 -60q-154 0 -263 94t-109 256q0 125 63 232q63 106 169 166q107 60 232 60zM521 613q-99 0 -171 -79q-71 -80 -71 -180q0 -40 12 -72l306 318q-35 13 -76 13zM464 172
q100 0 170 79q72 79 72 181q0 41 -13 73l-307 -319q37 -14 78 -14z" />
    <glyph glyph-name="a.alt" horiz-adv-x="605" 
d="M159 -10q-63 0 -106 39q-43 40 -43 105q0 86 70 132q71 47 163 47h90q22 0 38 13t16 33q0 21 -17 31.5t-42 10.5q-82 0 -129 -66l-113 84q87 127 268 127q87 0 151 -43q66 -42 66 -123q0 -39 -11 -78l-81 -302h-181l16 63h-1q-34 -38 -69.5 -55.5t-84.5 -17.5zM248 122
q35 0 61 19t35 53l6 22h-63q-35 0 -58.5 -15t-23.5 -38q0 -19 12 -30t31 -11z" />
    <glyph glyph-name="aacute.alt" horiz-adv-x="605" 
d="M458 819h212l-224 -196h-153zM159 -10q-63 0 -106 39q-43 40 -43 105q0 86 70 132q71 47 163 47h90q22 0 38 13t16 33q0 21 -17 31.5t-42 10.5q-82 0 -129 -66l-113 84q87 127 268 127q87 0 151 -43q66 -42 66 -123q0 -39 -11 -78l-81 -302h-181l16 63h-1
q-34 -38 -69.5 -55.5t-84.5 -17.5zM248 122q35 0 61 19t35 53l6 22h-63q-35 0 -58.5 -15t-23.5 -38q0 -19 12 -30t31 -11z" />
    <glyph glyph-name="acaron.alt" horiz-adv-x="605" 
d="M405 712l88 101h158l-176 -188h-172l-79 188h147zM159 -10q-63 0 -106 39q-43 40 -43 105q0 86 70 132q71 47 163 47h90q22 0 38 13t16 33q0 21 -17 31.5t-42 10.5q-82 0 -129 -66l-113 84q87 127 268 127q87 0 151 -43q66 -42 66 -123q0 -39 -11 -78l-81 -302h-181
l16 63h-1q-34 -38 -69.5 -55.5t-84.5 -17.5zM248 122q35 0 61 19t35 53l6 22h-63q-35 0 -58.5 -15t-23.5 -38q0 -19 12 -30t31 -11z" />
    <glyph glyph-name="acircumflex.alt" horiz-adv-x="605" 
d="M407 726l-88 -102h-158l176 189h172l79 -189h-147zM159 -10q-63 0 -106 39q-43 40 -43 105q0 86 70 132q71 47 163 47h90q22 0 38 13t16 33q0 21 -17 31.5t-42 10.5q-82 0 -129 -66l-113 84q87 127 268 127q87 0 151 -43q66 -42 66 -123q0 -39 -11 -78l-81 -302h-181
l16 63h-1q-34 -38 -69.5 -55.5t-84.5 -17.5zM248 122q35 0 61 19t35 53l6 22h-63q-35 0 -58.5 -15t-23.5 -38q0 -19 12 -30t31 -11z" />
    <glyph glyph-name="adieresis.alt" horiz-adv-x="605" 
d="M263 616q-39 0 -64.5 25t-25.5 64q0 46 32 78t78 32q39 0 64.5 -24.5t25.5 -63.5q0 -47 -32 -79t-78 -32zM523 616q-39 0 -64 24.5t-25 64.5q0 46 31 78t77 32q40 0 65.5 -24.5t25.5 -63.5q0 -46 -32 -78.5t-78 -32.5zM159 -10q-63 0 -106 39q-43 40 -43 105q0 86 70 132
q71 47 163 47h90q22 0 38 13t16 33q0 21 -17 31.5t-42 10.5q-82 0 -129 -66l-113 84q87 127 268 127q87 0 151 -43q66 -42 66 -123q0 -39 -11 -78l-81 -302h-181l16 63h-1q-34 -38 -69.5 -55.5t-84.5 -17.5zM248 122q35 0 61 19t35 53l6 22h-63q-35 0 -58.5 -15t-23.5 -38
q0 -19 12 -30t31 -11z" />
    <glyph glyph-name="agrave.alt" horiz-adv-x="605" 
d="M456 623h-134l-149 196h197zM159 -10q-63 0 -106 39q-43 40 -43 105q0 86 70 132q71 47 163 47h90q22 0 38 13t16 33q0 21 -17 31.5t-42 10.5q-82 0 -129 -66l-113 84q87 127 268 127q87 0 151 -43q66 -42 66 -123q0 -39 -11 -78l-81 -302h-181l16 63h-1
q-34 -38 -69.5 -55.5t-84.5 -17.5zM248 122q35 0 61 19t35 53l6 22h-63q-35 0 -58.5 -15t-23.5 -38q0 -19 12 -30t31 -11z" />
    <glyph glyph-name="amacron.alt" horiz-adv-x="605" 
d="M611 765l-36 -137h-386l36 137h386zM159 -10q-63 0 -106 39q-43 40 -43 105q0 86 70 132q71 47 163 47h90q22 0 38 13t16 33q0 21 -17 31.5t-42 10.5q-82 0 -129 -66l-113 84q87 127 268 127q87 0 151 -43q66 -42 66 -123q0 -39 -11 -78l-81 -302h-181l16 63h-1
q-34 -38 -69.5 -55.5t-84.5 -17.5zM248 122q35 0 61 19t35 53l6 22h-63q-35 0 -58.5 -15t-23.5 -38q0 -19 12 -30t31 -11z" />
    <glyph glyph-name="aogonek.alt" horiz-adv-x="604" 
d="M571 380q0 -39 -11 -78l-81 -302h1q-45 -22 -87 -55q-43 -34 -43 -64q0 -18 17.5 -28.5t40.5 -10.5q2 0 8.5 0.5t8.5 0.5l-28 -104q-27 -5 -59 -5q-54 0 -97 25t-43 75q0 87 130 166h-30l16 63h-1q-34 -38 -69.5 -55.5t-84.5 -17.5q-63 0 -106 39q-43 40 -43 105
q0 86 70 132q71 47 163 47h90q22 0 38 13t16 33q0 21 -17 31.5t-42 10.5q-82 0 -129 -66l-113 84q87 127 268 127q87 0 151 -43q66 -42 66 -123zM248 122q35 0 61 19t35 53l6 22h-63q-35 0 -58.5 -15t-23.5 -38q0 -19 12 -30t31 -11z" />
    <glyph glyph-name="aring.alt" horiz-adv-x="606" 
d="M492 512q79 -46 79 -132q0 -39 -11 -78l-81 -302h-181l16 63h-1q-34 -38 -69.5 -55.5t-84.5 -17.5q-63 0 -106 39q-43 40 -43 105q0 86 70 132q71 47 163 47h90q22 0 38 13t16 33q0 21 -17 31.5t-42 10.5q-82 0 -129 -66l-113 84q54 78 143 108q-9 22 -9 50q0 68 48 116
q48 49 117 49q59 0 98 -39q40 -37 40 -97q0 -53 -31 -94zM378 648q-27 0 -46 -18.5t-19 -46.5q0 -22 14.5 -36t36.5 -14q27 0 46 19.5t19 46.5q0 22 -14 35.5t-37 13.5zM344 194l6 22h-63q-35 0 -58.5 -15t-23.5 -38q0 -19 12 -30t31 -11q35 0 61 19t35 53z" />
    <glyph glyph-name="atilde.alt" horiz-adv-x="605" 
d="M337 806q32 0 61.5 -16t51.5 -32t34 -16q19 0 33 17.5t21 43.5h112q-15 -82 -60.5 -131.5t-117.5 -49.5q-38 0 -86.5 32t-59.5 32q-39 0 -57 -61h-111q15 82 61 131.5t118 49.5zM159 -10q-63 0 -106 39q-43 40 -43 105q0 86 70 132q71 47 163 47h90q22 0 38 13t16 33
q0 21 -17 31.5t-42 10.5q-82 0 -129 -66l-113 84q87 127 268 127q87 0 151 -43q66 -42 66 -123q0 -39 -11 -78l-81 -302h-181l16 63h-1q-34 -38 -69.5 -55.5t-84.5 -17.5zM248 122q35 0 61 19t35 53l6 22h-63q-35 0 -58.5 -15t-23.5 -38q0 -19 12 -30t31 -11z" />
    <glyph glyph-name="l.alt" horiz-adv-x="374" 
d="M206 815h191l-159 -600q-4 -12 -4 -21q0 -44 54 -44q19 0 49 5l-39 -150q-45 -14 -103 -14q-72 0 -116 40t-44 111q0 34 9 66z" />
    <glyph glyph-name="lslash.alt" horiz-adv-x="475" 
d="M457 368l-117 -49l-28 -104q-3 -11 -3 -21q0 -44 54 -44q19 0 49 5l-40 -150q-44 -14 -102 -14q-73 0 -117 40t-44 111q0 33 10 66l5 21l-115 -48l47 172l113 47l111 415h192l-87 -326l117 49z" />
    <glyph glyph-name="y.alt" horiz-adv-x="625" 
d="M-3 -265q-71 0 -106 20l39 147q25 -9 52 -9q58 0 96.5 25t73.5 81l-70 535h187l33 -317h1l188 317h201l-363 -572q-49 -76 -93 -123q-94 -104 -239 -104z" />
    <glyph glyph-name="aring.alt2" horiz-adv-x="605" 
d="M402 607q-60 0 -98.5 38t-38.5 98q0 69 48 117q48 49 117 49q59 0 98 -39q40 -37 40 -97q0 -69 -48 -118q-48 -48 -118 -48zM423 816q-27 0 -45.5 -19t-18.5 -47q0 -22 14 -35.5t36 -13.5q27 0 46 18.5t19 46.5q0 22 -14.5 36t-36.5 14zM159 -10q-63 0 -106 39
q-43 40 -43 105q0 86 70 132q71 47 163 47h90q22 0 38 13t16 33q0 21 -17 31.5t-42 10.5q-82 0 -129 -66l-113 84q87 127 268 127q87 0 151 -43q66 -42 66 -123q0 -39 -11 -78l-81 -302h-181l16 63h-1q-34 -38 -69.5 -55.5t-84.5 -17.5zM248 122q35 0 61 19t35 53l6 22h-63
q-35 0 -58.5 -15t-23.5 -38q0 -19 12 -30t31 -11z" />
    <glyph glyph-name="i.loclTRK" horiz-adv-x="318" 
d="M271 606q-43 0 -71 27.5t-28 70.5q0 51 35 86.5t86 35.5q43 0 71.5 -27.5t28.5 -70.5q0 -51 -36 -87q-35 -35 -86 -35zM137 534h192l-142 -534h-192z" />
    <glyph glyph-name="uni0414.alt" horiz-adv-x="919" 
d="M-92 -164l90 334h56l441 613h210l107 -613h63l-89 -334h-185l44 164h-508l-44 -164h-185zM265 170h353l-64 401z" />
    <glyph glyph-name="uni041B.alt" horiz-adv-x="796" 
d="M749 0h-218l-64 526l-311 -526h-222l482 783h218z" />
    <glyph glyph-name="uni0434.alt" horiz-adv-x="730" 
d="M678 154l-84 -318h-158l43 164h-359l-44 -164h-159l84 318h53l281 380h212l77 -380h54zM398 378l-161 -224h203z" />
    <glyph glyph-name="uni0438.alt" horiz-adv-x="652" 
d="M330 0l16 59h-2q-73 -70 -154 -70q-72 0 -112.5 44t-40.5 114q0 44 16 98l77 289h190l-75 -282q-5 -18 -5 -32q0 -27 15 -42t42 -15q75 0 99 87l76 284h190l-143 -534h-189z" />
    <glyph glyph-name="uni0439.alt" horiz-adv-x="652" 
d="M232 793v13l102 19q4 -40 28 -64.5t62 -24.5q41 0 73.5 25t44.5 65l103 -19q-28 -86 -89 -137t-143 -51q-77 0 -130 48q-51 48 -51 126zM330 0l16 59h-2q-73 -70 -154 -70q-72 0 -112.5 44t-40.5 114q0 44 16 98l77 289h190l-75 -282q-5 -18 -5 -32q0 -27 15 -42t42 -15
q75 0 99 87l76 284h190l-143 -534h-189z" />
    <glyph glyph-name="uni043B.alt" horiz-adv-x="632" 
d="M363 0l-30 309l-190 -309h-204l356 534h189l72 -534h-193z" />
    <glyph glyph-name="uni043F.alt" horiz-adv-x="651" 
d="M526 0h-190l76 281q4 13 4 33q0 57 -57 57q-75 0 -98 -87l-76 -284h-190l142 534h189l-15 -59h1q71 70 154 70q73 0 113 -43.5t40 -114.5q0 -39 -15 -98z" />
    <glyph glyph-name="uni0446.alt" horiz-adv-x="703" 
d="M377 -164l44 164h-91l16 59h-2q-73 -70 -154 -70q-72 0 -112.5 44t-40.5 114q0 44 16 98l77 289h190l-75 -282q-5 -18 -5 -32q0 -27 15 -42t42 -15q75 0 99 87l76 284h190l-101 -378h75l-86 -320h-173z" />
    <glyph glyph-name="uni0448.alt" horiz-adv-x="981" 
d="M676 59h-2q-73 -70 -153 -70q-103 0 -136 88q-82 -88 -193 -88q-75 0 -115 41t-40 116q0 47 16 98l77 290h189l-74 -283q-5 -20 -5 -32q0 -56 54 -56q74 0 96 87l76 284h189l-75 -283q-5 -18 -5 -32q0 -56 54 -56q73 0 96 87l76 284h190l-116 -436q-9 -29 -14 -79v-19
h-191v19q2 21 6 40z" />
    <glyph glyph-name="uni0449.alt" horiz-adv-x="1033" 
d="M965 156l-85 -320h-173l43 164h-90l16 59h-2q-73 -70 -153 -70q-103 0 -136 88q-82 -88 -193 -88q-75 0 -115 41t-40 116q0 38 16 98l77 290h189l-74 -283q-5 -20 -5 -32q0 -56 54 -56q74 0 96 87l76 284h189l-75 -283q-5 -18 -5 -32q0 -56 54 -56q73 0 96 87l76 284h190
l-101 -378h75z" />
    <glyph glyph-name="colon.case" horiz-adv-x="362" 
d="M249 437q-47 0 -76 29.5t-29 75.5q0 54 37 91q38 38 90 38q46 0 76 -29t30 -75q0 -54 -38 -92t-90 -38zM162 114q-46 0 -75.5 28.5t-29.5 74.5q0 55 37 92q38 38 91 38q46 0 76 -29t30 -75q0 -54 -38 -92q-37 -37 -91 -37z" />
    <glyph glyph-name="exclamdown.case" horiz-adv-x="353" 
d="M296 795q43 0 70.5 -27t27.5 -70q0 -49 -35 -86q-35 -35 -85 -35q-42 0 -70.5 27.5t-28.5 69.5q0 50 35 85q36 36 86 36zM154 517h173l-123 -517h-204z" />
    <glyph glyph-name="uni2E18.case" horiz-adv-x="603" 
d="M407 578q-43 0 -71 27t-28 70q0 50 35 85q35 36 85 36q43 0 71 -27t28 -70q0 -49 -35 -86q-35 -35 -85 -35zM421 203l113 -106q-106 -109 -266 -109q-109 0 -174 56t-65 141q0 102 84 174q17 15 68 52.5t76.5 63.5t32.5 53l3 11h172l-72 -312h-161l24 80q-57 -45 -57 -83
q0 -35 29 -57.5t74 -22.5q69 0 119 59z" />
    <glyph glyph-name="questiondown.case" horiz-adv-x="592" 
d="M401 797q43 0 71 -27t28 -70q0 -49 -35 -86q-35 -35 -85 -35q-43 0 -71 27t-28 70q0 50 35 85q34 36 85 36zM34 181q0 94 79 159q10 8 39.5 30t43.5 34t34.5 32t31 41t14.5 44l1 7h177q0 -6 -2 -28q-13 -103 -89 -164q-16 -13 -44 -33.5l-43.5 -32.5t-28.5 -28.5
t-13 -31.5q0 -25 18 -39.5t45 -14.5q57 0 101 68l135 -96q-82 -139 -271 -139q-104 0 -166 54t-62 138z" />
    <glyph glyph-name="semicolon.case" horiz-adv-x="360" 
d="M248 437q-46 0 -76 29.5t-30 75.5q0 54 37 91q38 38 91 38q46 0 76 -29t30 -75q0 -54 -38 -92t-90 -38zM283 213q0 -83 -56 -156q-55 -70 -140 -123l-56 60q94 56 140 130q-19 -10 -42 -10q-39 0 -62.5 24t-23.5 61q0 54 40 91q41 38 95 38q47 0 76 -32.5t29 -82.5z" />
    <glyph glyph-name="braceleft.case" horiz-adv-x="485" 
d="M607 890l-37 -138h-65q-69 0 -98 -33q-28 -34 -41 -114l-14 -79q-10 -58 -44 -90.5t-104 -41.5v-2q126 -27 79 -152l-24 -65q-36 -77 -26 -110.5t77 -33.5h67l-37 -137h-73q-132 0 -179.5 65.5t-0.5 189.5l31 84q18 49 0 66t-81 18l41 152q62 1 90 18t36 66l16 102
q23 135 92 184q71 51 208 51h87z" />
    <glyph glyph-name="braceright.case" horiz-adv-x="485" 
d="M507 467l-41 -153q-62 0 -89.5 -17.5t-36.5 -66.5l-17 -102q-23 -135 -92 -184q-71 -50 -207 -50h-87l38 138h65q69 0 96 33q28 33 42 114l14 77q10 60 44 92.5t104 41.5v2q-126 27 -80 151l25 65q36 76 26 110t-77 34h-67l37 138h73q132 0 179.5 -66t0.5 -190l-31 -84
q-18 -48 0.5 -65.5t80.5 -17.5z" />
    <glyph glyph-name="bracketleft.case" horiz-adv-x="463" 
d="M183 32h186l-37 -138h-347l267 996h346l-37 -138h-185z" />
    <glyph glyph-name="bracketright.case" horiz-adv-x="462" 
d="M-26 32h185l193 720h-185l37 138h345l-266 -996h-346z" />
    <glyph glyph-name="parenleft.case" horiz-adv-x="489" 
d="M234 314q0 -90 43.5 -179t126.5 -156l-95 -96q-115 76 -176 190q-61 115 -61 237q0 210 131 368q129 156 363 221l50 -114q-185 -81 -283.5 -201.5t-98.5 -269.5z" />
    </font>
</defs>
</svg>
